<svg width="437" height="370" viewBox="0 0 437 370" fill="none" xmlns="http://www.w3.org/2000/svg">
<path d="M402.419 307.411C402.326 307.411 403.774 301.096 403.908 300.706C405.489 296.219 411.197 288.468 416.526 288.611C417.412 288.659 418.278 288.892 419.068 289.297C419.857 289.702 420.552 290.269 421.107 290.961C421.663 291.653 422.066 292.454 422.29 293.313C422.514 294.171 422.555 295.067 422.409 295.942C421.927 299.669 418.487 302.78 415.397 304.546C411.762 306.62 402.429 307.411 402.419 307.411Z" fill="#263238"/>
<path d="M403.014 281.722C402.922 281.722 405.304 275.685 405.499 275.325C407.748 271.116 414.555 264.319 419.801 265.273C420.669 265.455 421.489 265.817 422.208 266.337C422.926 266.856 423.527 267.521 423.972 268.288C424.417 269.055 424.695 269.907 424.788 270.789C424.881 271.67 424.788 272.562 424.514 273.405C423.487 277.03 419.596 279.566 416.3 280.849C412.368 282.358 403.025 281.722 403.014 281.722Z" fill="#263238"/>
<path d="M409.709 253.168C409.606 253.168 411.988 247.131 412.183 246.772C414.432 242.572 421.249 235.775 426.496 236.72C427.364 236.902 428.184 237.266 428.902 237.786C429.62 238.307 430.221 238.973 430.665 239.741C431.108 240.509 431.385 241.362 431.477 242.245C431.569 243.127 431.474 244.019 431.198 244.862C430.172 248.476 426.28 251.022 422.984 252.306C419.062 253.805 409.709 253.168 409.709 253.168Z" fill="#263238"/>
<path d="M414.709 225.939C414.606 225.939 416.988 219.902 417.183 219.533C419.432 215.333 426.249 208.536 431.496 209.491C432.364 209.673 433.184 210.035 433.902 210.554C434.621 211.074 435.222 211.739 435.666 212.506C436.111 213.273 436.389 214.125 436.482 215.007C436.576 215.888 436.483 216.78 436.209 217.623C435.182 221.247 431.28 223.783 427.995 225.067C424.062 226.566 414.709 225.939 414.709 225.939Z" fill="#263238"/>
<path d="M412.584 202.273C412.481 202.273 413.19 195.845 413.282 195.445C414.309 190.794 419.114 182.436 424.432 181.974C425.317 181.921 426.203 182.055 427.032 182.367C427.862 182.679 428.616 183.162 429.246 183.785C429.877 184.408 430.369 185.156 430.691 185.981C431.014 186.807 431.158 187.691 431.116 188.576C431.116 192.344 428.036 195.825 425.141 197.93C421.773 200.373 412.584 202.273 412.584 202.273Z" fill="#263238"/>
<path d="M399.832 306.712C399.924 306.712 398.897 300.326 398.805 299.936C397.521 295.346 392.336 287.235 387.008 287.03C386.121 287.02 385.241 287.197 384.427 287.549C383.613 287.902 382.882 288.422 382.283 289.076C381.683 289.73 381.228 290.503 380.947 291.344C380.666 292.186 380.566 293.077 380.652 293.96C380.888 297.718 384.123 301.045 387.09 303.006C390.56 305.316 399.821 306.712 399.832 306.712Z" fill="#263238"/>
<path d="M402.645 278.149C402.747 278.149 400.755 271.988 400.591 271.598C398.62 267.255 392.264 260.027 386.966 260.632C386.088 260.758 385.247 261.067 384.496 261.539C383.746 262.011 383.103 262.636 382.61 263.373C382.117 264.11 381.785 264.943 381.635 265.817C381.485 266.691 381.521 267.587 381.74 268.446C382.541 272.122 386.248 274.925 389.472 276.413C393.271 278.169 402.634 278.149 402.645 278.149Z" fill="#263238"/>
<path d="M409.01 251.227C409.103 251.227 407.121 245.067 406.957 244.687C404.996 240.344 398.64 233.116 393.342 233.721C392.465 233.846 391.623 234.153 390.872 234.624C390.121 235.095 389.478 235.719 388.984 236.455C388.49 237.191 388.156 238.023 388.005 238.896C387.854 239.77 387.888 240.665 388.106 241.525C388.917 245.211 392.613 248.003 395.848 249.502C399.636 251.248 409 251.227 409.01 251.227Z" fill="#263238"/>
<path d="M413.662 226.175C413.764 226.175 411.772 220.015 411.608 219.625C409.637 215.292 403.292 208.064 397.983 208.67C397.106 208.794 396.264 209.101 395.514 209.572C394.763 210.043 394.12 210.667 393.627 211.404C393.134 212.14 392.802 212.972 392.652 213.845C392.502 214.719 392.538 215.614 392.757 216.473C393.558 220.159 397.265 222.951 400.499 224.44C404.288 226.196 413.662 226.175 413.662 226.175Z" fill="#263238"/>
<path d="M412.388 203.043C412.491 203.043 409.842 197.119 409.626 196.759C407.193 192.652 400.088 186.174 394.882 187.365C394.023 187.584 393.221 187.983 392.526 188.535C391.832 189.086 391.261 189.778 390.852 190.565C390.443 191.351 390.205 192.216 390.153 193.101C390.101 193.986 390.236 194.872 390.55 195.702C391.751 199.264 395.735 201.646 399.113 202.766C403.076 204.09 412.388 203.043 412.388 203.043Z" fill="#263238"/>
<path d="M406.783 182.57C406.865 182.57 407.245 176.132 407.224 175.721C406.947 170.957 403.631 161.922 398.466 160.577C397.602 160.378 396.706 160.362 395.836 160.532C394.966 160.702 394.142 161.053 393.416 161.562C392.691 162.071 392.081 162.728 391.626 163.489C391.171 164.249 390.881 165.097 390.776 165.978C390.201 169.705 392.645 173.647 395.119 176.245C398.025 179.202 406.772 182.559 406.783 182.57Z" fill="#263238"/>
<path d="M401.577 341.909C401.577 341.909 401.238 339.188 400.827 334.465C400.417 329.742 399.944 322.986 399.729 314.865C399.616 310.758 399.575 306.405 399.657 301.743C399.657 299.402 399.78 297.061 399.873 294.556C399.955 293.344 400.047 292.123 400.129 290.88C400.211 289.638 400.417 288.365 400.55 287.092C401.254 281.909 402.237 276.767 403.497 271.691C404.76 266.506 406.197 261.3 407.604 256.105C409.011 250.909 410.397 245.714 411.485 240.55C412.592 235.507 413.337 230.391 413.713 225.241C413.977 220.421 413.812 215.586 413.22 210.795C412.734 206.453 411.99 202.143 410.992 197.889C410.089 193.956 409.031 190.404 408.066 187.272C407.101 184.141 406.105 181.451 405.283 179.243C403.61 174.828 402.47 172.385 402.47 172.385C402.47 172.385 403.661 174.808 405.427 179.182C406.31 181.369 407.327 184.048 408.394 187.159C409.462 190.27 410.571 193.813 411.557 197.745C412.665 201.969 413.526 206.255 414.134 210.579C414.841 215.419 415.115 220.312 414.955 225.2C414.681 230.42 414.039 235.615 413.035 240.745C412.009 245.981 410.777 251.238 409.473 256.474C408.169 261.711 406.803 266.957 405.663 272.091C404.532 277.113 403.675 282.192 403.097 287.307C402.994 288.55 402.809 289.73 402.768 290.983C402.727 292.236 402.645 293.457 402.583 294.669C402.583 297.01 402.511 299.433 402.532 301.723C402.532 306.333 402.686 310.686 402.891 314.701C403.271 322.74 403.918 329.424 404.4 334.085C404.883 338.747 405.294 341.375 405.294 341.375C405.329 341.619 405.317 341.867 405.257 342.105C405.197 342.344 405.09 342.568 404.943 342.765C404.797 342.963 404.612 343.129 404.401 343.255C404.19 343.381 403.956 343.465 403.713 343.501C403.469 343.536 403.221 343.524 402.983 343.464C402.744 343.403 402.52 343.297 402.322 343.15C402.125 343.003 401.959 342.819 401.832 342.608C401.706 342.397 401.623 342.163 401.587 341.919V341.909H401.577Z" fill="#263238"/>
<path d="M390.16 331.303H415.756V336.601H413.528L408.908 365.514H397.018L392.388 336.601H390.16V331.303Z" fill="#263238" stroke="#263238" stroke-width="0.17774" stroke-linecap="round" stroke-linejoin="round"/>
<path d="M221.498 350.636C221.498 350.636 220.615 355.842 221.262 357.012C221.909 358.183 222.946 359.723 222.946 359.723H231.098L231.539 357.207C232.664 358.455 234.043 359.446 235.585 360.113C237.751 360.883 239.846 360.113 242.382 360.308C244.528 360.472 249.569 360.308 249.569 360.308L249.425 357.587L234.712 350.996L229.445 346.889C229.445 346.889 224.825 351.057 221.498 350.636Z" fill="#263238" stroke="#263238" stroke-width="0.17774" stroke-linecap="round" stroke-linejoin="round"/>
<path d="M160.777 350.636C160.777 350.636 162.173 354.876 161.66 356.037C161.146 357.197 160.304 359.722 160.304 359.722H152.162L151.444 357.207C150.453 358.461 149.174 359.457 147.717 360.113C145.663 360.883 143.445 360.113 140.94 360.308C138.815 360.472 133.753 360.308 133.753 360.308L133.609 357.587L147.604 350.995L153.158 347.915C153.158 347.915 157.491 351.057 160.777 350.636Z" fill="#263238" stroke="#263238" stroke-width="0.17774" stroke-linecap="round" stroke-linejoin="round"/>
<path d="M225.892 150.464C225.892 150.464 229.26 194.059 230.43 214.902C231.601 235.745 232.145 245.201 232.279 259.873C232.412 274.545 233.059 303.54 233.059 314.434C233.07 325.554 232.346 336.664 230.892 347.69L221.046 352.936C221.046 352.936 217.863 324.968 216.58 314.947C215.42 305.881 211.179 268.99 209.259 257.583C207.339 246.176 198.591 206.513 198.591 206.513C198.591 206.513 186.917 248.127 183.899 264.75C180.88 281.373 169.524 318.859 167.091 327.976C164.658 337.094 160.777 350.616 160.777 350.616C159.408 351.017 157.971 351.129 156.557 350.944C155.922 350.894 155.309 350.689 154.772 350.347C154.235 350.006 153.79 349.537 153.477 348.983C153.477 348.983 156.341 321.693 157.522 308.427C158.99 291.999 159.452 270.192 161.239 261.064C163.025 251.936 162.964 234.451 165.038 222.715C166.218 216.052 172.225 152.302 172.225 152.302C172.225 152.302 205.532 165.783 225.892 150.464Z" fill="#263238" stroke="#263238" stroke-width="0.17774" stroke-linecap="round" stroke-linejoin="round"/>
<path d="M230.892 347.689L223.223 353.911" stroke="white" stroke-width="0.0888702" stroke-linecap="round" stroke-linejoin="round"/>
<path d="M153.169 347.895L159.257 352.566" stroke="white" stroke-width="0.0888702" stroke-linecap="round" stroke-linejoin="round"/>
<path d="M203.622 165.136L203.006 190.558L207.319 186.256" stroke="white" stroke-width="0.0888702" stroke-linecap="round" stroke-linejoin="round"/>
<path d="M200.933 205.774L213.182 190.537" stroke="white" stroke-width="0.0888702" stroke-linecap="round" stroke-linejoin="round"/>
<path d="M216.58 191.646L206.364 201.666" stroke="white" stroke-width="0.0888702" stroke-linecap="round" stroke-linejoin="round"/>
<path d="M193.643 192.765C190.483 185.768 185.082 180.024 178.293 176.439" stroke="white" stroke-width="0.0888702" stroke-linecap="round" stroke-linejoin="round"/>
<path d="M209.218 158.257L208.633 161.234L203.869 162.343L204.413 158.637" stroke="white" stroke-width="0.0888702" stroke-linecap="round" stroke-linejoin="round"/>
<path d="M203.869 162.343C203.869 162.343 194.946 161.974 190.418 160.485L191.373 157.518" stroke="white" stroke-width="0.0888702" stroke-linecap="round" stroke-linejoin="round"/>
<path d="M187.246 156.777L186.342 160.484C186.342 160.484 179.268 160.114 178.128 159.005" stroke="white" stroke-width="0.0888702" stroke-linecap="round" stroke-linejoin="round"/>
<path d="M208.633 161.204C211.061 161.132 213.44 160.499 215.584 159.355L218.818 157.497L217.565 154.899" stroke="white" stroke-width="0.0888702" stroke-linecap="round" stroke-linejoin="round"/>
<path d="M230.287 65.1523C230.287 65.1523 236.735 70.7481 238.665 74.4443C240.595 78.1406 265.935 129.806 265.833 133.338C265.73 136.87 261.982 143.605 255.37 143.605C248.758 143.605 223.695 103.337 223.695 103.337L230.287 65.1523Z" fill="white"/>
<mask id="mask0_522_699" style="mask-type:luminance" maskUnits="userSpaceOnUse" x="223" y="65" width="43" height="79">
<path d="M230.287 65.1523C230.287 65.1523 236.735 70.7481 238.665 74.4443C240.595 78.1406 265.935 129.806 265.833 133.338C265.73 136.87 261.982 143.605 255.37 143.605C248.758 143.605 223.695 103.337 223.695 103.337L230.287 65.1523Z" fill="white"/>
</mask>
<g mask="url(#mask0_522_699)">
<g style="mix-blend-mode:multiply" opacity="0.5">
<path d="M231.078 71.3535L231.509 71.5897C232.269 72.0312 233.973 73.0271 235.842 74.2695C237.953 75.8891 239.878 77.7383 241.581 79.783C241.581 79.783 239.261 73.6226 235.862 70.6759C233.972 69.0521 232.215 67.2805 230.605 65.3779L231.078 71.3535Z" fill="#92E3A9"/>
</g>
</g>
<path d="M230.287 65.1523C230.287 65.1523 236.735 70.7481 238.665 74.4443C240.595 78.1406 265.935 129.806 265.833 133.338C265.73 136.87 261.982 143.605 255.37 143.605C248.758 143.605 223.695 103.337 223.695 103.337L230.287 65.1523Z" stroke="#263238" stroke-width="0.17774" stroke-linecap="round" stroke-linejoin="round"/>
<path opacity="0.5" d="M246.438 119.179C245.585 118.152 239.25 107.957 238.604 104.148C237.957 100.338 239.63 95.4614 239.63 92.9151C239.63 90.3688 235.605 97.3608 235.39 96.5189C235.174 95.677 232.638 86.5596 232.638 86.5596L224.866 96.6113L223.706 103.357C223.706 103.357 233.521 119.117 242.495 130.915C248.881 128.861 258.522 125.73 260.596 124.477C263.81 122.577 247.29 120.247 246.438 119.179Z" fill="#92E3A9"/>
<path d="M199.331 58.1699L230.328 65.1517C230.328 65.1517 232.484 81.0353 232.238 89.6188C231.991 98.2023 225.605 151.285 225.605 151.285C225.605 151.285 209.177 168.041 172.297 152.311C172.297 152.311 171.013 149.837 170.531 131.335C170.069 113.09 156.352 79.2077 157.45 75.3472C159.709 67.4311 186.835 59.823 190.398 59.6074C193.404 59.3216 196.387 58.8415 199.331 58.1699Z" fill="white" stroke="#263238" stroke-width="0.17774" stroke-linecap="round" stroke-linejoin="round"/>
<g style="mix-blend-mode:multiply" opacity="0.5">
<path d="M202.134 151.193L173.745 140.063L178.652 86.1387L210.943 101.252L230.297 92.5455L216.457 148.821L202.134 151.193Z" fill="#92E3A9"/>
</g>
<g style="mix-blend-mode:multiply" opacity="0.5">
<path d="M210.532 67.4824C211.857 67.4824 224.106 69.9363 231.067 71.3532C230.667 67.7185 230.318 65.1927 230.318 65.1927L199.321 58.2109C196.377 58.886 193.394 59.3695 190.388 59.6586C186.825 59.8743 159.699 67.4823 157.44 75.3985C157.081 76.6819 158.333 81.2406 160.192 87.4318C162.902 80.4398 165.325 74.6798 166.157 73.8687C168.026 72 186.692 67.1538 186.692 67.1538L210.532 67.4824Z" fill="#92E3A9"/>
</g>
<path d="M207.75 74.023L203.489 83.5511L212.833 149.57L205.984 158.811L199.485 151.275L201.302 84.393L192.698 74.3515L198.202 63.9404L207.75 74.023Z" fill="#263238"/>
<path d="M240.76 95.3583L215.923 109.137L183.981 92.4219L178.919 139.6L210.553 154.847L234.507 140.432L240.76 95.3583Z" fill="#92E3A9" stroke="#263238" stroke-width="0.17774" stroke-linecap="round" stroke-linejoin="round"/>
<path d="M214.978 119.734L215.923 112.156" stroke="#263238" stroke-width="0.0888702" stroke-linecap="round" stroke-linejoin="round"/>
<path d="M210.553 154.848L214.455 123.892" stroke="#263238" stroke-width="0.0888702" stroke-linecap="round" stroke-linejoin="round"/>
<path d="M202.216 55.5207C202.216 55.5207 207.811 55.5207 210.245 59.217C212.678 62.9132 217.35 77.5237 217.35 77.5237L200.511 72.7904L190.306 83.335C190.306 83.335 180.952 69.4741 184.761 60.675C188.57 51.8758 202.216 55.5207 202.216 55.5207Z" fill="white" stroke="#263238" stroke-width="0.17774" stroke-linecap="round" stroke-linejoin="round"/>
<g style="mix-blend-mode:multiply" opacity="0.5">
<path d="M211.949 62.636C211.467 61.4553 210.898 60.3125 210.245 59.2169C207.812 55.4694 202.216 55.5207 202.216 55.5207C202.216 55.5207 188.591 51.8758 184.761 60.6544C183.529 63.4984 183.735 66.8764 184.443 70.1414C185.111 68.396 186.62 64.8948 188.55 62.9543C191.158 60.3464 191.466 62.6154 191.466 62.6154L206.066 61.4552C208 61.974 209.965 62.3684 211.949 62.636Z" fill="#92E3A9"/>
</g>
<path d="M204.618 47.0195C204.618 47.0195 205.563 66.4454 203.109 70.2751C200.655 74.1048 197.862 72.6366 195.819 70.2751C193.776 67.9136 191.466 62.6362 191.466 62.6362L188.971 48.2619C188.971 48.2619 203.509 50.9417 204.618 47.0195Z" fill="white" stroke="#263238" stroke-width="0.17774" stroke-linecap="round" stroke-linejoin="round"/>
<g style="mix-blend-mode:multiply" opacity="0.5">
<path d="M199.351 62.6361C201.466 62.0302 203.344 60.7903 204.731 59.0836C204.731 57.985 204.731 56.8966 204.731 55.8391C202.339 53.0977 196.846 47.923 190.727 49.5863C190.203 49.73 189.7 49.8943 189.238 50.0586L191.456 62.6361C191.456 62.6361 193.776 67.9546 195.809 70.275L193.755 61.1062C194.472 61.8299 195.366 62.3523 196.348 62.6209C197.331 62.8894 198.366 62.8946 199.351 62.6361Z" fill="#92E3A9"/>
</g>
<path d="M213.181 29.3496C213.181 29.3496 215.995 29.1442 216.056 33.8364C216.118 38.5286 213.356 42.4713 211.456 40.8388C209.557 39.2062 212.658 27.214 213.181 29.3496Z" fill="white" stroke="#263238" stroke-width="0.17774" stroke-linecap="round" stroke-linejoin="round"/>
<path d="M193.868 5.05719C181.065 8.07579 177.636 16.3513 177.738 23.8464C177.738 26.711 179.063 31.6702 180.819 36.8963L180.593 36.424C180.593 36.424 176.743 29.7091 176.178 33.7442C175.613 37.7793 179.422 41.9581 180.685 43.3031C181.036 43.6259 181.488 43.8168 181.963 43.843C182.439 43.8692 182.909 43.7292 183.293 43.4468C185.839 49.6072 188.683 55.1208 190.542 56.6198C194.567 59.8746 200.224 61.5482 204.721 57.6466C209.218 53.745 213.664 31.4956 213.664 31.4956C214.732 8.98958 206.672 2.05912 193.868 5.05719Z" fill="white"/>
<mask id="mask1_522_699" style="mask-type:luminance" maskUnits="userSpaceOnUse" x="176" y="4" width="38" height="56">
<path d="M193.868 5.05719C181.065 8.07579 177.636 16.3513 177.738 23.8464C177.738 26.711 179.063 31.6702 180.819 36.8963L180.593 36.424C180.593 36.424 176.743 29.7091 176.178 33.7442C175.613 37.7793 179.422 41.9581 180.685 43.3031C181.036 43.6259 181.488 43.8168 181.963 43.843C182.439 43.8692 182.909 43.7292 183.293 43.4468C185.839 49.6072 188.683 55.1208 190.542 56.6198C194.567 59.8746 200.224 61.5482 204.721 57.6466C209.218 53.745 213.664 31.4956 213.664 31.4956C214.732 8.98958 206.672 2.05912 193.868 5.05719Z" fill="white"/>
</mask>
<g mask="url(#mask1_522_699)">
<g style="mix-blend-mode:multiply" opacity="0.5">
<path d="M187.051 28.7539C187.051 28.7539 191.517 25.0269 195.994 25.0269C200.47 25.0269 209.793 29.1338 210.902 32.481C211.58 34.5344 210.779 41.1569 210.029 46.1879C212.185 39.1034 213.705 31.5261 213.705 31.5261C214.732 9.03033 206.662 2.07933 193.868 5.09793C181.075 8.11654 177.636 16.392 177.738 23.8872C177.738 26.7518 179.063 31.7109 180.819 36.937L180.593 36.4647C180.593 36.4647 176.743 29.7499 176.178 33.7849C175.613 37.82 179.422 41.9988 180.685 43.3438C181.036 43.6667 181.488 43.8575 181.963 43.8838C182.439 43.91 182.909 43.7699 183.293 43.4876C185.839 49.648 188.683 55.1616 190.542 56.6606C190.542 56.6606 186.26 47.0195 184.772 42.9229C183.283 38.8262 183.693 31.7006 187.051 28.7539Z" fill="#92E3A9"/>
</g>
</g>
<path d="M193.868 5.05719C181.065 8.07579 177.636 16.3513 177.738 23.8464C177.738 26.711 179.063 31.6702 180.819 36.8963L180.593 36.424C180.593 36.424 176.743 29.7091 176.178 33.7442C175.613 37.7793 179.422 41.9581 180.685 43.3031C181.036 43.6259 181.488 43.8168 181.963 43.843C182.439 43.8692 182.909 43.7292 183.293 43.4468C185.839 49.6072 188.683 55.1208 190.542 56.6198C194.567 59.8746 200.224 61.5482 204.721 57.6466C209.218 53.745 213.664 31.4956 213.664 31.4956C214.732 8.98958 206.672 2.05912 193.868 5.05719Z" stroke="#263238" stroke-width="0.17774" stroke-linecap="round" stroke-linejoin="round"/>
<path d="M208.921 38.0459C208.279 39.0101 207.285 39.6838 206.152 39.9219C205.019 40.1601 203.838 39.9436 202.863 39.319" stroke="#263238" stroke-width="0.17774" stroke-linecap="round" stroke-linejoin="round"/>
<path d="M195.255 39.4014C194.613 40.3655 193.619 41.0393 192.486 41.2774C191.353 41.5155 190.172 41.299 189.197 40.6745" stroke="#263238" stroke-width="0.17774" stroke-linecap="round" stroke-linejoin="round"/>
<path d="M195.912 36.3003C194.257 35.4698 192.465 34.9446 190.624 34.7499C188.18 34.6473 185.778 36.6391 185.778 36.6391" stroke="#263238" stroke-width="0.17774" stroke-linecap="round" stroke-linejoin="round"/>
<path d="M201.805 46.6709C201.718 47.2948 201.39 47.8596 200.89 48.2437C200.391 48.6278 199.761 48.8004 199.136 48.7244C198.483 48.7442 197.837 48.583 197.27 48.2587C196.702 47.9343 196.236 47.4594 195.922 46.8865" stroke="#263238" stroke-width="0.17774" stroke-linecap="round" stroke-linejoin="round"/>
<path d="M203.961 51.6299C203.961 51.6299 197.965 53.4164 194.115 51.866C194.618 52.7704 195.306 53.5586 196.134 54.1795C196.962 54.8004 197.911 55.2401 198.92 55.4699C201.199 56.0756 203.961 51.6299 203.961 51.6299Z" fill="#263238"/>
<path d="M209.67 33.6009C209.67 33.6009 207.421 33.4058 205.296 33.4263C203.345 33.4263 201.405 35.9623 201.405 35.9623L200.717 39.0426" stroke="#263238" stroke-width="0.17774" stroke-linecap="round" stroke-linejoin="round"/>
<path d="M191.168 22.5219C195.824 26.4212 200.913 29.7732 206.333 32.5121C215.163 36.927 221.94 28.4051 217.802 24.216C213.664 20.027 223.192 28.8158 224.691 23.5589C226.19 18.302 212.473 0.262295 198.694 0.00561139C184.916 -0.251072 181.579 8.38378 181.579 8.38378C181.579 8.38378 179.956 3.93801 178.735 6.39191C178.024 7.72742 177.617 9.20346 177.544 10.7145C177.544 10.7145 174.751 12.7679 173.519 13.9898C172.287 15.2116 173.868 16.5053 173.868 16.5053C173.868 16.5053 171.404 22.6657 172.718 27.4194L179.792 37.6868C180.646 37.6591 181.481 37.4355 182.234 37.0331C182.987 36.6307 183.638 36.0604 184.135 35.3664C185.983 32.9433 184.628 25.3865 184.628 25.3865C184.628 25.3865 184.741 33.5183 186.907 31.7317C189.074 29.9452 185.881 21.9983 185.881 21.9983L191.168 22.5219Z" fill="#263238"/>
<path d="M185.018 14.123C185.018 14.123 191.322 18.8666 195.881 23.1994C200.44 27.5322 207.391 29.1955 209.454 28.2407" stroke="white" stroke-width="0.0888702" stroke-miterlimit="10" stroke-linecap="round"/>
<path d="M204.495 20.0887C204.495 20.0887 195.46 18.0352 193.335 14.1131C191.209 10.1909 184.628 10.653 184.628 10.653C186.272 9.13691 188.278 8.06874 190.453 7.55094C192.629 7.03314 194.901 7.08307 197.051 7.69596" stroke="white" stroke-width="0.0888702" stroke-miterlimit="10" stroke-linecap="round"/>
<path d="M181.589 16.0635C181.589 16.0635 188.653 26.7107 184.197 29.986" stroke="white" stroke-width="0.0888702" stroke-miterlimit="10" stroke-linecap="round"/>
<path d="M157.45 75.3574C157.45 75.3574 138.281 127.618 139.164 133.45C140.047 139.282 150.109 136.962 153.281 136.171C156.454 135.38 168.683 115.975 168.765 111.796C169.555 111.302 170.231 110.646 170.747 109.87C171.264 109.095 171.61 108.218 171.763 107.299C172.512 103.931 173.026 91.8981 168.159 82.8731" fill="white"/>
<mask id="mask2_522_699" style="mask-type:luminance" maskUnits="userSpaceOnUse" x="139" y="75" width="34" height="63">
<path d="M157.45 75.3574C157.45 75.3574 138.281 127.618 139.164 133.45C140.047 139.282 150.109 136.962 153.281 136.171C156.454 135.38 168.683 115.975 168.765 111.796C169.555 111.302 170.231 110.646 170.747 109.87C171.264 109.095 171.61 108.218 171.763 107.299C172.512 103.931 173.026 91.8981 168.159 82.8731" fill="white"/>
</mask>
<g mask="url(#mask2_522_699)">
<g style="mix-blend-mode:multiply" opacity="0.5">
<path d="M157.45 75.3574C157.45 75.3574 138.281 127.618 139.164 133.45C139.657 136.643 142.901 137.383 146.248 137.28C148.589 130.678 149.503 118.614 151.259 112.638C153.199 105.954 159.524 88.6536 163.374 79.5568L157.45 75.3574Z" fill="#92E3A9"/>
</g>
</g>
<path d="M157.45 75.3574C157.45 75.3574 138.281 127.618 139.164 133.45C140.047 139.282 150.109 136.962 153.281 136.171C156.454 135.38 168.683 115.975 168.765 111.796C169.555 111.302 170.231 110.646 170.747 109.87C171.264 109.095 171.61 108.218 171.763 107.299C172.512 103.931 173.026 91.8981 168.159 82.8731" stroke="#263238" stroke-width="0.17774" stroke-linecap="round" stroke-linejoin="round"/>
<path d="M171.938 128.676C171.938 128.676 147.296 127.177 144.134 126.92C140.971 126.663 137.183 131.027 140.16 137.064C143.138 143.101 147.871 143.45 153.682 142.352C159.494 141.253 172.328 133.419 172.328 133.419L171.938 128.676Z" fill="white"/>
<mask id="mask3_522_699" style="mask-type:luminance" maskUnits="userSpaceOnUse" x="139" y="126" width="34" height="17">
<path d="M171.938 128.676C171.938 128.676 147.296 127.177 144.134 126.92C140.971 126.663 137.183 131.027 140.16 137.064C143.138 143.101 147.871 143.45 153.682 142.352C159.494 141.253 172.328 133.419 172.328 133.419L171.938 128.676Z" fill="white"/>
</mask>
<g mask="url(#mask3_522_699)">
<path opacity="0.5" d="M171.938 128.676C171.938 128.676 147.296 127.177 144.134 126.92C140.971 126.663 137.183 131.027 140.16 137.064C143.138 143.101 147.871 143.45 153.682 142.352C159.494 141.253 172.328 133.419 172.328 133.419L171.938 128.676Z" fill="#92E3A9" stroke="#263238" stroke-width="0.17774" stroke-linecap="round" stroke-linejoin="round"/>
</g>
<path d="M171.938 128.676C171.938 128.676 147.296 127.177 144.134 126.92C140.971 126.663 137.183 131.027 140.16 137.064C143.138 143.101 147.871 143.45 153.682 142.352C159.494 141.253 172.328 133.419 172.328 133.419L171.938 128.676Z" stroke="#263238" stroke-width="0.17774" stroke-linecap="round" stroke-linejoin="round"/>
<path d="M175.87 122.67C175.87 122.67 179.053 119.292 179.895 119.363C180.737 119.435 186.917 119.096 187.441 120.544C187.965 121.992 187.133 121.355 186.281 121.838C185.429 122.32 181.199 122.865 181.199 122.865C181.199 122.865 184.843 123.162 185.942 123.809C187.041 124.456 191.692 128.748 191.671 129.59C191.651 130.432 191.086 130.616 189.957 130.616C188.827 130.616 189.659 131.428 189.351 132.239C189.043 133.05 186.815 132.875 186.815 132.875C186.815 132.875 187.01 135.689 185.326 135.545C183.642 135.401 180.624 133.204 180.624 133.204C180.624 133.204 174.391 135.483 172.153 135.309C170.683 135.242 169.222 135.572 167.923 136.264C169.805 131.325 172.49 126.732 175.87 122.67Z" fill="white"/>
<mask id="mask4_522_699" style="mask-type:luminance" maskUnits="userSpaceOnUse" x="167" y="119" width="25" height="18">
<path d="M175.87 122.67C175.87 122.67 179.053 119.292 179.895 119.363C180.737 119.435 186.917 119.096 187.441 120.544C187.965 121.992 187.133 121.355 186.281 121.838C185.429 122.32 181.199 122.865 181.199 122.865C181.199 122.865 184.843 123.162 185.942 123.809C187.041 124.456 191.692 128.748 191.671 129.59C191.651 130.432 191.086 130.616 189.957 130.616C188.827 130.616 189.659 131.428 189.351 132.239C189.043 133.05 186.815 132.875 186.815 132.875C186.815 132.875 187.01 135.689 185.326 135.545C183.642 135.401 180.624 133.204 180.624 133.204C180.624 133.204 174.391 135.483 172.153 135.309C170.683 135.242 169.222 135.572 167.923 136.264C169.805 131.325 172.49 126.732 175.87 122.67Z" fill="white"/>
</mask>
<g mask="url(#mask4_522_699)">
<g style="mix-blend-mode:multiply" opacity="0.5">
<path d="M175.87 122.67C172.499 126.704 169.814 131.266 167.923 136.171C169.222 135.48 170.683 135.15 172.153 135.216C172.889 135.229 173.624 135.149 174.34 134.98C174.786 133.017 175.051 131.016 175.131 129.004C175.131 126.017 179.895 119.363 179.895 119.363C179.042 119.292 175.87 122.67 175.87 122.67Z" fill="#92E3A9"/>
</g>
</g>
<path d="M175.87 122.67C175.87 122.67 179.053 119.292 179.895 119.363C180.737 119.435 186.917 119.096 187.441 120.544C187.965 121.992 187.133 121.355 186.281 121.838C185.429 122.32 181.199 122.865 181.199 122.865C181.199 122.865 184.843 123.162 185.942 123.809C187.041 124.456 191.692 128.748 191.671 129.59C191.651 130.432 191.086 130.616 189.957 130.616C188.827 130.616 189.659 131.428 189.351 132.239C189.043 133.05 186.815 132.875 186.815 132.875C186.815 132.875 187.01 135.689 185.326 135.545C183.642 135.401 180.624 133.204 180.624 133.204C180.624 133.204 174.391 135.483 172.153 135.309C170.683 135.242 169.222 135.572 167.923 136.264C169.805 131.325 172.49 126.732 175.87 122.67Z" stroke="#263238" stroke-width="0.17774" stroke-linecap="round" stroke-linejoin="round"/>
<path d="M189.957 130.524L184.464 126.161L179.987 125.514" stroke="#263238" stroke-width="0.17774" stroke-linecap="round" stroke-linejoin="round"/>
<path d="M186.805 132.783L180.716 129.487L177.923 128.984" stroke="#263238" stroke-width="0.17774" stroke-linecap="round" stroke-linejoin="round"/>
<path d="M243.347 118.511C243.347 118.511 240.164 115.143 239.322 115.205C238.48 115.267 232.299 114.948 231.776 116.386C231.252 117.823 232.084 117.197 232.936 117.69C234.596 118.17 236.298 118.496 238.018 118.665C238.018 118.665 234.373 118.963 233.275 119.62C232.176 120.277 227.525 124.558 227.545 125.39C227.566 126.222 228.131 126.417 229.26 126.417C230.39 126.417 229.558 127.228 229.866 128.039C230.174 128.85 232.402 128.665 232.402 128.665C232.402 128.665 232.207 131.479 233.891 131.345C235.575 131.212 238.593 129.004 238.593 129.004C238.593 129.004 244.825 131.284 247.064 131.058C248.535 130.989 249.998 131.323 251.294 132.023C249.404 127.113 246.719 122.549 243.347 118.511Z" fill="white" stroke="#263238" stroke-width="0.17774" stroke-linecap="round" stroke-linejoin="round"/>
<path d="M229.26 126.365L234.743 122.012L239.22 121.365" stroke="#263238" stroke-width="0.17774" stroke-linecap="round" stroke-linejoin="round"/>
<path d="M232.402 128.625L238.49 125.34L241.283 124.826" stroke="#263238" stroke-width="0.17774" stroke-linecap="round" stroke-linejoin="round"/>
<path d="M247.012 123.624C247.012 123.624 257.577 122.413 261.202 125.134C264.826 127.854 264.22 134.785 264.22 134.785" stroke="#263238" stroke-width="0.17774" stroke-linecap="round" stroke-linejoin="round"/>
<path d="M163.548 347.042C163.548 347.042 164.678 344.794 168.282 345.246C171.885 345.697 174.144 349.979 171.66 351.324C169.175 352.669 163.548 347.042 163.548 347.042Z" fill="#92E3A9" stroke="#263238" stroke-width="0.17774" stroke-linecap="round" stroke-linejoin="round"/>
<path d="M168.877 242.479C168.877 242.479 177.358 244.184 181.434 246.894C185.51 249.605 186.178 250.282 187.194 255.714C188.211 261.145 184.484 275.725 184.484 283.189C184.484 290.654 179.052 336.107 179.052 339.855C179.052 343.602 182.789 351.385 182.451 354.096C182.307 356.045 182.537 358.003 183.128 359.866C183.128 359.866 185.5 361.56 182.451 361.919C179.401 362.279 179.052 362.597 176.342 361.242C173.631 359.886 172.235 353.1 169.894 351.067C167.553 349.034 166.167 346.662 166.167 344.958C166.167 343.253 171.588 336.826 171.588 336.826C171.588 336.826 170.91 327.329 170.561 319.187C170.212 311.045 166.454 293.067 166.454 285.304C166.454 277.542 171.588 259.184 171.588 259.184C171.588 259.184 158.415 260.796 153.281 257.408C148.147 254.02 153.959 239.091 168.877 242.479Z" fill="white" stroke="#263238" stroke-width="0.17774" stroke-linecap="round" stroke-linejoin="round"/>
<path d="M169.894 351.026C169.894 351.026 163.733 345.738 163.548 347.083C163.364 348.428 163.323 359.035 163.774 360.154C164.226 361.273 176.393 362.413 182.707 363.542C189.022 364.671 186.537 360.605 185.182 359.702C183.826 358.798 169.894 351.026 169.894 351.026Z" fill="#92E3A9" stroke="#263238" stroke-width="0.17774" stroke-linecap="round" stroke-linejoin="round"/>
<path opacity="0.2" d="M169.894 351.026C169.894 351.026 163.733 345.738 163.548 347.083C163.364 348.428 163.323 359.035 163.774 360.154C164.226 361.273 176.393 362.413 182.707 363.542C189.022 364.671 186.537 360.605 185.182 359.702C183.826 358.798 169.894 351.026 169.894 351.026Z" fill="black"/>
<path d="M171.66 357.002C172.893 355.524 174.335 354.234 175.941 353.172C177.849 351.818 179.989 350.826 182.256 350.246L185.182 355.873C183.164 356.349 181.202 357.037 179.329 357.926C177.908 358.787 176.618 359.849 175.5 361.078C175.5 361.078 172.111 358.809 171.66 357.002Z" fill="#263238" stroke="#263238" stroke-width="0.17774" stroke-linecap="round" stroke-linejoin="round"/>
<path d="M177.748 350.697C177.463 350.733 177.189 350.826 176.942 350.972C176.694 351.118 176.48 351.312 176.31 351.544C176.141 351.776 176.021 352.04 175.957 352.32C175.894 352.6 175.888 352.889 175.941 353.172C176.167 355.43 176.393 362.638 177.296 362.864C178.2 363.09 189.463 364.917 193.519 365.112C197.574 365.308 202.082 365.338 202.082 363.316C202.082 361.293 201.404 360.39 200.511 360.39C199.617 360.39 197.574 359.712 194.874 358.141C192.174 356.57 185.633 350.482 183.58 350.256C181.526 350.03 178.877 348.664 177.748 350.697Z" fill="#92E3A9" stroke="#263238" stroke-width="0.17774" stroke-linecap="round" stroke-linejoin="round"/>
<path opacity="0.2" d="M177.748 350.697C177.463 350.733 177.189 350.826 176.942 350.972C176.694 351.118 176.48 351.312 176.31 351.544C176.141 351.776 176.021 352.04 175.957 352.32C175.894 352.6 175.888 352.889 175.941 353.172C176.167 355.43 176.393 362.638 177.296 362.864C178.2 363.09 189.463 364.917 193.519 365.112C197.574 365.308 202.082 365.338 202.082 363.316C202.082 361.293 201.404 360.39 200.511 360.39C199.617 360.39 197.574 359.712 194.874 358.141C192.174 356.57 185.633 350.482 183.58 350.256C181.526 350.03 178.877 348.664 177.748 350.697Z" fill="black"/>
<path d="M83.2678 360.39C83.2678 359.374 82.9668 358.382 82.4027 357.537C81.8386 356.693 81.0368 356.035 80.0987 355.647C79.1607 355.258 78.1285 355.156 77.1326 355.354C76.1368 355.553 75.2221 356.042 74.5041 356.759C73.7862 357.477 73.2972 358.392 73.0991 359.388C72.901 360.384 73.0027 361.416 73.3913 362.354C73.7798 363.292 74.4378 364.094 75.282 364.658C76.1263 365.222 77.1188 365.523 78.1342 365.523C79.4957 365.523 80.8015 364.982 81.7642 364.02C82.727 363.057 83.2678 361.751 83.2678 360.39Z" fill="#263238" stroke="#263238" stroke-width="0.17774" stroke-linecap="round" stroke-linejoin="round"/>
<path d="M78.1342 362.946C79.5518 362.946 80.7011 361.797 80.7011 360.379C80.7011 358.962 79.5518 357.812 78.1342 357.812C76.7166 357.812 75.5674 358.962 75.5674 360.379C75.5674 361.797 76.7166 362.946 78.1342 362.946Z" fill="white" stroke="#263238" stroke-width="0.17774" stroke-linecap="round" stroke-linejoin="round"/>
<path d="M138.281 360.39C138.281 359.374 137.979 358.382 137.415 357.537C136.851 356.693 136.05 356.035 135.111 355.647C134.173 355.258 133.141 355.156 132.145 355.354C131.15 355.553 130.235 356.042 129.517 356.759C128.799 357.477 128.31 358.392 128.112 359.388C127.914 360.384 128.015 361.416 128.404 362.354C128.793 363.292 129.451 364.094 130.295 364.658C131.139 365.222 132.132 365.523 133.147 365.523C134.508 365.523 135.814 364.982 136.777 364.02C137.74 363.057 138.281 361.751 138.281 360.39Z" fill="#263238" stroke="#263238" stroke-width="0.17774" stroke-linecap="round" stroke-linejoin="round"/>
<path d="M135.714 360.39C135.714 359.882 135.563 359.386 135.281 358.964C134.999 358.542 134.598 358.213 134.129 358.019C133.66 357.824 133.144 357.774 132.646 357.873C132.148 357.972 131.691 358.216 131.332 358.575C130.973 358.934 130.728 359.391 130.629 359.889C130.53 360.387 130.581 360.903 130.775 361.372C130.97 361.841 131.299 362.242 131.721 362.524C132.143 362.806 132.639 362.957 133.147 362.957C133.828 362.957 134.481 362.686 134.962 362.205C135.443 361.724 135.714 361.071 135.714 360.39Z" fill="white" stroke="#263238" stroke-width="0.17774" stroke-linecap="round" stroke-linejoin="round"/>
<path d="M156.259 360.39C156.259 359.374 155.957 358.382 155.393 357.537C154.829 356.693 154.028 356.035 153.089 355.647C152.151 355.258 151.119 355.156 150.123 355.354C149.128 355.553 148.213 356.042 147.495 356.759C146.777 357.477 146.288 358.392 146.09 359.388C145.892 360.384 145.993 361.416 146.382 362.354C146.771 363.292 147.429 364.094 148.273 364.658C149.117 365.222 150.11 365.523 151.125 365.523C152.486 365.523 153.792 364.982 154.755 364.02C155.718 363.057 156.259 361.751 156.259 360.39Z" fill="#263238" stroke="#263238" stroke-width="0.17774" stroke-linecap="round" stroke-linejoin="round"/>
<path d="M153.692 360.39C153.694 359.88 153.544 359.38 153.262 358.954C152.979 358.529 152.577 358.197 152.106 358.001C151.634 357.805 151.115 357.753 150.614 357.852C150.114 357.951 149.653 358.197 149.292 358.558C148.931 358.919 148.686 359.379 148.587 359.88C148.488 360.38 148.539 360.899 148.736 361.371C148.932 361.842 149.264 362.244 149.689 362.527C150.115 362.809 150.614 362.959 151.125 362.957C151.806 362.957 152.459 362.686 152.94 362.205C153.421 361.724 153.692 361.071 153.692 360.39Z" fill="white" stroke="#263238" stroke-width="0.17774" stroke-linecap="round" stroke-linejoin="round"/>
<path d="M125.179 272.255H114.316V354.507H125.179V272.255Z" fill="#263238" stroke="#263238" stroke-width="0.17774" stroke-linecap="round" stroke-linejoin="round"/>
<path d="M128.085 315.234H111.432V354.507H128.085V315.234Z" fill="#263238" stroke="#263238" stroke-width="0.17774" stroke-linecap="round" stroke-linejoin="round"/>
<path d="M77.0767 352.956H153.805C154.894 352.956 155.938 353.389 156.709 354.159C157.479 354.929 157.912 355.974 157.912 357.063V357.607H72.9697V357.063C72.9697 355.974 73.4024 354.929 74.1726 354.159C74.9428 353.389 75.9874 352.956 77.0767 352.956Z" fill="#263238" stroke="#263238" stroke-width="0.17774" stroke-linecap="round" stroke-linejoin="round"/>
<path d="M108.659 240.446H94.6958V262.952H108.659V240.446Z" fill="#263238" stroke="#263238" stroke-width="0.17774" stroke-linecap="round" stroke-linejoin="round"/>
<path d="M164.986 259.842H74.5099C70.3534 259.842 66.9839 263.211 66.9839 267.368V269.39C66.9839 273.547 70.3534 276.916 74.5099 276.916H164.986C169.142 276.916 172.512 273.547 172.512 269.39V267.368C172.512 263.211 169.142 259.842 164.986 259.842Z" fill="#92E3A9" stroke="#263238" stroke-width="0.17774" stroke-linecap="round" stroke-linejoin="round"/>
<path opacity="0.1" d="M164.986 259.842H74.5099C70.3534 259.842 66.9839 263.211 66.9839 267.368V269.39C66.9839 273.547 70.3534 276.916 74.5099 276.916H164.986C169.142 276.916 172.512 273.547 172.512 269.39V267.368C172.512 263.211 169.142 259.842 164.986 259.842Z" fill="black"/>
<path d="M172.512 268.374C172.512 266.111 171.613 263.941 170.013 262.341C168.413 260.741 166.242 259.842 163.98 259.842H117.427C116.281 259.802 115.139 259.994 114.069 260.405C112.998 260.816 112.021 261.438 111.197 262.235C110.372 263.032 109.716 263.986 109.268 265.042C108.82 266.098 108.589 267.233 108.589 268.379C108.589 269.526 108.82 270.661 109.268 271.717C109.716 272.772 110.372 273.727 111.197 274.524C112.021 275.32 112.998 275.943 114.069 276.354C115.139 276.765 116.281 276.956 117.427 276.917H163.98C166.243 276.914 168.414 276.013 170.013 274.411C171.613 272.809 172.512 270.638 172.512 268.374Z" fill="#92E3A9" stroke="#263238" stroke-width="0.17774" stroke-miterlimit="10"/>
<path opacity="0.1" d="M172.512 268.641C172.512 267.52 172.291 266.411 171.862 265.376C171.434 264.341 170.805 263.4 170.013 262.608C169.22 261.815 168.28 261.187 167.245 260.758C166.21 260.329 165.1 260.109 163.98 260.109H117.427C116.281 260.069 115.139 260.26 114.069 260.671C112.998 261.083 112.021 261.705 111.197 262.502C110.372 263.298 109.716 264.253 109.268 265.309C108.82 266.364 108.589 267.499 108.589 268.646C108.589 269.793 108.82 270.928 109.268 271.983C109.716 273.039 110.372 273.993 111.197 274.79C112.021 275.587 112.998 276.209 114.069 276.62C115.139 277.032 116.281 277.223 117.427 277.183H163.98C165.101 277.183 166.211 276.962 167.247 276.533C168.283 276.103 169.224 275.474 170.016 274.681C170.809 273.887 171.437 272.945 171.865 271.909C172.293 270.873 172.513 269.762 172.512 268.641Z" fill="black"/>
<path d="M129.184 240.457H74.7666C73.4944 240.457 72.2349 240.203 71.0626 239.709C69.8902 239.215 68.8287 238.491 67.9406 237.58C67.0525 236.669 66.3559 235.589 65.8919 234.404C65.4278 233.22 65.2056 231.954 65.2385 230.682L66.5836 177.631C66.6426 175.144 67.6728 172.779 69.4536 171.043C71.2344 169.306 73.6243 168.335 76.1117 168.339H121.011C123.289 168.335 125.493 169.148 127.222 170.631C128.952 172.113 130.092 174.167 130.436 176.419L138.599 229.512C138.803 230.867 138.712 232.25 138.332 233.567C137.953 234.884 137.294 236.103 136.4 237.142C135.506 238.181 134.399 239.015 133.154 239.587C131.908 240.159 130.554 240.456 129.184 240.457Z" fill="#92E3A9" stroke="#263238" stroke-width="0.17774" stroke-linecap="round" stroke-linejoin="round"/>
<path opacity="0.1" d="M129.184 240.457H74.7666C73.4944 240.457 72.2349 240.203 71.0626 239.709C69.8902 239.215 68.8287 238.491 67.9406 237.58C67.0525 236.669 66.3559 235.589 65.8919 234.404C65.4278 233.22 65.2056 231.954 65.2385 230.682L66.5836 177.631C66.6426 175.144 67.6728 172.779 69.4536 171.043C71.2344 169.306 73.6243 168.335 76.1117 168.339H121.011C123.289 168.335 125.493 169.148 127.222 170.631C128.952 172.113 130.092 174.167 130.436 176.419L138.599 229.512C138.803 230.867 138.712 232.25 138.332 233.567C137.953 234.884 137.294 236.103 136.4 237.142C135.506 238.181 134.399 239.015 133.154 239.587C131.908 240.159 130.554 240.456 129.184 240.457Z" fill="black"/>
<path d="M111.411 274.195L87.5493 289.904" stroke="#263238" stroke-width="0.17774" stroke-linecap="round" stroke-linejoin="round"/>
<path d="M86.6458 287.491L82.5389 290.253C82.2173 290.472 81.9482 290.76 81.7509 291.096C81.5536 291.431 81.4329 291.806 81.3976 292.194C81.3623 292.581 81.4131 292.972 81.5466 293.338C81.68 293.703 81.8926 294.035 82.1693 294.309L82.5183 294.637C82.9797 295.091 83.5928 295.358 84.2394 295.387C84.8859 295.415 85.5201 295.203 86.0195 294.791L89.7774 291.711C90.0563 291.48 90.2845 291.194 90.4478 290.871C90.611 290.548 90.7057 290.195 90.726 289.833C90.7462 289.472 90.6916 289.11 90.5654 288.77C90.4393 288.431 90.2444 288.121 89.993 287.861C89.5677 287.415 88.9989 287.134 88.3867 287.067C87.7745 286.999 87.1581 287.149 86.6458 287.491Z" fill="#263238" stroke="#263238" stroke-width="0.17774" stroke-linecap="round" stroke-linejoin="round"/>
<path d="M115.138 352.956H138.681C139.77 352.956 140.815 353.389 141.585 354.159C142.355 354.929 142.788 355.974 142.788 357.063V357.607H115.138V352.956Z" fill="#263238" stroke="#263238" stroke-width="0.17774" stroke-linecap="round" stroke-linejoin="round"/>
<path d="M133.989 213.115C138.633 213.115 142.398 210.973 142.398 208.33C142.398 205.688 138.633 203.546 133.989 203.546C129.344 203.546 125.58 205.688 125.58 208.33C125.58 210.973 129.344 213.115 133.989 213.115Z" fill="white" stroke="#263238" stroke-width="0.17774" stroke-linecap="round" stroke-linejoin="round"/>
<path d="M157.388 247.572C157.388 247.572 170.951 248.25 174.011 255.375C174.641 257.815 174.986 260.32 175.038 262.84C175.038 266.567 187.585 338.479 187.923 339.845C188.262 341.211 195.727 351.714 196.743 354.086C197.76 356.458 198.797 358.501 198.797 358.501C198.797 358.501 201.877 359.856 201.517 360.873C201.158 361.889 194.053 362.228 191.004 362.228C187.954 362.228 184.556 354.774 182.523 354.086C180.49 353.398 178.108 351.006 178.108 349.681C178.108 348.357 179.135 338.49 179.135 338.49C177.833 330.441 175.558 322.58 172.358 315.08C167.82 304.741 162.173 289.638 161.495 282.522C160.818 275.407 160.818 268.61 160.818 268.61L152.255 267.245C152.255 267.245 151.228 249.605 157.388 247.572Z" fill="white" stroke="#263238" stroke-width="0.17774" stroke-linecap="round" stroke-linejoin="round"/>
<path d="M184.956 357.454C184.956 357.454 187.667 346.416 194.648 350.698L197.575 355.647C197.575 355.647 191.045 355.647 189.012 361.961C188.019 361.598 187.13 360.998 186.423 360.212C185.716 359.426 185.212 358.479 184.956 357.454Z" fill="#263238" stroke="#263238" stroke-width="0.17774" stroke-linecap="round" stroke-linejoin="round"/>
<path d="M129.317 226.976L128.988 227.027C125.908 214.48 121.75 201.656 121.75 201.656C121.75 201.656 101.349 207.047 89.5823 203.391C89.5823 203.391 83.5964 232.869 83.5964 240.57C83.5964 246.73 82.3232 252.993 86.9846 256.607C87.4355 257.271 88.0149 257.837 88.6886 258.273C89.3623 258.708 90.1166 259.004 90.9068 259.143C103.628 261.535 125.549 260.704 129.204 261.433C132.859 262.162 152.254 267.244 152.254 267.244C152.254 267.244 153.414 256.546 156.7 249.605C159.986 242.664 174.986 243.845 174.986 243.845L129.317 226.976Z" fill="#263238" stroke="#263238" stroke-width="0.17774" stroke-linecap="round" stroke-linejoin="round"/>
<path d="M124.604 144.775C124.604 144.775 121.791 141.243 118.752 145.134C115.713 149.026 118.126 162.538 119.625 167.938C121.124 173.339 146.443 195.742 148.825 197.406C151.207 199.069 182.245 206.081 184.956 204.798C187.666 203.515 188.447 197.015 186.907 193.504C185.367 189.993 156.361 182.538 156.361 182.538L124.604 144.775Z" fill="white"/>
<mask id="mask5_522_699" style="mask-type:luminance" maskUnits="userSpaceOnUse" x="117" y="143" width="71" height="62">
<path d="M124.604 144.775C124.604 144.775 121.791 141.243 118.752 145.134C115.713 149.026 118.126 162.538 119.625 167.938C121.124 173.339 146.443 195.742 148.825 197.406C151.207 199.069 182.245 206.081 184.956 204.798C187.666 203.515 188.447 197.015 186.907 193.504C185.367 189.993 156.361 182.538 156.361 182.538L124.604 144.775Z" fill="white"/>
</mask>
<g mask="url(#mask5_522_699)">
<g style="mix-blend-mode:multiply" opacity="0.5">
<path d="M148.825 197.426C151.207 199.08 182.245 206.102 184.956 204.819C186.517 204.08 187.43 201.595 187.636 198.956C182.841 197.026 177.153 195.722 174.514 195.876C170.684 196.092 173.251 199.665 167.111 198.659C160.971 197.652 153.969 194.552 147.603 190.917C141.238 187.282 129.81 176.543 129.81 176.543L138.773 177.569L128.557 174.417L137.439 171.08L129.81 170.629C130.299 169.42 130.526 168.122 130.477 166.82C130.477 164.181 125.446 154.386 125.446 154.386L120.107 169.058C123.834 175.752 146.577 195.856 148.825 197.426Z" fill="#92E3A9"/>
</g>
</g>
<path d="M124.604 144.775C124.604 144.775 121.791 141.243 118.752 145.134C115.713 149.026 118.126 162.538 119.625 167.938C121.124 173.339 146.443 195.742 148.825 197.406C151.207 199.069 182.245 206.081 184.956 204.798C187.666 203.515 188.447 197.015 186.907 193.504C185.367 189.993 156.361 182.538 156.361 182.538L124.604 144.775Z" stroke="#263238" stroke-width="0.17774" stroke-linecap="round" stroke-linejoin="round"/>
<path d="M134.574 173.145L127.603 175.845L139.328 179.746" stroke="#263238" stroke-width="0.0888702" stroke-linecap="round" stroke-linejoin="round"/>
<path d="M185.028 193.473C184.132 193.657 183.312 194.107 182.676 194.765C182.041 195.423 181.618 196.257 181.465 197.159C180.86 200.373 184.022 203.114 184.022 203.114C184.022 203.114 190.685 205.404 192.677 200.034C194.669 194.664 188.252 193.268 185.028 193.473Z" fill="white"/>
<mask id="mask6_522_699" style="mask-type:luminance" maskUnits="userSpaceOnUse" x="181" y="193" width="13" height="11">
<path d="M185.028 193.473C184.132 193.657 183.312 194.107 182.676 194.765C182.041 195.423 181.618 196.257 181.465 197.159C180.86 200.373 184.022 203.114 184.022 203.114C184.022 203.114 190.685 205.404 192.677 200.034C194.669 194.664 188.252 193.268 185.028 193.473Z" fill="white"/>
</mask>
<g mask="url(#mask6_522_699)">
<g style="mix-blend-mode:multiply" opacity="0.5">
<path d="M184.022 203.114C184.022 203.114 189.71 205.055 192.143 201.143C188.801 199.282 185.228 197.87 181.517 196.943C181.495 197.014 181.478 197.086 181.465 197.159C180.86 200.373 184.022 203.114 184.022 203.114Z" fill="#92E3A9"/>
</g>
</g>
<path d="M185.028 193.473C184.132 193.657 183.312 194.107 182.676 194.765C182.041 195.423 181.618 196.257 181.465 197.159C180.86 200.373 184.022 203.114 184.022 203.114C184.022 203.114 190.685 205.404 192.677 200.034C194.669 194.664 188.252 193.268 185.028 193.473Z" stroke="#263238" stroke-width="0.17774" stroke-linecap="round" stroke-linejoin="round"/>
<path d="M204.71 200.897C206.571 201.196 208.286 202.089 209.597 203.444C211.538 205.631 209.957 206.524 208.714 206.205C207.472 205.887 203.386 199.85 204.71 200.897Z" fill="white" stroke="#263238" stroke-width="0.17774" stroke-linecap="round" stroke-linejoin="round"/>
<path d="M203.416 200.496C205.219 201.05 206.794 202.174 207.903 203.7C209.525 206.123 207.831 206.78 206.651 206.307C205.47 205.835 202.246 199.274 203.416 200.496Z" fill="white" stroke="#263238" stroke-width="0.17774" stroke-linecap="round" stroke-linejoin="round"/>
<path d="M191.794 195.712C191.794 195.712 188.714 196.841 188.375 198.792C188.319 199.401 188.391 200.015 188.585 200.595C188.779 201.175 189.093 201.708 189.504 202.16C189.504 202.16 192.584 204.624 193.755 204.881C194.925 205.137 197.554 206.636 197.862 205.209C198.17 203.782 195.049 202.519 195.049 202.519C195.049 202.519 201.014 202.879 201.209 204.08C201.404 205.281 203.56 206.523 205.47 206.554C207.38 206.585 205.07 202.725 204.608 201.759C204.146 200.794 195.613 195.784 191.794 195.712Z" fill="white" stroke="#263238" stroke-width="0.17774" stroke-linecap="round" stroke-linejoin="round"/>
<path d="M94.0181 135.196C94.0181 135.196 75.2494 146.11 73.7812 146.829C72.3129 147.548 70.855 158.842 70.855 159.91C70.855 160.978 89.6237 203.392 89.6237 203.392C89.6237 203.392 94.244 207.304 107.766 207.304C121.288 207.304 122.335 205.25 122.335 205.25L123.414 187.354C123.414 187.354 128.034 175.259 128.393 173.124C128.753 170.988 124.605 144.776 124.605 144.776L105.405 131.972C105.405 131.972 97.5809 127.372 94.0181 135.196Z" fill="white"/>
<mask id="mask7_522_699" style="mask-type:luminance" maskUnits="userSpaceOnUse" x="70" y="130" width="59" height="78">
<path d="M94.0181 135.196C94.0181 135.196 75.2494 146.11 73.7812 146.829C72.3129 147.548 70.855 158.842 70.855 159.91C70.855 160.978 89.6237 203.392 89.6237 203.392C89.6237 203.392 94.244 207.304 107.766 207.304C121.288 207.304 122.335 205.25 122.335 205.25L123.414 187.354C123.414 187.354 128.034 175.259 128.393 173.124C128.753 170.988 124.605 144.776 124.605 144.776L105.405 131.972C105.405 131.972 97.5809 127.372 94.0181 135.196Z" fill="white"/>
</mask>
<g mask="url(#mask7_522_699)">
<g style="mix-blend-mode:multiply" opacity="0.5">
<path d="M75.6909 154.591C77.1591 152.24 90.671 143.431 90.671 143.431L95.6609 140.494L102.057 130.792C99.4906 130.319 96.0613 130.71 94.0181 135.196C94.0181 135.196 75.2083 146.111 73.7812 146.819C72.354 147.527 70.855 158.832 70.855 159.9C70.855 160.136 71.738 162.312 73.1138 165.588C73.6477 160.731 74.6642 156.234 75.6909 154.591Z" fill="#92E3A9"/>
</g>
</g>
<path d="M94.0181 135.196C94.0181 135.196 75.2494 146.11 73.7812 146.829C72.3129 147.548 70.855 158.842 70.855 159.91C70.855 160.978 89.6237 203.392 89.6237 203.392C89.6237 203.392 94.244 207.304 107.766 207.304C121.288 207.304 122.336 205.25 122.336 205.25L123.414 187.354C123.414 187.354 128.034 175.259 128.393 173.124C128.753 170.988 124.605 144.776 124.605 144.776L105.405 131.972C105.405 131.972 97.5809 127.372 94.0181 135.196Z" stroke="#263238" stroke-width="0.17774" stroke-linecap="round" stroke-linejoin="round"/>
<path d="M100.312 152.127L105.784 158.031L104.644 183.134L112.653 185.249L113.495 174.284L116.442 185.67L122.345 179.767L109.583 157.61L111.267 150.864L104.1 142.855L99.4697 153.821" fill="#263238"/>
<path d="M100.312 152.127L105.784 158.031L104.644 183.134L112.653 185.249L113.495 174.284L116.442 185.67L122.345 179.767L109.583 157.61L111.267 150.864L104.1 142.855L99.4697 153.821" stroke="#263238" stroke-width="0.17774" stroke-linecap="round" stroke-linejoin="round"/>
<path d="M90.3525 135.258C90.3525 135.258 91.523 143.071 93.0837 146.552C94.6443 150.032 98.166 155.936 98.166 155.936L105.589 148.503L113.023 153.636C113.023 153.636 112.243 140.74 109.501 134.878C106.76 129.015 93.4738 123.142 90.3525 135.258Z" fill="white" stroke="#263238" stroke-width="0.17774" stroke-linecap="round" stroke-linejoin="round"/>
<g style="mix-blend-mode:multiply" opacity="0.5">
<path d="M95.6608 140.494L103.084 129.2C101.729 128.606 100.279 128.259 98.8026 128.173C97.5294 128.43 96.092 128.748 94.5724 129.087C92.714 130.113 91.1739 132.044 90.3525 135.247C90.3525 135.247 90.9378 139.19 91.8413 142.732L95.6608 140.494Z" fill="#92E3A9"/>
</g>
<path d="M108.721 132.907C107.716 135.12 107.184 137.519 107.16 139.95C107.16 143.852 107.94 148.164 107.94 150.115V155.977C107.94 155.977 103.248 150.115 99.7265 145.813C96.2048 141.511 93.4737 137.599 93.8638 134.087C94.254 130.576 97.7757 116.879 97.7757 116.879C99.636 116.863 101.464 117.366 103.053 118.333C104.642 119.3 105.93 120.692 106.77 122.352C109.891 128.214 108.721 132.907 108.721 132.907Z" fill="white" stroke="#263238" stroke-width="0.17774" stroke-linecap="round" stroke-linejoin="round"/>
<g style="mix-blend-mode:multiply" opacity="0.5">
<path d="M96.5437 126.11L95.3732 126.674C94.6545 129.755 94.0179 132.701 93.8639 134.087C93.484 137.476 96.02 141.275 99.3569 145.382L99.7779 137.301L108.721 132.938L101.534 125.843L96.5437 126.11Z" fill="#92E3A9"/>
</g>
<path d="M116.319 128.707C116.319 128.707 113.731 133.502 116.524 133.697C119.317 133.892 118.711 131.5 119.111 130.709C119.512 129.919 121.308 131.736 120.313 135.494C119.317 139.252 114.327 141.88 111.329 138.882C108.331 135.884 109.142 132.722 110.138 130.309C111.134 127.896 115.148 126.715 116.319 128.707Z" fill="#263238" stroke="#263238" stroke-width="0.17774" stroke-linecap="round" stroke-linejoin="round"/>
<path d="M110.713 86.3236C109.84 86.2004 108.926 86.108 107.982 86.0566C104.542 85.8821 100.795 86.108 98.1147 88.2538C92.5498 92.7099 93.4841 101.663 93.8846 107.895C94.3363 114.97 94.2439 125.288 99.5522 130.412C108.516 139.057 122.531 129.806 122.531 119.559C122.531 115.226 122.695 108.624 122.982 107.146C123.357 105.319 123.614 103.471 123.752 101.612C124.368 92.176 119.019 87.5043 110.713 86.3236Z" fill="white" stroke="#263238" stroke-width="0.17774" stroke-linecap="round" stroke-linejoin="round"/>
<g style="mix-blend-mode:multiply" opacity="0.5">
<path d="M114.019 132.259C111.511 132.224 109.007 132.032 106.524 131.684C102.714 131.099 97.4267 124.928 100.065 116.417C102.704 107.905 102.714 103.49 102.714 103.49L93.7304 97.874C93.5244 101.214 93.5793 104.564 93.8947 107.895C94.3465 114.969 94.2541 125.288 99.5623 130.411C103.916 134.621 109.46 134.58 114.019 132.259Z" fill="#92E3A9"/>
</g>
<path d="M108.926 113.634C109.488 113.634 109.943 112.853 109.943 111.889C109.943 110.925 109.488 110.144 108.926 110.144C108.365 110.144 107.91 110.925 107.91 111.889C107.91 112.853 108.365 113.634 108.926 113.634Z" fill="#263238"/>
<path d="M118.958 112.32C118.896 113.286 118.383 114.035 117.828 113.994C117.274 113.953 116.863 113.152 116.925 112.187C116.986 111.222 117.489 110.472 118.054 110.513C118.619 110.554 119.019 111.355 118.958 112.32Z" fill="#263238"/>
<path d="M105.774 107.71C105.774 107.71 107.827 103.377 111.123 105.421L105.774 107.71Z" fill="white"/>
<path d="M105.774 107.71C105.774 107.71 107.827 103.377 111.123 105.421" stroke="#263238" stroke-width="0.17774" stroke-linecap="round" stroke-linejoin="round"/>
<path d="M116.473 106.18C116.473 106.18 118.906 103.387 120.292 107.967L116.473 106.18Z" fill="white"/>
<path d="M116.473 106.18C116.473 106.18 118.906 103.387 120.292 107.967" stroke="#263238" stroke-width="0.17774" stroke-linecap="round" stroke-linejoin="round"/>
<path d="M114.891 115.359C114.891 115.534 114.891 115.708 114.891 115.862C115.148 117.649 116.421 118.943 115.918 119.682C115.415 120.421 112.838 120.709 112.838 120.709" fill="white"/>
<path d="M114.891 115.359C114.891 115.534 114.891 115.708 114.891 115.862C115.148 117.649 116.421 118.943 115.918 119.682C115.415 120.421 112.838 120.709 112.838 120.709" stroke="#263238" stroke-width="0.17774" stroke-linecap="round" stroke-linejoin="round"/>
<path d="M111.883 124.785C111.883 124.785 107.396 126.171 105.723 122.547L111.883 124.785Z" fill="white"/>
<path d="M111.883 124.785C111.883 124.785 107.396 126.171 105.723 122.547" stroke="#263238" stroke-width="0.17774" stroke-linecap="round" stroke-linejoin="round"/>
<path d="M108.053 116.16C110.968 116.16 113.331 113.798 113.331 110.883C113.331 107.968 110.968 105.605 108.053 105.605C105.139 105.605 102.776 107.968 102.776 110.883C102.776 113.798 105.139 116.16 108.053 116.16Z" stroke="#263238" stroke-width="0.0888702" stroke-linecap="round" stroke-linejoin="round"/>
<path d="M119.994 116.16C122.609 116.16 124.728 113.798 124.728 110.883C124.728 107.968 122.609 105.605 119.994 105.605C117.38 105.605 115.261 107.968 115.261 110.883C115.261 113.798 117.38 116.16 119.994 116.16Z" stroke="#263238" stroke-width="0.0888702" stroke-linecap="round" stroke-linejoin="round"/>
<path d="M102.776 110.883L95.2397 111.201" stroke="#263238" stroke-width="0.0888702" stroke-linecap="round" stroke-linejoin="round"/>
<path d="M124.728 110.883H122.797" stroke="#263238" stroke-width="0.0888702" stroke-linecap="round" stroke-linejoin="round"/>
<path d="M113.321 109.271H115.508" stroke="#263238" stroke-width="0.0888702" stroke-linecap="round" stroke-linejoin="round"/>
<path d="M120.025 80.0912C116.085 79.4032 112.102 78.9915 108.105 78.8591C108.105 78.8591 101.113 75.5633 91.677 79.2698C78.1754 84.5472 78.4732 102.577 81.8203 114.066C82.8471 117.536 85.2599 122.803 83.0421 126.284C81.6458 128.481 77.6518 127.311 78.2576 124.292C78.8633 121.274 79.849 122.3 80.6499 121.9C81.4507 121.499 80.2494 121.099 78.4526 120.503C76.6559 119.908 75.085 121.53 74.8591 125.483C74.2636 136.264 90.1472 143.4 96.2049 133.974C98.6691 129.867 96.4821 122.731 95.4143 117.546C95.0753 115.752 94.8455 113.938 94.7264 112.115C96.6432 111.931 98.4208 111.033 99.7061 109.6C100.658 108.295 101.47 106.895 102.129 105.421C102.848 105.421 103.597 105.472 104.419 105.554C112.633 106.376 115.117 92.3915 115.117 92.3915C115.117 92.3915 119.224 100.205 120.456 103.09L121.688 105.965C121.688 105.965 124.984 106.376 128.27 99.3835C131.555 92.3915 127.839 81.3541 120.025 80.0912Z" fill="#263238" stroke="#263238" stroke-width="0.17774" stroke-linecap="round" stroke-linejoin="round"/>
<path d="M114.645 89.1055C114.645 89.1055 124.748 92.5758 125.056 98.572C125.364 104.568 123.793 104.876 123.793 104.876" stroke="white" stroke-width="0.0888702" stroke-miterlimit="10" stroke-linecap="round"/>
<path d="M113.393 86.8982C113.393 86.8982 122.849 84.6907 126.011 91.0051" stroke="white" stroke-width="0.0888702" stroke-miterlimit="10" stroke-linecap="round"/>
<path d="M101.718 80.584C101.718 80.584 111.175 85.3172 112.756 89.7425C114.337 94.1677 106.133 102.669 100.764 104.25C95.3937 105.831 91.3073 103.932 87.5186 106.776C83.73 109.62 85.3112 117.495 85.3112 117.495" stroke="white" stroke-width="0.0888702" stroke-miterlimit="10" stroke-linecap="round"/>
<path d="M82.4362 108.665C82.4362 108.665 79.9105 102.669 85.2803 99.5171C90.6501 96.365 95.3731 99.5171 101.369 95.7284C107.365 91.9398 108.31 87.2168 108.31 87.2168" stroke="white" stroke-width="0.0888702" stroke-miterlimit="10" stroke-linecap="round"/>
<path d="M96.3282 114.107C96.3282 114.107 93.0118 106.047 89.6852 108.891C86.3586 111.735 92.057 119.323 95.8456 118.378" fill="white"/>
<path d="M96.3282 114.107C96.3282 114.107 93.0118 106.047 89.6852 108.891C86.3586 111.735 92.057 119.323 95.8456 118.378" stroke="#263238" stroke-width="0.17774" stroke-linecap="round" stroke-linejoin="round"/>
<g opacity="0.37">
<path d="M96.3282 114.107C96.3282 114.107 93.0118 106.047 89.6852 108.891C86.3586 111.735 92.057 119.323 95.8456 118.378" fill="#92E3A9"/>
<path d="M96.3282 114.107C96.3282 114.107 93.0118 106.047 89.6852 108.891C86.3586 111.735 92.057 119.323 95.8456 118.378" stroke="#263238" stroke-width="0.17774" stroke-linecap="round" stroke-linejoin="round"/>
</g>
<path d="M76.0708 147.64C76.0708 147.64 74.4588 146.429 70.8755 149.129C67.2922 151.829 63.9553 164.109 66.1936 169.315C68.4318 174.52 74.4074 201.585 77.1899 203.063C79.9724 204.542 109.891 204.419 113.423 203.587C116.955 202.755 119.42 198.135 118.824 194.141C118.229 190.147 114.286 189.11 113.126 189.079C111.965 189.048 88.1349 187.693 88.1349 187.693L80.7321 156.419" fill="white"/>
<mask id="mask8_522_699" style="mask-type:luminance" maskUnits="userSpaceOnUse" x="65" y="147" width="54" height="58">
<path d="M76.0708 147.64C76.0708 147.64 74.4588 146.429 70.8755 149.129C67.2922 151.829 63.9553 164.109 66.1936 169.315C68.4318 174.52 74.4074 201.585 77.1899 203.063C79.9724 204.542 109.891 204.419 113.423 203.587C116.955 202.755 119.42 198.135 118.824 194.141C118.229 190.147 114.286 189.11 113.126 189.079C111.965 189.048 88.1349 187.693 88.1349 187.693L80.7321 156.419" fill="white"/>
</mask>
<g mask="url(#mask8_522_699)">
<g style="mix-blend-mode:multiply" opacity="0.5">
<path d="M114.368 196.882C112.664 194.777 85.5373 198.443 82.6419 196.882C79.7465 195.321 78.3501 192.354 80.4652 190.352C82.5803 188.35 76.4198 187.898 76.4712 186.132C76.5225 184.366 80.0545 183.883 79.8286 181.522C79.6027 179.16 71.9741 178.668 72.1589 171.912C72.3437 165.156 74.0378 156.983 75.5677 154.673C76.4148 153.699 77.3886 152.842 78.463 152.127L76.0708 147.629C76.0708 147.629 74.4588 146.418 70.8755 149.118C67.2922 151.818 63.9553 164.108 66.1936 169.314C68.4318 174.52 74.4074 201.584 77.1899 203.063C79.9723 204.541 109.891 204.418 113.423 203.586C114.565 203.221 115.603 202.588 116.449 201.739C117.296 200.891 117.927 199.852 118.29 198.709C116.391 198.165 114.871 197.498 114.368 196.882Z" fill="#92E3A9"/>
</g>
</g>
<path d="M76.0708 147.64C76.0708 147.64 74.4588 146.429 70.8755 149.129C67.2922 151.829 63.9553 164.109 66.1936 169.315C68.4318 174.52 74.4074 201.585 77.1899 203.063C79.9724 204.542 109.891 204.419 113.423 203.587C116.955 202.755 119.42 198.135 118.824 194.141C118.229 190.147 114.286 189.11 113.126 189.079C111.965 189.048 88.1349 187.693 88.1349 187.693L80.7321 156.419" stroke="#263238" stroke-width="0.17774" stroke-linecap="round" stroke-linejoin="round"/>
<path d="M79.0688 193.464C80.8348 188.268 88.1247 188.166 88.1247 188.166C85.2172 187.404 82.1773 187.295 79.2229 187.847" stroke="#263238" stroke-width="0.0888702" stroke-linecap="round" stroke-linejoin="round"/>
<path d="M117.53 190.373C116.451 190.835 115.531 191.602 114.881 192.579C114.232 193.557 113.882 194.703 113.875 195.876C113.752 200.086 116.545 200.866 117.232 201.349C117.92 201.831 122.068 204.059 123.742 202.694C125.416 201.328 127.387 197.653 125.795 194.572C124.204 191.492 119.163 190.414 117.53 190.373Z" fill="white"/>
<mask id="mask9_522_699" style="mask-type:luminance" maskUnits="userSpaceOnUse" x="113" y="190" width="14" height="14">
<path d="M117.53 190.373C116.451 190.835 115.531 191.602 114.881 192.579C114.232 193.557 113.882 194.703 113.875 195.876C113.752 200.086 116.545 200.866 117.232 201.349C117.92 201.831 122.068 204.059 123.742 202.694C125.416 201.328 127.387 197.653 125.795 194.572C124.204 191.492 119.163 190.414 117.53 190.373Z" fill="white"/>
</mask>
<g mask="url(#mask9_522_699)">
<g style="mix-blend-mode:multiply" opacity="0.5">
<path d="M123.742 202.694C124.168 202.332 124.548 201.918 124.871 201.462L121.38 199.604C118.177 198.721 115.128 197.817 114.368 196.883C114.235 196.743 114.069 196.641 113.885 196.585C114.08 200.179 116.575 200.897 117.232 201.349C117.89 201.801 122.068 204.06 123.742 202.694Z" fill="#92E3A9"/>
</g>
</g>
<path d="M117.53 190.373C116.451 190.835 115.531 191.602 114.881 192.579C114.232 193.557 113.882 194.703 113.875 195.876C113.752 200.086 116.545 200.866 117.232 201.349C117.92 201.831 122.068 204.059 123.742 202.694C125.416 201.328 127.387 197.653 125.795 194.572C124.204 191.492 119.163 190.414 117.53 190.373Z" stroke="#263238" stroke-width="0.17774" stroke-linecap="round" stroke-linejoin="round"/>
<path d="M123.311 194.141C123.311 194.141 120.765 195.116 120.415 197.036C120.066 198.956 120.19 199.993 120.631 200.116C121.073 200.239 122.541 200.907 122.541 200.907L127.069 203.258C127.069 203.258 130.662 207.365 131.843 207.694C133.024 208.022 132.007 207.252 131.843 206.359C131.329 205.079 130.664 203.866 129.861 202.745L135.221 207.488C135.221 207.488 136.987 208.125 136.576 206.78C136.166 205.435 133.424 202.673 133.424 202.673L138.486 207.262C138.486 207.262 139.513 207.735 139.513 207.139C139.57 206.841 139.55 206.532 139.452 206.244C139.355 205.957 139.185 205.699 138.958 205.496C138.383 205.034 134.934 201.081 134.934 201.081L139.739 204.028C139.739 204.028 140.765 205.394 141.484 205.414C142.203 205.435 141.792 204.973 141.248 203.361C140.704 201.749 137.049 199.387 135.745 198.463C134.441 197.539 127.315 194.254 123.311 194.141Z" fill="white" stroke="#263238" stroke-width="0.17774" stroke-linecap="round" stroke-linejoin="round"/>
<path d="M353.033 192.909H312.929L320.147 169.499H360.251L353.033 192.909Z" fill="#263238" stroke="#263238" stroke-width="0.17774" stroke-linecap="round" stroke-linejoin="round"/>
<path d="M349.881 195.116H309.787L317.005 171.696H357.099L349.881 195.116Z" fill="white" stroke="#263238" stroke-width="0.17774" stroke-linecap="round" stroke-linejoin="round"/>
<path d="M292.26 185.845H358.341C359.975 185.845 361.542 186.494 362.697 187.649C363.852 188.804 364.501 190.371 364.501 192.005V209.234H292.26V185.845Z" fill="#263238" stroke="#263238" stroke-width="0.17774" stroke-linecap="round" stroke-linejoin="round"/>
<path d="M352.674 185.845H280.402V209.265H352.674V185.845Z" fill="white" stroke="#263238" stroke-width="0.17774" stroke-linecap="round" stroke-linejoin="round"/>
<path d="M336.41 202.98H278.677V206.071H336.41V202.98Z" fill="white" stroke="#263238" stroke-width="0.17774" stroke-linecap="round" stroke-linejoin="round"/>
<path d="M336.41 199.89H290.998V202.98H336.41V199.89Z" fill="#263238" stroke="#263238" stroke-width="0.17774" stroke-linecap="round" stroke-linejoin="round"/>
<path d="M278.913 206.984H233.356V209.11H278.913V206.984Z" fill="white" stroke="#263238" stroke-width="0.17774" stroke-linecap="round" stroke-linejoin="round"/>
<path d="M313.945 131.756H215.748V195.085H313.945V131.756Z" fill="white" stroke="#263238" stroke-width="0.17774" stroke-linecap="round" stroke-linejoin="round"/>
<path d="M313.945 131.756H221.107V195.085H313.945V131.756Z" fill="#263238" stroke="#263238" stroke-width="0.17774" stroke-linecap="round" stroke-linejoin="round"/>
<path d="M279.971 161.182H258.481V210.075H279.971V161.182Z" fill="white" stroke="#263238" stroke-width="0.17774" stroke-linecap="round" stroke-linejoin="round"/>
<path d="M281.952 161.182H260.462V210.075H281.952V161.182Z" fill="#263238" stroke="#263238" stroke-width="0.17774" stroke-linecap="round" stroke-linejoin="round"/>
<path d="M259.035 161.757H282.455V195.239" stroke="white" stroke-width="0.17774" stroke-linejoin="round"/>
<path d="M215.071 205.845H149.288V209.284H215.071V205.845Z" fill="white" stroke="#263238" stroke-width="0.17774" stroke-linecap="round" stroke-linejoin="round"/>
<path d="M232.073 205.845H166.29V209.284H232.073V205.845Z" fill="white" stroke="#263238" stroke-width="0.17774" stroke-linecap="round" stroke-linejoin="round"/>
<path d="M146.752 214.952H45.957L41.1724 362.248C41.1461 362.656 41.2012 363.065 41.3345 363.451C41.4679 363.838 41.6769 364.194 41.9492 364.498C42.2216 364.803 42.5519 365.051 42.9209 365.227C43.29 365.403 43.6903 365.503 44.0986 365.523C44.8538 365.501 45.5733 365.197 46.1151 364.67C46.6568 364.144 46.9815 363.433 47.0248 362.679L56.6453 242.315C56.7674 240.168 57.6888 238.145 59.228 236.644C60.7673 235.142 62.8129 234.272 64.9619 234.203H127.747C129.895 234.272 131.939 235.143 133.477 236.644C135.014 238.146 135.933 240.169 136.053 242.315L145.684 362.658C145.727 363.411 146.05 364.12 146.59 364.646C147.129 365.173 147.846 365.478 148.6 365.502C149.008 365.484 149.409 365.385 149.778 365.21C150.148 365.035 150.479 364.789 150.752 364.485C151.025 364.181 151.235 363.826 151.37 363.44C151.505 363.054 151.561 362.645 151.536 362.237L146.752 214.952Z" fill="#92E3A9" stroke="#263238" stroke-width="0.17774" stroke-linecap="round" stroke-linejoin="round"/>
<path d="M146.977 221.729L146.751 214.952H113.783H78.9253H45.9568L45.731 221.729H146.977Z" fill="#263238" stroke="#263238" stroke-width="0.17774" stroke-linecap="round" stroke-linejoin="round"/>
<path d="M376.289 214.952H275.463L270.689 362.248C270.664 362.655 270.72 363.063 270.854 363.448C270.988 363.833 271.197 364.188 271.47 364.492C271.742 364.796 272.072 365.042 272.44 365.217C272.808 365.393 273.208 365.493 273.615 365.513C274.368 365.488 275.085 365.183 275.625 364.657C276.165 364.13 276.488 363.421 276.531 362.669L286.182 242.315C286.304 240.168 287.226 238.145 288.765 236.644C290.304 235.142 292.35 234.272 294.499 234.203H357.284C359.432 234.272 361.476 235.143 363.014 236.644C364.551 238.146 365.47 240.169 365.59 242.315L375.221 362.658C375.259 363.414 375.58 364.129 376.12 364.659C376.66 365.19 377.38 365.498 378.137 365.523C378.544 365.503 378.944 365.403 379.312 365.228C379.68 365.052 380.01 364.806 380.282 364.502C380.555 364.198 380.764 363.843 380.898 363.458C381.032 363.073 381.088 362.665 381.063 362.258L376.289 214.952Z" fill="#92E3A9" stroke="#263238" stroke-width="0.17774" stroke-linecap="round" stroke-linejoin="round"/>
<path d="M376.956 221.729L376.74 214.952H343.772H308.904H275.935L275.72 221.729H376.956Z" fill="#263238" stroke="#263238" stroke-width="0.17774" stroke-linecap="round" stroke-linejoin="round"/>
<path d="M382.932 209.264H37.7842V217.026H382.932V209.264Z" fill="white" stroke="#263238" stroke-width="0.17774" stroke-linecap="round" stroke-linejoin="round"/>
<path d="M382.942 209.264H135.56V217.026H382.942V209.264Z" fill="white" stroke="#263238" stroke-width="0.17774" stroke-linecap="round" stroke-linejoin="round"/>
</svg>
