<svg width="562" height="415" viewBox="0 0 562 415" fill="none" xmlns="http://www.w3.org/2000/svg">
<path d="M556.44 131.143C551.267 128.647 548.902 130.731 547.025 128.647C545.148 126.563 552.198 121.272 538.083 115.944C538.083 115.944 537.137 104.477 517.849 104.065C498.561 103.653 503.734 115.533 498.561 118.403C493.388 121.272 491.969 116.768 486.796 119.65C481.623 122.533 483.93 128.248 479.746 129.071C475.877 129.82 470.847 126.151 466.061 127.674C464.464 123.036 462.252 118.576 459.469 114.385C442.001 88.268 403.912 76.2266 374.091 68.877C279.184 45.5056 256.228 102.892 197.403 134.499C138.579 166.106 69.437 136.995 35.8477 159.692C2.25829 182.39 -8.94771 238.779 7.44573 264.783C23.8392 290.787 60.0939 299.26 65.6969 311.725C71.2999 324.191 69.5517 328.271 69.5517 328.271H509.481C512.92 328.271 522.005 312.237 523.811 309.117C533.956 291.386 535.189 273.792 517.376 260.166C500.181 247.014 470.446 238.741 468.354 214.297C466.262 189.852 473.455 162.063 468.597 137.269H560.166C560.166 137.269 561.613 133.601 556.44 131.143ZM194.394 273.28H75.3553C75.3553 273.28 78.6512 271.234 81.4742 269.537C84.2972 267.84 88.9974 269.537 91.3475 269.537C93.6976 269.537 93.6976 267.041 98.885 264.221C104.072 261.401 109.704 265.856 113.931 265.032C118.159 264.209 115.823 258.481 120.996 255.611C126.169 252.742 127.588 257.246 132.761 254.364C137.934 251.481 132.761 239.602 152.049 240.014C171.337 240.426 172.283 251.906 172.283 251.906C186.398 257.221 179.333 262.549 181.225 264.596C183.116 266.642 185.452 264.596 190.64 267.091C195.827 269.587 194.394 273.28 194.394 273.28ZM387.461 90.8135H311.068C311.068 90.8135 313.175 89.5657 314.995 88.4551C316.815 87.3446 319.824 88.4551 321.329 88.4551C322.833 88.4551 322.848 86.8704 326.158 85.0362C329.468 83.2019 333.108 86.0843 335.831 85.5602C338.553 85.0362 337.034 81.3551 340.359 79.5084C343.683 77.6616 344.586 80.5565 347.911 78.7222C351.235 76.888 347.911 69.2514 360.292 69.5134C372.673 69.7755 373.275 77.1375 373.275 77.1375C382.331 80.5565 377.803 83.9755 379.007 85.2982C380.21 86.6209 381.729 85.2982 385.054 86.8704C388.378 88.4427 387.461 90.8135 387.461 90.8135Z" fill="#92E3A9"/>
<path d="M246.913 27.0879C241.726 24.5923 239.376 26.6761 237.498 24.5923C235.621 22.5084 242.672 17.2177 228.557 11.8896C228.557 11.8896 227.611 0.422226 208.323 0.010449C189.035 -0.401328 194.208 11.4778 189.035 14.3478C183.862 17.2177 182.443 12.7131 177.27 15.5956C172.097 18.478 174.404 24.193 170.205 25.0165C166.006 25.8401 160.332 21.2731 155.159 24.193C149.986 27.1128 149.971 29.5211 147.621 29.5211C145.271 29.5211 140.571 27.8865 137.748 29.5211C134.925 31.1557 131.629 33.2645 131.629 33.2645H250.668C250.668 33.2645 252.086 29.5835 246.913 27.0879Z" fill="#92E3A9"/>
<g opacity="0.7">
<path d="M556.44 131.143C551.267 128.647 548.902 130.731 547.025 128.647C545.148 126.563 552.198 121.272 538.083 115.944C538.083 115.944 537.137 104.477 517.849 104.065C498.561 103.653 503.734 115.533 498.561 118.403C493.388 121.272 491.969 116.768 486.796 119.65C481.623 122.533 483.93 128.248 479.746 129.071C475.877 129.82 470.847 126.151 466.061 127.674C464.464 123.036 462.252 118.576 459.469 114.385C442.001 88.268 403.912 76.2266 374.091 68.877C279.184 45.5056 256.228 102.892 197.403 134.499C138.579 166.106 69.437 136.995 35.8477 159.692C2.25829 182.39 -8.94771 238.779 7.44573 264.783C23.8392 290.787 60.0939 299.26 65.6969 311.725C71.2999 324.191 69.5517 328.271 69.5517 328.271H509.481C512.92 328.271 522.005 312.237 523.811 309.117C533.956 291.386 535.189 273.792 517.376 260.166C500.181 247.014 470.446 238.741 468.354 214.297C466.262 189.852 473.455 162.063 468.597 137.269H560.166C560.166 137.269 561.613 133.601 556.44 131.143ZM194.394 273.28H75.3553C75.3553 273.28 78.6512 271.234 81.4742 269.537C84.2972 267.84 88.9974 269.537 91.3475 269.537C93.6976 269.537 93.6976 267.041 98.885 264.221C104.072 261.401 109.704 265.856 113.931 265.032C118.159 264.209 115.823 258.481 120.996 255.611C126.169 252.742 127.588 257.246 132.761 254.364C137.934 251.481 132.761 239.602 152.049 240.014C171.337 240.426 172.283 251.906 172.283 251.906C186.398 257.221 179.333 262.549 181.225 264.596C183.116 266.642 185.452 264.596 190.64 267.091C195.827 269.587 194.394 273.28 194.394 273.28ZM387.461 90.8135H311.068C311.068 90.8135 313.175 89.5657 314.995 88.4551C316.815 87.3446 319.824 88.4551 321.329 88.4551C322.833 88.4551 322.848 86.8704 326.158 85.0362C329.468 83.2019 333.108 86.0843 335.831 85.5602C338.553 85.0362 337.034 81.3551 340.359 79.5084C343.683 77.6616 344.586 80.5565 347.911 78.7222C351.235 76.888 347.911 69.2514 360.292 69.5134C372.673 69.7755 373.275 77.1375 373.275 77.1375C382.331 80.5565 377.803 83.9755 379.007 85.2982C380.21 86.6209 381.729 85.2982 385.054 86.8704C388.378 88.4427 387.461 90.8135 387.461 90.8135Z" fill="white"/>
<path d="M246.913 27.0879C241.726 24.5923 239.376 26.6761 237.498 24.5923C235.621 22.5084 242.672 17.2177 228.557 11.8896C228.557 11.8896 227.611 0.422226 208.323 0.010449C189.035 -0.401328 194.208 11.4778 189.035 14.3478C183.862 17.2177 182.443 12.7131 177.27 15.5956C172.097 18.478 174.404 24.193 170.205 25.0165C166.006 25.8401 160.332 21.2731 155.159 24.193C149.986 27.1128 149.971 29.5211 147.621 29.5211C145.271 29.5211 140.571 27.8865 137.748 29.5211C134.925 31.1557 131.629 33.2645 131.629 33.2645H250.668C250.668 33.2645 252.086 29.5835 246.913 27.0879Z" fill="white"/>
</g>
<path d="M547.713 247.725L561.699 280.355H552.17L542.64 254.912L547.713 247.725Z" fill="white" stroke="#2E353A" stroke-width="0.0748651" stroke-linecap="round" stroke-linejoin="round"/>
<path d="M555.337 328.296H429.362V272.245L546.323 256.685L555.337 278.322V328.296Z" fill="#2E353A"/>
<path d="M446.716 158.669H282.409V328.296H446.716V158.669Z" fill="#2E353A"/>
<path d="M272.292 172.383L265.299 164.497L365.479 97.1523L463.826 163.274L456.847 171.16L365.479 109.73L272.292 172.383Z" fill="#2E353A"/>
<path d="M416.652 158.669H252.344V328.296H416.652V158.669Z" fill="white" stroke="#2E353A" stroke-width="0.0748651" stroke-linecap="round" stroke-linejoin="round"/>
<path d="M334.498 103.441L252.344 158.669H416.652L334.498 103.441Z" fill="white" stroke="#2E353A" stroke-width="0.0748651" stroke-linejoin="round"/>
<g style="mix-blend-mode:multiply">
<path d="M334.498 103.441L252.344 158.669V171.247L271.059 158.669L334.498 116.019L397.951 158.669L416.652 171.247V158.669L334.498 103.441Z" fill="#92E3A9"/>
</g>
<path d="M542.64 272.245H416.652V328.296H542.64V272.245Z" fill="white" stroke="#2E353A" stroke-width="0.0748651" stroke-linecap="round" stroke-linejoin="round"/>
<path d="M529.944 272.245H429.362V328.296H529.944V272.245Z" fill="#92E3A9" stroke="#2E353A" stroke-width="0.0748651" stroke-linecap="round" stroke-linejoin="round"/>
<g style="mix-blend-mode:multiply">
<path d="M542.64 272.245H416.652V284.261H542.64V272.245Z" fill="#92E3A9"/>
</g>
<path d="M429.362 288.653H529.93" stroke="#2E353A" stroke-width="0.0748651" stroke-linecap="round" stroke-linejoin="round"/>
<path d="M429.362 296.951H529.93" stroke="#2E353A" stroke-width="0.0748651" stroke-linecap="round" stroke-linejoin="round"/>
<path d="M429.362 305.25H529.93" stroke="#2E353A" stroke-width="0.0748651" stroke-linecap="round" stroke-linejoin="round"/>
<path d="M429.362 313.547H529.93" stroke="#2E353A" stroke-width="0.0748651" stroke-linecap="round" stroke-linejoin="round"/>
<path d="M429.362 321.845H529.93" stroke="#2E353A" stroke-width="0.0748651" stroke-linecap="round" stroke-linejoin="round"/>
<path d="M298.931 265.606H265.901V328.296H298.931V265.606Z" fill="#2E353A"/>
<path d="M349.315 265.606H316.285V309.118H349.315V265.606Z" fill="white" stroke="#2E353A" stroke-width="0.0748651" stroke-linecap="round" stroke-linejoin="round"/>
<path d="M349.315 285.521H316.285V289.215H349.315V285.521Z" fill="#2E353A"/>
<path d="M334.928 265.606H330.686V309.118H334.928V265.606Z" fill="#2E353A"/>
<path d="M409.873 265.606H376.843V309.118H409.873V265.606Z" fill="white" stroke="#2E353A" stroke-width="0.0748651" stroke-linecap="round" stroke-linejoin="round"/>
<path d="M409.873 285.521H376.843V289.215H409.873V285.521Z" fill="#2E353A"/>
<path d="M395.486 265.606H391.245V309.118H395.486V265.606Z" fill="#2E353A"/>
<path d="M367.313 265.606H360.98V328.296H367.313V265.606Z" fill="white" stroke="#2E353A" stroke-width="0.0748651" stroke-linecap="round" stroke-linejoin="round"/>
<path d="M311.943 265.606H305.609V328.296H311.943V265.606Z" fill="white" stroke="#2E353A" stroke-width="0.0748651" stroke-linecap="round" stroke-linejoin="round"/>
<path d="M409.873 268.189H259.968V276.3H409.873V268.189Z" fill="#2E353A"/>
<path d="M409.873 264.134H259.968V272.245H409.873V264.134Z" fill="#92E3A9" stroke="#2E353A" stroke-width="0.0748651" stroke-linecap="round" stroke-linejoin="round"/>
<path d="M241.31 172.383L234.317 164.497L334.498 97.1523L432.844 163.274L425.866 171.16L334.498 109.73L241.31 172.383Z" fill="white" stroke="#2E353A" stroke-width="0.0748651" stroke-linejoin="round"/>
<path d="M542.64 280.355H404.127L416.838 247.725H547.713L542.64 280.355Z" fill="#2E353A"/>
<path d="M432.844 163.274H461.218L365.479 97.1523H334.498L432.844 163.274Z" fill="#2E353A"/>
<path d="M425.866 171.16H456.847L463.826 163.273H432.844L425.866 171.16Z" fill="#2E353A"/>
<path d="M283.684 183.75H265.901V208.831H283.684V183.75Z" fill="white" stroke="#2E353A" stroke-width="0.0748651" stroke-linecap="round" stroke-linejoin="round"/>
<path d="M283.684 196.291H265.901V208.831H283.684V196.291Z" fill="#2E353A"/>
<path d="M283.684 194.893H265.901V197.688H283.684V194.893Z" fill="white" stroke="#2E353A" stroke-width="0.0748651" stroke-linecap="round" stroke-linejoin="round"/>
<path d="M283.684 219.887H265.901V244.968H283.684V219.887Z" fill="white" stroke="#2E353A" stroke-width="0.0748651" stroke-linecap="round" stroke-linejoin="round"/>
<path d="M283.684 232.302H265.901V244.955H283.684V232.302Z" fill="#2E353A"/>
<path d="M403.941 183.75H386.157V208.831H403.941V183.75Z" fill="white" stroke="#2E353A" stroke-width="0.0748651" stroke-linecap="round" stroke-linejoin="round"/>
<path d="M403.941 196.291H386.157V208.831H403.941V196.291Z" fill="#2E353A"/>
<path d="M403.941 219.887H386.157V244.968H403.941V219.887Z" fill="white" stroke="#2E353A" stroke-width="0.0748651" stroke-linecap="round" stroke-linejoin="round"/>
<path d="M403.941 230.905H386.157V244.955H403.941V230.905Z" fill="#2E353A"/>
<path d="M341.692 183.75H323.908V208.831H341.692V183.75Z" fill="white" stroke="#2E353A" stroke-width="0.0748651" stroke-linecap="round" stroke-linejoin="round"/>
<path d="M341.692 196.291H323.908V208.831H341.692V196.291Z" fill="#2E353A"/>
<path d="M341.692 219.887H323.908V244.968H341.692V219.887Z" fill="white" stroke="#2E353A" stroke-width="0.0748651" stroke-linecap="round" stroke-linejoin="round"/>
<path d="M341.692 230.905H323.908V244.955H341.692V230.905Z" fill="#2E353A"/>
<path d="M341.692 194.893H323.908V197.688H341.692V194.893Z" fill="white" stroke="#2E353A" stroke-width="0.0748651" stroke-linecap="round" stroke-linejoin="round"/>
<path d="M403.941 194.893H386.157V197.688H403.941V194.893Z" fill="white" stroke="#2E353A" stroke-width="0.0748651" stroke-linecap="round" stroke-linejoin="round"/>
<path d="M283.684 229.507H265.901V232.302H283.684V229.507Z" fill="white" stroke="#2E353A" stroke-width="0.0748651" stroke-linecap="round" stroke-linejoin="round"/>
<path d="M341.692 229.507H323.908V232.302H341.692V229.507Z" fill="white" stroke="#2E353A" stroke-width="0.0748651" stroke-linecap="round" stroke-linejoin="round"/>
<path d="M403.941 229.507H386.157V232.302H403.941V229.507Z" fill="white" stroke="#2E353A" stroke-width="0.0748651" stroke-linecap="round" stroke-linejoin="round"/>
<path d="M266.832 166.231V172.383" stroke="#2E353A" stroke-width="0.0748651" stroke-linecap="round" stroke-linejoin="round"/>
<path d="M279.543 166.231V172.383" stroke="#2E353A" stroke-width="0.0748651" stroke-linecap="round" stroke-linejoin="round"/>
<path d="M272.292 172.383V178.534" stroke="#2E353A" stroke-width="0.0748651" stroke-linecap="round" stroke-linejoin="round"/>
<path d="M286.808 172.383V178.534" stroke="#2E353A" stroke-width="0.0748651" stroke-linecap="round" stroke-linejoin="round"/>
<path d="M261.2 172.383H290.233" stroke="#2E353A" stroke-width="0.0748651" stroke-linecap="round" stroke-linejoin="round"/>
<path d="M266.832 248.399V254.551" stroke="#2E353A" stroke-width="0.0748651" stroke-linecap="round" stroke-linejoin="round"/>
<path d="M279.543 248.399V254.551" stroke="#2E353A" stroke-width="0.0748651" stroke-linecap="round" stroke-linejoin="round"/>
<path d="M272.292 254.551V260.702" stroke="#2E353A" stroke-width="0.0748651" stroke-linecap="round" stroke-linejoin="round"/>
<path d="M286.808 254.551V260.702" stroke="#2E353A" stroke-width="0.0748651" stroke-linecap="round" stroke-linejoin="round"/>
<path d="M261.2 254.551H290.233" stroke="#2E353A" stroke-width="0.0748651" stroke-linecap="round" stroke-linejoin="round"/>
<path d="M292.583 190.126V196.291" stroke="#2E353A" stroke-width="0.0748651" stroke-linecap="round" stroke-linejoin="round"/>
<path d="M305.294 190.126V196.291" stroke="#2E353A" stroke-width="0.0748651" stroke-linecap="round" stroke-linejoin="round"/>
<path d="M298.043 196.291V202.442" stroke="#2E353A" stroke-width="0.0748651" stroke-linecap="round" stroke-linejoin="round"/>
<path d="M312.559 196.291V202.442" stroke="#2E353A" stroke-width="0.0748651" stroke-linecap="round" stroke-linejoin="round"/>
<path d="M286.951 196.291H315.984" stroke="#2E353A" stroke-width="0.0748651" stroke-linecap="round" stroke-linejoin="round"/>
<path d="M292.583 202.442H315.984" stroke="#2E353A" stroke-width="0.0748651" stroke-linecap="round" stroke-linejoin="round"/>
<path d="M292.583 202.667V208.819" stroke="#2E353A" stroke-width="0.0748651" stroke-linecap="round" stroke-linejoin="round"/>
<path d="M305.294 202.667V208.819" stroke="#2E353A" stroke-width="0.0748651" stroke-linecap="round" stroke-linejoin="round"/>
<path d="M298.043 208.819V214.971" stroke="#2E353A" stroke-width="0.0748651" stroke-linecap="round" stroke-linejoin="round"/>
<path d="M312.559 208.819V214.971" stroke="#2E353A" stroke-width="0.0748651" stroke-linecap="round" stroke-linejoin="round"/>
<path d="M286.951 208.819H315.984" stroke="#2E353A" stroke-width="0.0748651" stroke-linecap="round" stroke-linejoin="round"/>
<path d="M355.892 231.179V237.331" stroke="#2E353A" stroke-width="0.0748651" stroke-linecap="round" stroke-linejoin="round"/>
<path d="M368.603 231.179V237.331" stroke="#2E353A" stroke-width="0.0748651" stroke-linecap="round" stroke-linejoin="round"/>
<path d="M361.352 237.331V243.483" stroke="#2E353A" stroke-width="0.0748651" stroke-linecap="round" stroke-linejoin="round"/>
<path d="M375.869 237.331V243.483" stroke="#2E353A" stroke-width="0.0748651" stroke-linecap="round" stroke-linejoin="round"/>
<path d="M350.261 237.331H379.293" stroke="#2E353A" stroke-width="0.0748651" stroke-linecap="round" stroke-linejoin="round"/>
<path d="M355.892 243.483H379.293" stroke="#2E353A" stroke-width="0.0748651" stroke-linecap="round" stroke-linejoin="round"/>
<path d="M355.892 243.72V249.871" stroke="#2E353A" stroke-width="0.0748651" stroke-linecap="round" stroke-linejoin="round"/>
<path d="M368.603 243.72V249.871" stroke="#2E353A" stroke-width="0.0748651" stroke-linecap="round" stroke-linejoin="round"/>
<path d="M361.352 249.872V256.023" stroke="#2E353A" stroke-width="0.0748651" stroke-linecap="round" stroke-linejoin="round"/>
<path d="M375.869 249.872V256.023" stroke="#2E353A" stroke-width="0.0748651" stroke-linecap="round" stroke-linejoin="round"/>
<path d="M350.261 249.872H379.293" stroke="#2E353A" stroke-width="0.0748651" stroke-linecap="round" stroke-linejoin="round"/>
<path d="M15.0121 345.678C43.1848 355.823 115.58 344.842 108.157 356.671C100.734 368.5 44.0303 364.058 27.9091 376.848C11.7879 389.638 85.1285 388.615 82.5348 392.496C79.9411 396.376 15.4134 399.034 19.655 404.263H454.454C455.156 400.17 450.155 395.203 441.987 391.784C377.244 389.476 157.853 381.016 180.838 372.843C207.778 363.285 295.736 353.726 311.814 346.239C327.892 338.753 256.672 337.917 244.75 334.597C240.909 333.524 240.451 332.476 241.697 331.565L243.747 331.678V330.542C247.003 329.515 250.361 328.751 253.777 328.259H243.747V326.1L242.314 326.886L239.863 328.259H239.075C240.079 325.557 240.761 322.772 241.11 319.948C241.669 315.069 233.802 326.1 233.802 326.1C233.802 326.1 234.919 322.356 233.802 319.948C232.684 317.54 229.302 323.205 229.302 323.205C229.302 323.205 233.243 309.666 229.302 300.869C225.361 292.072 220.919 323.205 220.919 323.205C220.919 323.205 220.317 311.126 215.259 310.889C211.16 310.689 213.697 318.9 214.814 322.02C213.947 320.269 212.668 318.696 211.06 317.403C207.434 314.383 211.06 324.378 211.06 324.378C211.06 324.378 209.627 321.408 200.155 319.948C190.683 318.488 204.024 326.412 204.024 326.412C199.918 325.386 195.751 324.553 191.543 323.916C189.45 323.617 189.278 324.066 189.966 324.815L188.605 325.576L184.22 328.071C185.656 324.408 186.618 320.616 187.086 316.766C187.802 310.527 177.786 324.603 177.786 324.603C177.786 324.603 179.219 319.873 177.786 316.766C176.353 313.659 172.054 320.909 172.054 320.909C172.054 320.909 177.069 303.677 172.054 292.471C167.038 281.266 161.378 320.909 161.378 320.909C161.378 320.909 160.604 305.549 154.213 305.237C149.011 304.987 152.207 315.356 153.64 319.362C152.537 317.152 150.917 315.167 148.882 313.534C144.254 309.691 148.882 322.406 148.882 322.406C148.882 322.406 147.062 318.663 134.997 316.766C122.931 314.87 139.912 325.002 139.912 325.002C134.684 323.696 129.379 322.638 124.02 321.832C115.995 320.684 130.125 328.284 130.125 328.284H23.6101C23.6101 328.284 -13.1319 335.546 15.0121 345.678ZM190.439 325.314C191.877 326.422 193.415 327.428 195.039 328.321H190.439V325.314Z" fill="#92E3A9"/>
<path d="M362.613 347.188C346.334 353.751 305.91 360.639 305.91 360.639C299.475 361.4 308.188 368.575 352.869 365.019L429.333 328.296H282.81C287.711 330.492 322.618 335.558 342.48 335.558C362.341 335.558 378.892 340.612 362.613 347.188Z" fill="#92E3A9"/>
<path d="M479.674 328.296H508.564C494.062 327.808 479.674 328.296 479.674 328.296Z" fill="#92E3A9"/>
<path d="M527.336 329.756L458.71 368.263C467.408 367.976 476.508 367.789 485.32 367.602C523.338 366.803 509.538 352.441 512.117 347.375C514.697 342.309 536.278 343.145 537.997 334.697C538.484 332.301 533.999 330.754 527.336 329.756Z" fill="#92E3A9"/>
<g opacity="0.3">
<path d="M15.0121 345.678C43.1848 355.823 115.58 344.842 108.157 356.671C100.734 368.5 44.0303 364.058 27.9091 376.848C11.7879 389.638 85.1285 388.615 82.5348 392.496C79.9411 396.376 15.4134 399.034 19.655 404.263H454.454C455.156 400.17 450.155 395.203 441.987 391.784C377.244 389.476 157.853 381.016 180.838 372.843C207.778 363.285 295.736 353.726 311.814 346.239C327.892 338.753 256.672 337.917 244.75 334.597C240.909 333.524 240.451 332.476 241.697 331.565L243.747 331.678V330.542C247.003 329.515 250.361 328.751 253.777 328.259H243.747V326.1L242.314 326.886L239.863 328.259H239.075C240.079 325.557 240.761 322.772 241.11 319.948C241.669 315.069 233.802 326.1 233.802 326.1C233.802 326.1 234.919 322.356 233.802 319.948C232.684 317.54 229.302 323.205 229.302 323.205C229.302 323.205 233.243 309.666 229.302 300.869C225.361 292.072 220.919 323.205 220.919 323.205C220.919 323.205 220.317 311.126 215.259 310.889C211.16 310.689 213.697 318.9 214.814 322.02C213.947 320.269 212.668 318.696 211.06 317.403C207.434 314.383 211.06 324.378 211.06 324.378C211.06 324.378 209.627 321.408 200.155 319.948C190.683 318.488 204.024 326.412 204.024 326.412C199.918 325.386 195.751 324.553 191.543 323.916C189.45 323.617 189.278 324.066 189.966 324.815L188.605 325.576L184.22 328.071C185.656 324.408 186.618 320.616 187.086 316.766C187.802 310.527 177.786 324.603 177.786 324.603C177.786 324.603 179.219 319.873 177.786 316.766C176.353 313.659 172.054 320.909 172.054 320.909C172.054 320.909 177.069 303.677 172.054 292.471C167.038 281.266 161.378 320.909 161.378 320.909C161.378 320.909 160.604 305.549 154.213 305.237C149.011 304.987 152.207 315.356 153.64 319.362C152.537 317.152 150.917 315.167 148.882 313.534C144.254 309.691 148.882 322.406 148.882 322.406C148.882 322.406 147.062 318.663 134.997 316.766C122.931 314.87 139.912 325.002 139.912 325.002C134.684 323.696 129.379 322.638 124.02 321.832C115.995 320.684 130.125 328.284 130.125 328.284H23.6101C23.6101 328.284 -13.1319 335.546 15.0121 345.678ZM190.439 325.314C191.877 326.422 193.415 327.428 195.039 328.321H190.439V325.314Z" fill="white"/>
<path d="M362.613 347.188C346.334 353.751 305.91 360.639 305.91 360.639C299.475 361.4 308.188 368.575 352.869 365.019L429.333 328.296H282.81C287.711 330.492 322.618 335.558 342.48 335.558C362.341 335.558 378.892 340.612 362.613 347.188Z" fill="white"/>
<path d="M479.674 328.296H508.564C494.062 327.808 479.674 328.296 479.674 328.296Z" fill="white"/>
<path d="M527.336 329.756L458.71 368.263C467.408 367.976 476.508 367.789 485.32 367.602C523.338 366.803 509.538 352.441 512.117 347.375C514.697 342.309 536.278 343.145 537.997 334.697C538.484 332.301 533.999 330.754 527.336 329.756Z" fill="white"/>
</g>
<path d="M107.168 118.427V219.075H275.301V118.427H107.168ZM122.787 130.793C121.869 130.793 120.971 130.556 120.208 130.112C119.444 129.667 118.849 129.036 118.498 128.297C118.146 127.559 118.055 126.746 118.234 125.961C118.413 125.177 118.855 124.457 119.504 123.891C120.154 123.326 120.981 122.941 121.882 122.785C122.782 122.629 123.716 122.709 124.564 123.015C125.412 123.321 126.138 123.839 126.648 124.504C127.158 125.169 127.43 125.951 127.43 126.75C127.43 127.822 126.941 128.851 126.07 129.609C125.2 130.367 124.019 130.793 122.787 130.793ZM259.524 130.793C258.605 130.793 257.708 130.556 256.944 130.112C256.181 129.667 255.586 129.036 255.234 128.297C254.883 127.559 254.791 126.746 254.97 125.961C255.149 125.177 255.591 124.457 256.241 123.891C256.89 123.326 257.717 122.941 258.618 122.785C259.518 122.629 260.452 122.709 261.3 123.015C262.149 123.321 262.874 123.839 263.384 124.504C263.894 125.169 264.166 125.951 264.166 126.75C264.163 127.821 263.672 128.848 262.802 129.605C261.933 130.363 260.754 130.79 259.524 130.793Z" fill="#92E3A9" stroke="#2E353A" stroke-width="0.0843517" stroke-miterlimit="10"/>
<path d="M264.167 126.75C264.167 127.55 263.894 128.331 263.384 128.996C262.874 129.661 262.149 130.179 261.301 130.485C260.452 130.791 259.519 130.871 258.618 130.715C257.717 130.559 256.89 130.174 256.241 129.609C255.591 129.043 255.149 128.323 254.97 127.539C254.791 126.754 254.883 125.942 255.234 125.203C255.586 124.464 256.181 123.833 256.944 123.388C257.708 122.944 258.606 122.707 259.524 122.707H122.788C123.706 122.707 124.604 122.944 125.367 123.388C126.131 123.833 126.726 124.464 127.077 125.203C127.428 125.942 127.52 126.754 127.341 127.539C127.162 128.323 126.72 129.043 126.071 129.609C125.421 130.174 124.594 130.559 123.693 130.715C122.793 130.871 121.859 130.791 121.011 130.485C120.162 130.179 119.437 129.661 118.927 128.996C118.417 128.331 118.145 127.55 118.145 126.75C118.145 125.678 118.634 124.649 119.505 123.891C120.375 123.133 121.556 122.707 122.788 122.707H112.011V213.522H268.867V122.707H259.524C260.755 122.707 261.936 123.133 262.807 123.891C263.678 124.649 264.167 125.678 264.167 126.75Z" fill="#2E353A"/>
<path d="M122.787 79.4956C121.453 79.4981 120.15 79.8449 119.041 80.4922C117.933 81.1394 117.071 82.0582 116.562 83.1323C116.053 84.2065 115.922 85.3878 116.184 86.527C116.446 87.6662 117.09 88.7123 118.034 89.533C118.979 90.3537 120.181 90.9122 121.49 91.1379C122.799 91.3637 124.155 91.2466 125.388 90.8014C126.62 90.3562 127.674 89.6029 128.415 88.6367C129.156 87.6705 129.551 86.5347 129.551 85.3728C129.551 84.5999 129.376 83.8347 129.036 83.1208C128.696 82.4069 128.197 81.7585 127.569 81.2126C126.941 80.6667 126.195 80.234 125.375 79.9394C124.554 79.6448 123.675 79.494 122.787 79.4956ZM122.787 89.2909C121.898 89.2885 121.029 89.0566 120.291 88.6245C119.553 88.1925 118.979 87.5797 118.64 86.8636C118.302 86.1474 118.215 85.36 118.39 84.6008C118.565 83.8416 118.995 83.1446 119.625 82.5979C120.255 82.0512 121.057 81.6792 121.929 81.5291C122.802 81.3789 123.705 81.4572 124.527 81.7541C125.348 82.051 126.05 82.5532 126.544 83.1973C127.038 83.8414 127.301 84.5984 127.301 85.3728C127.305 85.8911 127.191 86.4049 126.966 86.8846C126.741 87.3644 126.409 87.8007 125.989 88.1683C125.57 88.5359 125.071 88.8277 124.521 89.0268C123.972 89.2259 123.383 89.3284 122.787 89.3284V89.2909Z" fill="white" stroke="#2E353A" stroke-width="0.0773203" stroke-linecap="round" stroke-linejoin="round"/>
<path d="M122.787 93.6084C121.449 93.6084 120.141 93.9542 119.028 94.6019C117.916 95.2496 117.049 96.1702 116.537 97.2471C116.026 98.324 115.893 99.5089 116.155 100.652C116.417 101.795 117.062 102.844 118.01 103.667C118.957 104.49 120.164 105.05 121.477 105.276C122.79 105.502 124.15 105.383 125.386 104.936C126.621 104.488 127.677 103.731 128.418 102.761C129.16 101.791 129.554 100.651 129.551 99.4856C129.551 98.7127 129.376 97.9475 129.036 97.2336C128.696 96.5197 128.197 95.8713 127.569 95.3254C126.941 94.7795 126.195 94.3468 125.375 94.0522C124.554 93.7576 123.675 93.6068 122.787 93.6084ZM122.787 103.416C121.895 103.416 121.022 103.186 120.28 102.754C119.537 102.322 118.959 101.708 118.617 100.99C118.275 100.272 118.186 99.4812 118.36 98.7188C118.534 97.9563 118.964 97.2559 119.596 96.7062C120.227 96.1565 121.031 95.7822 121.907 95.6305C122.782 95.4789 123.69 95.5567 124.515 95.8542C125.34 96.1517 126.045 96.6555 126.541 97.3019C127.037 97.9483 127.301 98.7082 127.301 99.4856C127.301 100.528 126.826 101.528 125.979 102.265C125.133 103.002 123.985 103.416 122.787 103.416Z" fill="white" stroke="#2E353A" stroke-width="0.0773203" stroke-linecap="round" stroke-linejoin="round"/>
<path d="M122.787 106.049C121.453 106.051 120.15 106.398 119.041 107.045C117.933 107.693 117.071 108.611 116.562 109.686C116.053 110.76 115.922 111.941 116.184 113.08C116.446 114.219 117.09 115.266 118.034 116.086C118.979 116.907 120.181 117.465 121.49 117.691C122.799 117.917 124.155 117.8 125.388 117.355C126.62 116.909 127.674 116.156 128.415 115.19C129.156 114.224 129.551 113.088 129.551 111.926C129.551 111.153 129.376 110.388 129.036 109.674C128.696 108.96 128.197 108.312 127.569 107.766C126.941 107.22 126.195 106.787 125.375 106.493C124.554 106.198 123.675 106.047 122.787 106.049ZM122.787 115.844C121.898 115.842 121.029 115.61 120.291 115.178C119.553 114.746 118.979 114.133 118.64 113.417C118.302 112.701 118.215 111.913 118.39 111.154C118.565 110.395 118.995 109.698 119.625 109.151C120.255 108.604 121.057 108.232 121.929 108.082C122.802 107.932 123.705 108.01 124.527 108.307C125.348 108.604 126.05 109.106 126.544 109.751C127.038 110.395 127.301 111.152 127.301 111.926C127.297 112.966 126.82 113.963 125.974 114.697C125.128 115.432 123.982 115.844 122.787 115.844Z" fill="white" stroke="#2E353A" stroke-width="0.0773203" stroke-linecap="round" stroke-linejoin="round"/>
<path d="M122.787 98.8493C122.472 98.8493 122.169 98.7402 121.946 98.546C121.723 98.3518 121.598 98.0883 121.598 97.8137V88.1182C121.598 87.8435 121.723 87.5801 121.946 87.3859C122.169 87.1916 122.472 87.0825 122.787 87.0825C123.104 87.0825 123.408 87.1912 123.633 87.3851C123.859 87.579 123.987 87.8424 123.991 88.1182V97.8137C123.987 98.0895 123.859 98.3529 123.633 98.5468C123.408 98.7406 123.104 98.8494 122.787 98.8493Z" fill="white" stroke="#2E353A" stroke-width="0.0773203" stroke-linecap="round" stroke-linejoin="round"/>
<path d="M122.787 112.188C122.472 112.188 122.169 112.079 121.946 111.885C121.723 111.691 121.598 111.427 121.598 111.153V101.457C121.598 101.182 121.723 100.919 121.946 100.725C122.169 100.531 122.472 100.421 122.787 100.421C123.104 100.421 123.408 100.53 123.633 100.724C123.859 100.918 123.987 101.181 123.991 101.457V111.153C123.987 111.428 123.859 111.692 123.633 111.886C123.408 112.08 123.104 112.188 122.787 112.188Z" fill="white" stroke="#2E353A" stroke-width="0.0773203" stroke-linecap="round" stroke-linejoin="round"/>
<path d="M122.787 125.552C122.472 125.552 122.169 125.443 121.946 125.249C121.723 125.055 121.598 124.791 121.598 124.517V114.821C121.598 114.685 121.629 114.551 121.688 114.425C121.748 114.299 121.836 114.185 121.946 114.089C122.057 113.993 122.188 113.917 122.332 113.864C122.476 113.812 122.631 113.786 122.787 113.786C123.104 113.786 123.408 113.894 123.633 114.088C123.859 114.282 123.987 114.546 123.991 114.821V124.517C123.987 124.793 123.859 125.056 123.633 125.25C123.408 125.444 123.104 125.553 122.787 125.552Z" fill="white" stroke="#2E353A" stroke-width="0.0773203" stroke-linecap="round" stroke-linejoin="round"/>
<path d="M259.524 79.4956C258.189 79.4981 256.886 79.8449 255.778 80.4922C254.67 81.1394 253.807 82.0582 253.298 83.1323C252.79 84.2065 252.658 85.3878 252.92 86.527C253.182 87.6662 253.826 88.7123 254.77 89.533C255.715 90.3537 256.918 90.9122 258.226 91.1379C259.535 91.3637 260.892 91.2466 262.124 90.8014C263.357 90.3562 264.41 89.6029 265.151 88.6367C265.892 87.6705 266.287 86.5347 266.287 85.3728C266.287 84.5999 266.112 83.8347 265.772 83.1208C265.432 82.4069 264.934 81.7585 264.305 81.2126C263.677 80.6667 262.931 80.234 262.111 79.9394C261.29 79.6448 260.411 79.494 259.524 79.4956ZM259.524 89.2909C258.634 89.2885 257.766 89.0566 257.028 88.6245C256.29 88.1925 255.715 87.5797 255.377 86.8636C255.038 86.1474 254.951 85.36 255.127 84.6008C255.302 83.8416 255.731 83.1446 256.361 82.5979C256.991 82.0512 257.793 81.6792 258.665 81.5291C259.538 81.3789 260.442 81.4572 261.263 81.7541C262.085 82.051 262.786 82.5532 263.28 83.1973C263.774 83.8414 264.038 84.5984 264.038 85.3728C264.041 85.8911 263.927 86.4049 263.702 86.8846C263.477 87.3644 263.145 87.8007 262.726 88.1683C262.306 88.5359 261.807 88.8277 261.258 89.0268C260.708 89.2259 260.119 89.3284 259.524 89.3284V89.2909Z" fill="white" stroke="#2E353A" stroke-width="0.0773203" stroke-linecap="round" stroke-linejoin="round"/>
<path d="M259.523 93.6084C258.185 93.6084 256.877 93.9542 255.764 94.6019C254.652 95.2496 253.785 96.1702 253.273 97.2471C252.762 98.324 252.629 99.5089 252.891 100.652C253.153 101.795 253.799 102.844 254.746 103.667C255.693 104.49 256.9 105.05 258.213 105.276C259.526 105.502 260.886 105.383 262.122 104.936C263.357 104.488 264.413 103.731 265.154 102.761C265.896 101.791 266.29 100.651 266.287 99.4856C266.287 98.7127 266.112 97.9475 265.772 97.2336C265.432 96.5197 264.934 95.8713 264.305 95.3254C263.677 94.7795 262.931 94.3468 262.111 94.0522C261.29 93.7576 260.411 93.6068 259.523 93.6084ZM259.523 103.416C258.631 103.416 257.758 103.186 257.016 102.754C256.273 102.322 255.695 101.708 255.353 100.99C255.012 100.272 254.922 99.4812 255.096 98.7188C255.27 97.9563 255.7 97.2559 256.332 96.7062C256.963 96.1565 257.767 95.7822 258.643 95.6305C259.518 95.4789 260.426 95.5567 261.251 95.8542C262.076 96.1517 262.781 96.6555 263.277 97.3019C263.773 97.9483 264.037 98.7082 264.037 99.4856C264.037 100.002 263.921 100.513 263.694 100.99C263.467 101.467 263.134 101.9 262.715 102.265C262.296 102.63 261.799 102.919 261.251 103.117C260.703 103.315 260.116 103.416 259.523 103.416Z" fill="white" stroke="#2E353A" stroke-width="0.0773203" stroke-linecap="round" stroke-linejoin="round"/>
<path d="M259.524 106.049C258.189 106.051 256.886 106.398 255.778 107.045C254.67 107.693 253.807 108.611 253.298 109.686C252.79 110.76 252.658 111.941 252.92 113.08C253.182 114.219 253.826 115.266 254.77 116.086C255.715 116.907 256.918 117.465 258.226 117.691C259.535 117.917 260.892 117.8 262.124 117.355C263.357 116.909 264.41 116.156 265.151 115.19C265.892 114.224 266.287 113.088 266.287 111.926C266.287 111.153 266.112 110.388 265.772 109.674C265.432 108.96 264.934 108.312 264.305 107.766C263.677 107.22 262.931 106.787 262.111 106.493C261.29 106.198 260.411 106.047 259.524 106.049ZM259.524 115.844C258.634 115.842 257.766 115.61 257.028 115.178C256.29 114.746 255.715 114.133 255.377 113.417C255.038 112.701 254.951 111.913 255.127 111.154C255.302 110.395 255.731 109.698 256.361 109.151C256.991 108.604 257.793 108.232 258.665 108.082C259.538 107.932 260.442 108.01 261.263 108.307C262.085 108.604 262.786 109.106 263.28 109.751C263.774 110.395 264.038 111.152 264.038 111.926C264.034 112.966 263.557 113.963 262.71 114.697C261.864 115.432 260.718 115.844 259.524 115.844Z" fill="white" stroke="#2E353A" stroke-width="0.0773203" stroke-linecap="round" stroke-linejoin="round"/>
<path d="M259.524 98.8493C259.208 98.8493 258.906 98.7402 258.683 98.546C258.46 98.3518 258.334 98.0883 258.334 97.8137V88.1182C258.334 87.8435 258.46 87.5801 258.683 87.3859C258.906 87.1916 259.208 87.0825 259.524 87.0825C259.84 87.0825 260.144 87.1912 260.37 87.3851C260.595 87.579 260.724 87.8424 260.727 88.1182V97.8137C260.724 98.0895 260.595 98.3529 260.37 98.5468C260.144 98.7406 259.84 98.8494 259.524 98.8493Z" fill="white" stroke="#2E353A" stroke-width="0.0773203" stroke-linecap="round" stroke-linejoin="round"/>
<path d="M259.524 112.188C259.208 112.188 258.906 112.079 258.683 111.885C258.46 111.691 258.334 111.427 258.334 111.153V101.457C258.334 101.182 258.46 100.919 258.683 100.725C258.906 100.531 259.208 100.421 259.524 100.421C259.84 100.421 260.144 100.53 260.37 100.724C260.595 100.918 260.724 101.181 260.727 101.457V111.153C260.724 111.428 260.595 111.692 260.37 111.886C260.144 112.08 259.84 112.188 259.524 112.188Z" fill="white" stroke="#2E353A" stroke-width="0.0773203" stroke-linecap="round" stroke-linejoin="round"/>
<path d="M259.524 125.552C259.208 125.552 258.906 125.443 258.683 125.249C258.46 125.055 258.334 124.791 258.334 124.517V114.821C258.334 114.685 258.365 114.551 258.425 114.425C258.485 114.299 258.572 114.185 258.683 114.089C258.793 113.993 258.924 113.917 259.068 113.864C259.213 113.812 259.367 113.786 259.524 113.786C259.84 113.786 260.144 113.894 260.37 114.088C260.595 114.282 260.724 114.546 260.727 114.821V124.517C260.724 124.793 260.595 125.056 260.37 125.25C260.144 125.444 259.84 125.553 259.524 125.552Z" fill="white" stroke="#2E353A" stroke-width="0.0773203" stroke-linecap="round" stroke-linejoin="round"/>
<path d="M294.431 82.6029H31.8495L23.5955 62.7378H312.559L294.431 82.6029Z" fill="#2E353A" stroke="#2E353A" stroke-width="0.0748651" stroke-linecap="round" stroke-linejoin="round"/>
<path d="M287.739 82.6029H25.1576L16.9036 62.7378H305.881L287.739 82.6029Z" fill="white" stroke="#2E353A" stroke-width="0.0748651" stroke-linecap="round" stroke-linejoin="round"/>
<path d="M73.8937 398.148H52.4131L58.9045 7.69678H62.7163L73.8937 21.51V398.148Z" fill="#2E353A" stroke="#2E353A" stroke-width="0.0748651" stroke-linecap="round" stroke-linejoin="round"/>
<path d="M70.0675 398.148H48.5869V21.51L58.9045 7.69678L70.0675 21.51V398.148Z" fill="white" stroke="#2E353A" stroke-width="0.0748651" stroke-linecap="round" stroke-linejoin="round"/>
<path d="M130.52 127.016V127.661H131.336V127.985H130.52V128.872H130.114V126.694H131.487V127.016H130.52ZM133.875 127.783C133.875 127.942 133.849 128.091 133.796 128.227C133.743 128.363 133.669 128.48 133.573 128.579C133.476 128.679 133.36 128.757 133.225 128.813C133.089 128.868 132.939 128.896 132.773 128.896C132.609 128.896 132.458 128.868 132.323 128.813C132.187 128.757 132.071 128.679 131.974 128.579C131.877 128.48 131.802 128.363 131.749 128.227C131.696 128.091 131.669 127.942 131.669 127.783C131.669 127.623 131.696 127.476 131.749 127.34C131.802 127.204 131.877 127.086 131.974 126.986C132.071 126.887 132.187 126.81 132.323 126.754C132.458 126.698 132.609 126.67 132.773 126.67C132.884 126.67 132.987 126.683 133.085 126.709C133.182 126.734 133.272 126.77 133.353 126.818C133.434 126.864 133.507 126.92 133.571 126.988C133.637 127.054 133.692 127.128 133.737 127.211C133.782 127.293 133.816 127.382 133.839 127.479C133.863 127.575 133.875 127.676 133.875 127.783ZM133.461 127.783C133.461 127.663 133.445 127.556 133.413 127.462C133.381 127.367 133.335 127.286 133.276 127.22C133.217 127.153 133.145 127.103 133.059 127.068C132.975 127.032 132.88 127.015 132.773 127.015C132.667 127.015 132.571 127.032 132.486 127.068C132.401 127.103 132.329 127.153 132.269 127.22C132.209 127.286 132.164 127.367 132.132 127.462C132.1 127.556 132.083 127.663 132.083 127.783C132.083 127.902 132.1 128.01 132.132 128.105C132.164 128.199 132.209 128.28 132.269 128.346C132.329 128.411 132.401 128.461 132.486 128.497C132.571 128.532 132.667 128.549 132.773 128.549C132.88 128.549 132.975 128.532 133.059 128.497C133.145 128.461 133.217 128.411 133.276 128.346C133.335 128.28 133.381 128.199 133.413 128.105C133.445 128.01 133.461 127.902 133.461 127.783Z" fill="white"/>
<path d="M137.472 164.889C137.987 164.889 138.42 164.827 138.77 164.704C139.12 164.58 139.398 164.415 139.604 164.209C139.817 164.003 139.968 163.763 140.057 163.489C140.153 163.214 140.201 162.922 140.201 162.613C140.201 162.291 140.15 162.002 140.047 161.748C139.944 161.488 139.782 161.268 139.563 161.089C139.343 160.904 139.058 160.763 138.708 160.667C138.365 160.571 137.949 160.523 137.462 160.523H134.672V164.889H137.472ZM134.672 154.304V158.608H136.875C137.823 158.608 138.536 158.436 139.017 158.093C139.504 157.75 139.748 157.204 139.748 156.456C139.748 155.68 139.528 155.128 139.089 154.798C138.65 154.469 137.963 154.304 137.03 154.304H134.672ZM137.03 152.162C138.004 152.162 138.838 152.255 139.532 152.44C140.225 152.626 140.791 152.89 141.231 153.233C141.677 153.576 142.003 153.992 142.209 154.479C142.415 154.966 142.518 155.516 142.518 156.126C142.518 156.477 142.466 156.813 142.363 157.136C142.26 157.451 142.099 157.75 141.879 158.031C141.667 158.306 141.392 158.557 141.056 158.783C140.726 159.01 140.331 159.202 139.872 159.36C141.917 159.82 142.94 160.925 142.94 162.675C142.94 163.307 142.82 163.89 142.58 164.426C142.339 164.961 141.989 165.424 141.529 165.816C141.069 166.2 140.503 166.502 139.83 166.722C139.158 166.941 138.389 167.051 137.524 167.051H131.902V152.162H137.03ZM159.656 159.607C159.656 160.698 159.474 161.711 159.11 162.644C158.753 163.571 158.245 164.374 157.586 165.054C156.927 165.733 156.134 166.265 155.207 166.65C154.281 167.027 153.251 167.216 152.118 167.216C150.993 167.216 149.966 167.027 149.04 166.65C148.113 166.265 147.317 165.733 146.651 165.054C145.992 164.374 145.481 163.571 145.117 162.644C144.753 161.711 144.571 160.698 144.571 159.607C144.571 158.515 144.753 157.506 145.117 156.58C145.481 155.646 145.992 154.839 146.651 154.16C147.317 153.48 148.113 152.952 149.04 152.574C149.966 152.19 150.993 151.998 152.118 151.998C152.874 151.998 153.584 152.087 154.25 152.265C154.916 152.437 155.527 152.684 156.083 153.007C156.639 153.322 157.136 153.71 157.576 154.17C158.022 154.623 158.399 155.131 158.708 155.694C159.017 156.257 159.251 156.868 159.409 157.527C159.573 158.186 159.656 158.879 159.656 159.607ZM156.824 159.607C156.824 158.79 156.714 158.059 156.495 157.414C156.275 156.761 155.963 156.209 155.558 155.756C155.153 155.303 154.658 154.956 154.075 154.716C153.498 154.476 152.846 154.355 152.118 154.355C151.391 154.355 150.735 154.476 150.152 154.716C149.575 154.956 149.081 155.303 148.669 155.756C148.264 156.209 147.952 156.761 147.732 157.414C147.512 158.059 147.403 158.79 147.403 159.607C147.403 160.424 147.512 161.158 147.732 161.81C147.952 162.456 148.264 163.005 148.669 163.458C149.081 163.904 149.575 164.247 150.152 164.487C150.735 164.728 151.391 164.848 152.118 164.848C152.846 164.848 153.498 164.728 154.075 164.487C154.658 164.247 155.153 163.904 155.558 163.458C155.963 163.005 156.275 162.456 156.495 161.81C156.714 161.158 156.824 160.424 156.824 159.607ZM176.287 159.607C176.287 160.698 176.105 161.711 175.742 162.644C175.385 163.571 174.877 164.374 174.218 165.054C173.559 165.733 172.766 166.265 171.839 166.65C170.912 167.027 169.883 167.216 168.75 167.216C167.624 167.216 166.598 167.027 165.671 166.65C164.745 166.265 163.948 165.733 163.283 165.054C162.624 164.374 162.112 163.571 161.748 162.644C161.384 161.711 161.203 160.698 161.203 159.607C161.203 158.515 161.384 157.506 161.748 156.58C162.112 155.646 162.624 154.839 163.283 154.16C163.948 153.48 164.745 152.952 165.671 152.574C166.598 152.19 167.624 151.998 168.75 151.998C169.505 151.998 170.216 152.087 170.881 152.265C171.547 152.437 172.158 152.684 172.714 153.007C173.27 153.322 173.768 153.71 174.207 154.17C174.653 154.623 175.031 155.131 175.34 155.694C175.649 156.257 175.882 156.868 176.04 157.527C176.205 158.186 176.287 158.879 176.287 159.607ZM173.456 159.607C173.456 158.79 173.346 158.059 173.126 157.414C172.906 156.761 172.594 156.209 172.189 155.756C171.784 155.303 171.29 154.956 170.706 154.716C170.13 154.476 169.478 154.355 168.75 154.355C168.022 154.355 167.367 154.476 166.783 154.716C166.207 154.956 165.713 155.303 165.301 155.756C164.896 156.209 164.583 156.761 164.364 157.414C164.144 158.059 164.034 158.79 164.034 159.607C164.034 160.424 164.144 161.158 164.364 161.81C164.583 162.456 164.896 163.005 165.301 163.458C165.713 163.904 166.207 164.247 166.783 164.487C167.367 164.728 168.022 164.848 168.75 164.848C169.478 164.848 170.13 164.728 170.706 164.487C171.29 164.247 171.784 163.904 172.189 163.458C172.594 163.005 172.906 162.456 173.126 161.81C173.346 161.158 173.456 160.424 173.456 159.607ZM181.489 158.402H182.138C182.399 158.402 182.615 158.368 182.787 158.299C182.958 158.224 183.106 158.107 183.23 157.949L187.338 152.749C187.51 152.53 187.688 152.378 187.873 152.296C188.066 152.207 188.306 152.162 188.594 152.162H190.983L185.969 158.351C185.673 158.728 185.368 158.996 185.052 159.154C185.279 159.236 185.481 159.353 185.66 159.504C185.845 159.648 186.02 159.84 186.185 160.08L191.354 167.051H188.913C188.584 167.051 188.337 167.007 188.172 166.917C188.014 166.821 187.88 166.684 187.77 166.506L183.559 161.007C183.429 160.822 183.278 160.691 183.106 160.616C182.934 160.54 182.687 160.503 182.365 160.503H181.489V167.051H178.72V152.162H181.489V158.402ZM203.415 161.285V167.051H200.655V161.285L195.229 152.162H197.669C197.909 152.162 198.098 152.221 198.235 152.337C198.38 152.454 198.5 152.602 198.596 152.78L201.314 157.753C201.472 158.049 201.609 158.327 201.726 158.587C201.85 158.848 201.959 159.109 202.056 159.37C202.145 159.109 202.248 158.848 202.364 158.587C202.481 158.327 202.615 158.049 202.766 157.753L205.474 152.78C205.55 152.629 205.663 152.488 205.814 152.358C205.965 152.227 206.157 152.162 206.39 152.162H208.841L203.415 161.285ZM223.708 159.607C223.708 160.698 223.526 161.711 223.163 162.644C222.806 163.571 222.298 164.374 221.639 165.054C220.98 165.733 220.187 166.265 219.26 166.65C218.333 167.027 217.304 167.216 216.171 167.216C215.045 167.216 214.019 167.027 213.092 166.65C212.166 166.265 211.369 165.733 210.704 165.054C210.045 164.374 209.533 163.571 209.169 162.644C208.806 161.711 208.624 160.698 208.624 159.607C208.624 158.515 208.806 157.506 209.169 156.58C209.533 155.646 210.045 154.839 210.704 154.16C211.369 153.48 212.166 152.952 213.092 152.574C214.019 152.19 215.045 151.998 216.171 151.998C216.926 151.998 217.637 152.087 218.303 152.265C218.968 152.437 219.579 152.684 220.135 153.007C220.691 153.322 221.189 153.71 221.628 154.17C222.075 154.623 222.452 155.131 222.761 155.694C223.07 156.257 223.303 156.868 223.461 157.527C223.626 158.186 223.708 158.879 223.708 159.607ZM220.877 159.607C220.877 158.79 220.767 158.059 220.547 157.414C220.328 156.761 220.015 156.209 219.61 155.756C219.205 155.303 218.711 154.956 218.128 154.716C217.551 154.476 216.899 154.355 216.171 154.355C215.444 154.355 214.788 154.476 214.204 154.716C213.628 154.956 213.134 155.303 212.722 155.756C212.317 156.209 212.004 156.761 211.785 157.414C211.565 158.059 211.455 158.79 211.455 159.607C211.455 160.424 211.565 161.158 211.785 161.81C212.004 162.456 212.317 163.005 212.722 163.458C213.134 163.904 213.628 164.247 214.204 164.487C214.788 164.728 215.444 164.848 216.171 164.848C216.899 164.848 217.551 164.728 218.128 164.487C218.711 164.247 219.205 163.904 219.61 163.458C220.015 163.005 220.328 162.456 220.547 161.81C220.767 161.158 220.877 160.424 220.877 159.607ZM232.133 164.817C232.669 164.817 233.146 164.728 233.565 164.549C233.99 164.371 234.347 164.12 234.636 163.798C234.924 163.475 235.143 163.084 235.295 162.624C235.452 162.164 235.531 161.649 235.531 161.079V152.162H238.301V161.079C238.301 161.965 238.157 162.785 237.869 163.54C237.587 164.288 237.179 164.937 236.643 165.486C236.115 166.028 235.47 166.454 234.708 166.763C233.946 167.065 233.088 167.216 232.133 167.216C231.172 167.216 230.311 167.065 229.549 166.763C228.787 166.454 228.138 166.028 227.603 165.486C227.074 164.937 226.666 164.288 226.378 163.54C226.096 162.785 225.955 161.965 225.955 161.079V152.162H228.725V161.069C228.725 161.639 228.801 162.153 228.952 162.613C229.11 163.073 229.333 163.468 229.621 163.798C229.916 164.12 230.273 164.371 230.692 164.549C231.117 164.728 231.598 164.817 232.133 164.817ZM245.925 159.246C246.446 159.246 246.899 159.181 247.284 159.051C247.675 158.92 247.994 158.742 248.241 158.515C248.495 158.282 248.684 158.007 248.808 157.692C248.931 157.376 248.993 157.029 248.993 156.652C248.993 155.897 248.742 155.316 248.241 154.911C247.747 154.506 246.989 154.304 245.966 154.304H244.195V159.246H245.925ZM253.05 167.051H250.548C250.074 167.051 249.731 166.866 249.518 166.495L246.388 161.728C246.271 161.549 246.141 161.422 245.997 161.347C245.859 161.271 245.653 161.234 245.379 161.234H244.195V167.051H241.425V152.162H245.966C246.975 152.162 247.84 152.269 248.561 152.481C249.288 152.687 249.882 152.979 250.342 153.357C250.809 153.734 251.152 154.187 251.371 154.716C251.591 155.238 251.701 155.814 251.701 156.446C251.701 156.947 251.625 157.42 251.474 157.867C251.33 158.313 251.118 158.718 250.836 159.082C250.561 159.445 250.218 159.765 249.806 160.039C249.401 160.314 248.938 160.53 248.416 160.688C248.595 160.791 248.76 160.914 248.911 161.059C249.062 161.196 249.199 161.361 249.322 161.553L253.05 167.051ZM145.123 184.607C145.123 185.698 144.941 186.7 144.577 187.613C144.213 188.526 143.702 189.312 143.043 189.971C142.384 190.63 141.591 191.142 140.664 191.506C139.738 191.869 138.708 192.051 137.575 192.051H131.902V177.162H137.575C138.708 177.162 139.738 177.348 140.664 177.718C141.591 178.082 142.384 178.593 143.043 179.252C143.702 179.905 144.213 180.687 144.577 181.6C144.941 182.513 145.123 183.515 145.123 184.607ZM142.281 184.607C142.281 183.79 142.171 183.059 141.951 182.414C141.739 181.761 141.426 181.212 141.014 180.766C140.609 180.313 140.115 179.966 139.532 179.726C138.955 179.486 138.303 179.366 137.575 179.366H134.682V189.848H137.575C138.303 189.848 138.955 189.728 139.532 189.487C140.115 189.247 140.609 188.904 141.014 188.458C141.426 188.005 141.739 187.456 141.951 186.81C142.171 186.158 142.281 185.424 142.281 184.607ZM152.068 184.246C152.59 184.246 153.043 184.181 153.427 184.051C153.818 183.92 154.137 183.742 154.385 183.515C154.639 183.282 154.827 183.007 154.951 182.692C155.074 182.376 155.136 182.029 155.136 181.652C155.136 180.897 154.886 180.316 154.385 179.911C153.89 179.506 153.132 179.304 152.109 179.304H150.338V184.246H152.068ZM159.193 192.051H156.691C156.217 192.051 155.874 191.866 155.661 191.495L152.531 186.728C152.414 186.549 152.284 186.422 152.14 186.347C152.003 186.271 151.797 186.234 151.522 186.234H150.338V192.051H147.568V177.162H152.109C153.118 177.162 153.983 177.269 154.704 177.481C155.431 177.687 156.025 177.979 156.485 178.357C156.952 178.734 157.295 179.187 157.515 179.716C157.734 180.238 157.844 180.814 157.844 181.446C157.844 181.947 157.769 182.42 157.618 182.867C157.474 183.313 157.261 183.718 156.979 184.082C156.705 184.445 156.362 184.765 155.95 185.039C155.545 185.314 155.081 185.53 154.56 185.688C154.738 185.791 154.903 185.914 155.054 186.059C155.205 186.196 155.342 186.361 155.466 186.553L159.193 192.051ZM163.581 179.366V183.495H168.791V185.626H163.581V189.837H170.192V192.051H160.801V177.162H170.192V179.366H163.581ZM180.513 186.429L178.701 181.477C178.611 181.257 178.519 180.996 178.423 180.694C178.327 180.392 178.23 180.066 178.134 179.716C178.045 180.066 177.952 180.395 177.856 180.704C177.76 181.006 177.668 181.271 177.578 181.497L175.776 186.429H180.513ZM185.404 192.051H183.262C183.022 192.051 182.826 191.993 182.675 191.876C182.524 191.753 182.411 191.602 182.335 191.423L181.223 188.386H175.056L173.944 191.423C173.889 191.581 173.782 191.725 173.624 191.856C173.467 191.986 173.271 192.051 173.038 192.051H170.875L176.734 177.162H179.555L185.404 192.051ZM203.09 177.162V192.051H200.65V182.434C200.65 182.05 200.67 181.634 200.712 181.188L196.212 189.642C195.999 190.047 195.673 190.249 195.234 190.249H194.843C194.403 190.249 194.077 190.047 193.864 189.642L189.313 181.157C189.334 181.384 189.351 181.607 189.365 181.827C189.378 182.046 189.385 182.249 189.385 182.434V192.051H186.945V177.162H189.035C189.159 177.162 189.265 177.166 189.354 177.173C189.444 177.179 189.523 177.197 189.591 177.224C189.667 177.251 189.732 177.296 189.787 177.358C189.849 177.42 189.907 177.502 189.962 177.605L194.42 185.873C194.537 186.093 194.643 186.319 194.74 186.553C194.843 186.786 194.942 187.026 195.038 187.274C195.134 187.02 195.234 186.776 195.337 186.543C195.44 186.302 195.55 186.072 195.666 185.853L200.063 177.605C200.118 177.502 200.176 177.42 200.238 177.358C200.3 177.296 200.365 177.251 200.434 177.224C200.509 177.197 200.591 177.179 200.681 177.173C200.77 177.166 200.876 177.162 201 177.162H203.09ZM214.341 179.87C214.258 180.014 214.169 180.121 214.073 180.189C213.984 180.251 213.87 180.282 213.733 180.282C213.589 180.282 213.431 180.231 213.259 180.128C213.095 180.018 212.896 179.898 212.662 179.767C212.429 179.637 212.154 179.52 211.838 179.417C211.53 179.307 211.162 179.252 210.737 179.252C210.352 179.252 210.016 179.301 209.728 179.397C209.439 179.486 209.196 179.613 208.997 179.778C208.804 179.942 208.66 180.141 208.564 180.375C208.468 180.601 208.42 180.852 208.42 181.126C208.42 181.477 208.516 181.768 208.708 182.002C208.907 182.235 209.168 182.434 209.491 182.599C209.813 182.764 210.181 182.911 210.593 183.042C211.004 183.172 211.427 183.313 211.859 183.464C212.292 183.608 212.714 183.78 213.126 183.979C213.537 184.171 213.905 184.418 214.227 184.72C214.55 185.015 214.807 185.379 215 185.811C215.199 186.244 215.298 186.769 215.298 187.387C215.298 188.06 215.181 188.691 214.948 189.281C214.722 189.865 214.385 190.376 213.939 190.816C213.5 191.248 212.961 191.591 212.322 191.845C211.684 192.092 210.953 192.216 210.129 192.216C209.656 192.216 209.189 192.168 208.729 192.072C208.269 191.983 207.826 191.852 207.401 191.681C206.982 191.509 206.587 191.303 206.216 191.063C205.846 190.823 205.516 190.555 205.228 190.26L206.041 188.931C206.11 188.835 206.199 188.756 206.309 188.695C206.419 188.626 206.536 188.592 206.659 188.592C206.831 188.592 207.016 188.664 207.215 188.808C207.414 188.945 207.651 189.1 207.926 189.271C208.2 189.443 208.52 189.601 208.883 189.745C209.254 189.882 209.697 189.951 210.212 189.951C211.001 189.951 211.612 189.765 212.044 189.395C212.477 189.017 212.693 188.478 212.693 187.778C212.693 187.387 212.594 187.068 212.395 186.821C212.202 186.573 211.945 186.367 211.622 186.203C211.3 186.031 210.932 185.887 210.521 185.77C210.109 185.654 209.69 185.527 209.264 185.389C208.839 185.252 208.42 185.087 208.008 184.895C207.596 184.703 207.229 184.452 206.906 184.143C206.584 183.835 206.323 183.45 206.124 182.99C205.932 182.523 205.836 181.95 205.836 181.271C205.836 180.728 205.942 180.2 206.155 179.685C206.374 179.17 206.69 178.714 207.102 178.315C207.514 177.917 208.022 177.598 208.626 177.358C209.23 177.118 209.923 176.998 210.706 176.998C211.585 176.998 212.395 177.135 213.136 177.409C213.877 177.684 214.509 178.068 215.03 178.563L214.341 179.87Z" fill="white"/>
<path d="M52.4131 398.148V374.128" stroke="#2E353A" stroke-width="0.0748651" stroke-linecap="round" stroke-linejoin="round"/>
<path d="M56.1675 398.148V310.415" stroke="#2E353A" stroke-width="0.0748651" stroke-linecap="round" stroke-linejoin="round"/>
<path d="M52.4131 370.485V361.75" stroke="#2E353A" stroke-width="0.0748651" stroke-linecap="round" stroke-linejoin="round"/>
<path d="M63.1462 243.508V234.773" stroke="#2E353A" stroke-width="0.0748651" stroke-linecap="round" stroke-linejoin="round"/>
<path d="M52.4131 25.241V16.5063" stroke="#2E353A" stroke-width="0.0748651" stroke-linecap="round" stroke-linejoin="round"/>
<path d="M52.4131 36.7459V28.0112" stroke="#2E353A" stroke-width="0.0748651" stroke-linecap="round" stroke-linejoin="round"/>
<path d="M63.1462 298.885V253.315" stroke="#2E353A" stroke-width="0.0748651" stroke-linecap="round" stroke-linejoin="round"/>
<path d="M19.01 66.8804H26.5332" stroke="#2E353A" stroke-width="0.0748651" stroke-linecap="round" stroke-linejoin="round"/>
<path d="M22.3489 70.1621H40.3329" stroke="#2E353A" stroke-width="0.0748651" stroke-linecap="round" stroke-linejoin="round"/>
<path d="M89.198 70.1621H107.168" stroke="#2E353A" stroke-width="0.0748651" stroke-linecap="round" stroke-linejoin="round"/>
<path d="M98.1829 73.8057H104.502" stroke="#2E353A" stroke-width="0.0748651" stroke-linecap="round" stroke-linejoin="round"/>
<path d="M130.095 73.8057H167.611" stroke="#2E353A" stroke-width="0.0748651" stroke-linecap="round" stroke-linejoin="round"/>
<path d="M296.18 73.8057H289.903" stroke="#2E353A" stroke-width="0.0748651" stroke-linecap="round" stroke-linejoin="round"/>
<path d="M293.242 76.3511H271.933" stroke="#2E353A" stroke-width="0.0748651" stroke-linecap="round" stroke-linejoin="round"/>
<path d="M4.98108 403.925H19.0387C19.0387 403.925 -6.48287 384.11 4.98108 386.132C16.445 388.153 26.476 395.191 26.476 395.191C26.476 395.191 12.9199 384.085 22.2916 386.107C31.6634 388.128 31.2765 391.472 31.2765 391.472C31.2765 391.472 32.0073 367.477 40.2757 374.103C45.0757 377.757 48.0391 382.905 48.5298 388.44C48.5298 388.44 66.1986 369.411 70.0247 370.459C73.8508 371.507 73.8507 383.149 73.8507 383.149C73.8507 383.149 103.528 362.086 98.14 374.103C92.7519 386.119 89.1551 390.636 89.1551 390.636C89.1551 390.636 103.084 379.918 101.307 386.107C100.548 389.094 99.4884 392.017 98.14 394.841C98.14 394.841 119.09 400.556 115.995 400.544C112.9 400.531 107.125 404 107.125 404C107.125 404 142.505 399.009 135.785 404C129.064 408.992 73.8221 408.156 73.8221 408.156C73.8221 408.156 100.805 413.908 89.1981 413.908C77.5909 413.908 59.3345 409.74 59.3345 409.74C59.3345 409.74 32.1077 414.731 22.349 413.908C12.5903 413.084 40.333 409.74 40.333 409.74C40.333 409.74 -12.4584 409.79 4.98108 403.925Z" fill="#2E353A" stroke="#2E353A" stroke-width="0.0773203" stroke-linecap="round" stroke-linejoin="round"/>
</svg>
