<svg width="80" height="80" viewBox="0 0 80 80" fill="none" xmlns="http://www.w3.org/2000/svg">
<g clip-path="url(#clip0_522_675)">
<path d="M11.5456 13.6449C10.9401 13.9098 9.71732 14.236 7.90379 14.236C2.88192 14.236 0 11.1402 0 7.19037C0 2.48823 3.67222 0 8.23734 0C10.0072 0 10.9423 0.303576 11.5446 0.590435L10.9867 3.40248C10.3162 3.1363 9.60442 2.89388 8.37527 2.89388C6.2012 2.89388 3.89508 4.05275 3.89508 7.13846C3.89508 9.89881 5.73388 11.3588 8.39343 11.3588C9.44685 11.3588 10.1618 11.1736 10.987 10.8342L11.5456 13.6449Z" fill="#0056A2"/>
<path d="M19.8841 3.48673C18.5313 3.48673 17.2221 4.03646 16.5555 4.91948H16.5145V0.0488281L13.1116 1.10475V13.8121H16.5145V7.87627C16.5145 7.01922 17.1362 6.09727 18.3286 6.09727C19.6041 6.09727 20.0955 6.99722 20.0955 8.30634V13.8123H23.5014V7.88529C23.5014 4.85964 22.0536 3.48673 19.8841 3.48673Z" fill="#0056A2"/>
<path d="M28.635 9.80346C28.7602 11.0906 29.9513 11.7745 31.7919 11.7893C32.901 11.797 34.1905 11.5079 35.0495 11.0543L35.563 13.4281C34.27 14.0102 32.793 14.2357 31.2894 14.2357C27.2388 14.2357 25.0676 12.0521 25.0676 8.70685C25.0676 5.47089 27.4022 3.38281 30.9007 3.38281C34.5061 3.38281 36.1223 5.76215 36.1223 8.74337C36.1223 9.0575 36.0791 9.56918 36.0404 9.80346H28.635ZM32.7235 7.63289C32.7235 6.88539 32.3166 5.57825 30.7411 5.57825C29.3598 5.57825 28.7084 6.64407 28.6117 7.63289H32.7235Z" fill="#0056A2"/>
<path d="M40.1224 13.8125L36.3623 3.80762H40.1167L42.1595 10.8847H42.2282L44.2712 3.80762H48.0272L44.2673 13.8125H40.1224Z" fill="#0056A2"/>
<path d="M48.9921 7.09732C48.9921 5.62542 48.9406 4.66519 48.8706 3.80681H52.0765L52.1737 5.66655H52.2598C52.8209 4.19464 53.8976 3.63545 55.005 3.57913C55.5315 3.55163 55.8165 3.58507 56.1424 3.64161V6.56694C55.8304 6.51217 55.2115 6.44771 54.7763 6.48357C53.4666 6.59158 52.6741 7.44534 52.4518 8.42822C52.4071 8.63193 52.384 8.85807 52.384 9.12271V13.8117H48.9933V7.09732H48.9921Z" fill="#0056A2"/>
<path d="M68.1015 8.80936C68.1015 12.0884 65.8973 14.2357 62.3254 14.2357C58.7529 14.2357 56.5471 12.0884 56.5471 8.80936C56.5471 5.52985 58.7529 3.38281 62.3254 3.38281C65.8973 3.38281 68.1015 5.53007 68.1015 8.80936ZM64.5734 8.80936C64.5734 7.18126 63.949 5.76413 62.3254 5.76413C60.6997 5.76413 60.0785 7.18104 60.0785 8.80936C60.0785 10.439 60.6997 11.8539 62.3254 11.8539C63.9495 11.8539 64.5734 10.439 64.5734 8.80936Z" fill="#0056A2"/>
<path d="M69.6149 6.99758C69.6149 5.74895 69.5639 4.68291 69.4919 3.80782H72.6978L72.7712 5.20757H72.8399C73.2839 4.55664 74.4588 3.4873 76.292 3.4873C78.5355 3.4873 80.0001 4.86022 80.0001 7.80536V13.8129H76.6V8.26512C76.6 6.97778 76.1072 6.09763 74.8768 6.09763C73.9334 6.09763 73.3475 6.69224 73.13 7.26222C73.0495 7.47098 73.0167 7.75454 73.0167 8.04096V13.8127H69.6149V6.99758Z" fill="#0056A2"/>
<path d="M0.121582 40.3342L0.121582 16.4727L40.0654 28.4041L0.121582 40.3342Z" fill="url(#paint0_linear_522_675)"/>
<path d="M0.131592 40.3361L40.0653 52.2662L79.9968 40.3361V16.4756L40.0653 28.4042L0.131592 40.3361Z" fill="url(#paint1_linear_522_675)"/>
<path d="M0.123797 68.0714L0.120361 44.2021L40.0615 56.1329L0.123797 68.0714Z" fill="url(#paint2_linear_522_675)"/>
<path d="M79.9988 44.2021L40.0541 56.1292L0.128418 68.067L40.0617 80.0002L79.9988 68.0633V44.2021Z" fill="url(#paint3_linear_522_675)"/>
</g>
<defs>
<linearGradient id="paint0_linear_522_675" x1="40.0654" y1="28.4034" x2="19.0545" y2="-6.76828" gradientUnits="userSpaceOnUse">
<stop stop-color="#06549B"/>
<stop offset="0.55" stop-color="#2FA1D3"/>
<stop offset="0.9" stop-color="#2FA1D3"/>
</linearGradient>
<linearGradient id="paint1_linear_522_675" x1="0.131591" y1="37.95" x2="22.5058" y2="-29.4517" gradientUnits="userSpaceOnUse">
<stop stop-color="#1371B1"/>
<stop offset="0.05" stop-color="#2FA1D3"/>
<stop offset="0.45" stop-color="#2FA1D3"/>
<stop offset="0.6" stop-color="#06569C"/>
</linearGradient>
<linearGradient id="paint2_linear_522_675" x1="40.0615" y1="56.1368" x2="13.0098" y2="28.9771" gradientUnits="userSpaceOnUse">
<stop stop-color="#9D1A36"/>
<stop offset="0.4" stop-color="#9D1A36"/>
<stop offset="0.6" stop-color="#E6192F"/>
</linearGradient>
<linearGradient id="paint3_linear_522_675" x1="0.128417" y1="65.681" x2="22.5099" y2="-1.73284" gradientUnits="userSpaceOnUse">
<stop stop-color="#A21C38"/>
<stop offset="0.13" stop-color="#E6192F"/>
<stop offset="0.45" stop-color="#E6192F"/>
<stop offset="0.6" stop-color="#A71C37"/>
</linearGradient>
<clipPath id="clip0_522_675">
<rect width="80" height="80" fill="white"/>
</clipPath>
</defs>
</svg>
