<svg width="80" height="80" viewBox="0 0 80 80" fill="none" xmlns="http://www.w3.org/2000/svg">
<g clip-path="url(#clip0_522_677)">
<path fill-rule="evenodd" clip-rule="evenodd" d="M39.927 15.9744C26.7023 15.9744 15.9764 26.7004 15.9764 39.928C15.9764 53.1616 26.7023 63.8865 39.927 63.8865C53.1636 63.8865 63.8895 53.1606 63.8895 39.928C63.8895 26.6994 53.1636 15.9744 39.927 15.9744ZM79.611 39.928C79.611 61.8451 61.8451 79.61 39.927 79.61C18.0169 79.61 0.250977 61.8451 0.250977 39.928C0.250977 18.0169 18.0169 0.250977 39.927 0.250977C61.8451 0.250977 79.611 18.0169 79.611 39.928Z" fill="#AC2318"/>
<path fill-rule="evenodd" clip-rule="evenodd" d="M62.2857 39.9267C62.2857 52.2734 52.2788 62.2823 39.9282 62.2823C27.5904 62.2823 17.5845 52.2734 17.5845 39.9267C17.5845 27.587 27.5904 17.5801 39.9282 17.5801C52.2788 17.5801 62.2857 27.587 62.2857 39.9267Z" fill="#441500"/>
<path fill-rule="evenodd" clip-rule="evenodd" d="M43.4983 53.9276C44.4494 53.9276 47.0993 52.5153 46.1165 51.8674C45.4953 51.4604 44.7664 50.9153 43.4202 49.8851C42.8168 49.4239 42.5521 49.5493 42.3664 49.5493C41.8114 49.5493 42.7121 48.6516 42.4158 47.9286C42.0869 47.1404 41.9002 45.9315 41.6247 45.657C41.3462 45.3785 41.4598 43.9187 42.0415 43.337C42.6775 42.7019 43.5891 40.854 44.0919 40.1469C44.6894 39.3014 45.0993 37.4456 44.8632 37.2066C44.6232 36.9696 43.5368 34.7157 43.0637 34.2407C42.7556 33.9345 42.2538 33.1799 41.7481 32.5676L41.6296 32.3987L41.118 32.6891C40.6074 32.9844 39.9763 33.5878 39.9763 33.5878C39.9763 33.5878 39.5368 33.734 38.5195 33.5296C37.9714 33.4209 37.7738 33.0348 37.7738 32.5962C37.7738 32.1587 37.4874 32.2693 37.4874 32.2693C37.4874 32.2693 32.3536 32.5182 31.9763 32.7355C31.603 32.9528 29.9615 35.2017 29.9615 35.2017C29.9615 35.2017 29.0894 43.7478 29.763 44.4244C30.5679 45.2264 34.7635 51.8367 35.5486 52.6259C36.3289 53.6945 42.5472 53.9276 43.4983 53.9276ZM33.5891 35.0091C33.0597 35.1039 32.2035 34.9538 31.8015 35.6866L31.036 39.0091C31.036 39.0091 31.118 42.3454 31.1921 43.0081C31.2632 43.6669 32.1244 45.818 32.6044 46.3019C33.0291 46.7266 33.8558 48.132 34.6044 48.8728C34.8069 49.0713 35.2178 49.1671 35.3906 49.4002C35.7017 49.8209 35.5072 49.5315 34.9491 48.7059C32.8978 45.6669 32.4553 43.0446 32.3555 42.5962C32.1363 41.6185 32.2973 39.3222 32.3555 38.4017C32.3852 37.9148 32.723 36.8214 33.0449 36.5775C33.1951 36.4609 34.6025 36.3049 34.8859 36.2249C35.3254 36.0965 35.9486 36.1044 36.3516 36.0214C37.6405 35.7557 40.0109 36.4155 40.1718 36.4916C42.1017 37.3844 41.3521 37.6955 41.3817 37.8002C41.4114 37.9088 38.6953 43.3804 38.7072 43.6372C38.72 43.9157 38.8188 46.6525 39.0746 47.4002C39.1506 47.6214 40.0079 49.6916 40.162 50.0669C40.8415 51.7113 38.7012 49.7933 38.563 49.7182C38.4247 49.6402 35.601 44.7898 35.1931 43.7597C34.9175 43.0674 35.0183 42.0234 35.0726 41.8022C35.1467 41.498 34.9274 39.1553 35.363 38.8353C35.6593 38.618 36.9797 38.4846 37.6178 38.7641C38.1975 39.019 38.5096 39.6698 38.4494 39.8229C38.403 39.9523 37.4864 42.9103 37.3432 42.6624C37.2978 42.5814 37.2938 41.6451 37.1733 41.5523C37.0509 41.4565 36.3773 41.3162 36.2943 41.4239C36.2114 41.5345 36.0494 42.5271 36.1343 42.8678C36.5422 44.5113 37.4933 43.9997 37.6731 43.6925C37.9397 43.2372 39.2316 39.6036 39.2079 39.3686C39.1536 38.8343 38.7585 37.9128 37.92 37.6303C37.4173 37.4624 35.2316 37.5562 34.6301 37.8703C33.7067 38.3553 33.761 42.5557 33.9368 43.1671C34.1126 43.7745 37.0222 48.6595 37.1585 49.0348C37.4281 49.7666 39.1891 51.5069 39.4647 51.6708C39.5793 51.7399 41.9832 52.6733 42.2943 52.2051C42.4296 52.0017 42.3625 51.4348 41.762 51.0427C41.1891 50.6674 39.8202 46.6743 39.8242 46.3612C39.8301 46.0649 39.4686 43.8427 39.7086 43.3804C40.163 42.4975 43.436 37.5928 43.0775 37.1977C42.5975 36.6674 41.1289 34.1913 40.4405 35.1236C39.8193 35.9681 36.877 35.099 36.1442 34.5627C36.0899 34.5212 34.3546 34.8678 33.5891 35.0091ZM47.919 23.4822C48.2104 23.5167 49.4993 23.9691 49.4993 23.9691C49.4993 23.9691 50.7437 25.7883 51.0607 26.1795C51.3807 26.5696 51.2385 26.853 51.2385 26.853L50.6281 29.0832C50.4039 28.9024 48.7565 29.0506 48.3654 29.0881C47.9723 29.1217 48.721 28.6249 48.8988 28.4481C49.0765 28.2703 49.7867 27.7735 49.6948 27.4901C49.6099 27.2046 48.5383 25.1325 48.5383 25.1325C48.5383 25.1325 46.6677 25.1148 45.7798 25.2214C44.8918 25.3271 43.0262 27.1839 43.0262 27.1839L42.3467 29.8683C42.3467 29.8683 42.6212 30.3622 43.0123 30.6822C43.4025 31.0022 44.5383 30.8945 44.963 30.8599C45.3876 30.8254 45.2128 31.3212 44.8573 31.6402C44.5017 31.9592 43.2247 31.9592 43.2247 31.9592L43.7551 32.137C44.3437 32.6703 45.4202 35.3982 46.0553 36.0353C46.6894 36.6674 46.0355 39.8674 45.1249 40.778C44.2114 41.6856 43.7768 43.6471 43.2217 44.2022C42.6637 44.7582 42.0879 44.5409 42.6637 45.1148C43.2425 45.6876 42.9728 46.3799 43.0637 46.8866C43.123 47.2115 43.2148 47.8041 43.4963 48.0817C43.7699 48.3582 47.9783 51.2748 49.6691 51.4081C49.9773 51.4338 49.9812 52.9182 48.2479 54.7424C48.2479 54.7424 47.9388 55.7953 45.0479 55.8881C41.8943 55.9869 38.7921 55.4604 38.078 55.4604C37.3669 55.4604 35.2938 54.2822 35.2938 54.2822C34.8997 54.2822 28.317 45.1236 28.317 44.4916C28.317 43.8565 27.8489 42.1439 27.8489 41.5088C27.8489 40.8767 28.5827 35.0762 28.4652 34.374C28.3723 33.8229 28.6597 33.6945 29.2948 33.0595C29.9279 32.4274 31.0726 31.3528 31.5062 30.9172C31.7017 30.7227 33.2197 30.7651 35.0588 30.372L35.3442 30.2506L34.9788 30.0728C34.9788 30.0728 34.3862 29.3291 33.4301 29.3646C32.4731 29.3992 32.1521 29.4713 32.6499 29.259C33.1467 29.0466 34.0385 28.373 34.0385 28.373L36.1244 29.2945H37.7017L39.677 27.6678L44.159 24.0274L47.919 23.4822ZM71.7649 39.415C71.6461 39.4125 71.528 39.4335 71.4173 39.4767C71.3066 39.5199 71.2055 39.5844 71.1197 39.6667C71.034 39.749 70.9653 39.8473 70.9175 39.9562C70.8698 40.065 70.8439 40.1821 70.8415 40.3009C70.839 40.4197 70.86 40.5379 70.9032 40.6486C70.9464 40.7593 71.0109 40.8604 71.0932 40.9461C71.1755 41.0319 71.2738 41.1006 71.3826 41.1483C71.4914 41.1961 71.6086 41.2219 71.7274 41.2244C71.9673 41.2294 72.1994 41.1388 72.3726 40.9727C72.5458 40.8065 72.6459 40.5784 72.6509 40.3385C72.6558 40.0985 72.5653 39.8664 72.3992 39.6933C72.233 39.5201 72.0049 39.42 71.7649 39.415ZM7.84395 26.293C8.2153 25.4338 8.86814 24.8985 9.66321 24.5192C9.72507 24.4886 9.77235 24.4348 9.79473 24.3695C9.81711 24.3042 9.81279 24.2327 9.78271 24.1706L9.32641 23.2224C9.29622 23.1609 9.24287 23.1139 9.17807 23.0917C9.11327 23.0695 9.04231 23.0739 8.98074 23.1039C7.99407 23.5711 7.10913 24.295 6.49975 25.6955C5.3995 28.2249 6.56888 30.8451 8.95209 31.8841L8.90469 31.8644C11.2879 32.9004 14.001 31.9701 15.1002 29.4407C15.7126 28.0402 15.6405 26.9004 15.3136 25.8575C15.2916 25.7926 15.2455 25.7386 15.1848 25.7068C15.1241 25.675 15.0535 25.6678 14.9876 25.6866L13.9802 25.9997C13.9148 26.0208 13.8603 26.0668 13.8285 26.1278C13.7967 26.1888 13.7902 26.2599 13.8104 26.3256C14.0731 27.1641 14.1264 28.0066 13.7531 28.8649C13.0548 30.4649 11.2415 31.0506 9.59802 30.3335C7.95061 29.6195 7.14469 27.893 7.84395 26.293ZM31.9427 9.57204C31.8757 9.58577 31.8059 9.57238 31.7487 9.53481C31.6915 9.49723 31.6515 9.43853 31.6375 9.37155L31.0884 6.66933C31.0753 6.60139 31.0895 6.53103 31.128 6.47352C31.1664 6.41602 31.226 6.376 31.2938 6.36217L32.8573 6.04513C34.0306 5.80809 34.8918 6.20315 35.1072 7.26093C35.3017 8.21599 34.6943 9.01402 33.5091 9.25599L31.9427 9.57204ZM37.1318 6.89846C36.7635 5.0792 34.7733 4.17254 32.6973 4.59426L29.436 5.25599C29.3689 5.26959 29.3098 5.3092 29.2716 5.36618C29.2335 5.42316 29.2195 5.4929 29.2326 5.56019L30.9393 13.9681C30.9649 14.1064 31.1032 14.2012 31.2425 14.1715L32.3022 13.9572C32.3698 13.943 32.4291 13.9026 32.4672 13.8449C32.5053 13.7872 32.5191 13.7169 32.5057 13.6491L32.0267 11.2925C32.0138 11.225 32.0279 11.1552 32.0659 11.0979C32.104 11.0407 32.1629 11.0006 32.2301 10.9864L33.7452 10.6802C35.7076 10.2812 37.5397 8.91328 37.1318 6.89846ZM73.8844 30.6713C73.8526 30.6833 73.8187 30.689 73.7847 30.6879C73.7507 30.6868 73.7172 30.6791 73.6862 30.665C73.6552 30.651 73.6272 30.631 73.604 30.6061C73.5807 30.5813 73.5626 30.5521 73.5506 30.5202L71.924 26.1883C71.9125 26.1562 71.8947 26.1266 71.8717 26.1014C71.8487 26.0761 71.8209 26.0557 71.7899 26.0414C71.7589 26.027 71.7253 26.019 71.6912 26.0178C71.6571 26.0166 71.6231 26.0222 71.5911 26.0343L69.3274 26.8836C69.2631 26.9085 69.211 26.9576 69.1826 27.0204C69.1541 27.0832 69.1515 27.1547 69.1753 27.2194L70.3951 30.4688C70.4188 30.5334 70.4162 30.6048 70.3877 30.6675C70.3593 30.7301 70.3073 30.7791 70.243 30.8036L69.3886 31.1217C69.3245 31.1457 69.2534 31.1433 69.191 31.1149C69.1286 31.0866 69.08 31.0347 69.0558 30.9706L67.837 27.7212C67.8126 27.6572 67.7641 27.6053 67.7019 27.5767C67.6396 27.5481 67.5687 27.545 67.5042 27.5681L66.237 28.0432C66.2048 28.0549 66.1751 28.073 66.1499 28.0963C66.1247 28.1196 66.1044 28.1477 66.0901 28.179C66.0759 28.2102 66.068 28.244 66.0669 28.2783C66.0659 28.3127 66.0717 28.3469 66.084 28.379L67.7314 32.772C67.7438 32.804 67.7497 32.8381 67.7488 32.8723C67.7479 32.9066 67.7401 32.9403 67.7259 32.9715C67.7117 33.0027 67.6914 33.0308 67.6663 33.054C67.6411 33.0773 67.6115 33.0952 67.5793 33.1069L66.7279 33.4269C66.696 33.4387 66.6621 33.4441 66.6281 33.4428C66.5941 33.4416 66.5606 33.4336 66.5297 33.4194C66.4988 33.4051 66.471 33.385 66.4479 33.36C66.4248 33.335 66.4068 33.3057 66.3951 33.2738L64.1827 27.3834C64.1596 27.3188 64.1626 27.2477 64.1912 27.1853C64.2198 27.1229 64.2717 27.0742 64.3358 27.0496L72.3654 24.0362C72.4302 24.0121 72.5018 24.0144 72.5648 24.0427C72.6279 24.071 72.6772 24.1229 72.7022 24.1874L74.8919 30.0185C74.9143 30.083 74.9108 30.1537 74.8821 30.2156C74.8533 30.2776 74.8016 30.3259 74.7378 30.3503L73.8844 30.6713ZM65.5437 14.5528C65.5954 14.5081 65.6628 14.4859 65.7309 14.4909C65.7991 14.4959 65.8625 14.5277 65.9072 14.5795L66.6123 15.3992C66.6566 15.4516 66.6784 15.5194 66.6731 15.5878C66.6677 15.6562 66.6356 15.7197 66.5837 15.7646L61.1852 20.4086C61.1588 20.4303 61.1371 20.4571 61.1212 20.4873C61.1053 20.5175 61.0956 20.5506 61.0926 20.5847C61.0897 20.6187 61.0935 20.653 61.104 20.6855C61.1145 20.718 61.1313 20.7481 61.1536 20.774L63.9358 24.0066C64.0267 24.1153 64.0148 24.2802 63.9091 24.375L63.199 24.9834C63.1462 25.028 63.0781 25.0503 63.0091 25.0455C62.9401 25.0407 62.8758 25.0092 62.8296 24.9577L59.0074 20.5093C58.9631 20.4572 58.9411 20.3897 58.9463 20.3214C58.9515 20.2532 58.9834 20.1897 59.0351 20.1449L65.5437 14.5528ZM54.716 16.9261C54.6986 16.9555 54.6756 16.9812 54.6482 17.0017C54.6209 17.0222 54.5898 17.0371 54.5566 17.0456C54.5235 17.054 54.489 17.0558 54.4552 17.0509C54.4214 17.046 54.3889 17.0345 54.3595 17.017L53.4212 16.459C53.3625 16.4231 53.3203 16.3656 53.3037 16.2989C53.2871 16.2322 53.2974 16.1616 53.3323 16.1024L56.9669 10.0046C57.0012 9.94535 57.0111 9.875 56.9943 9.80858C56.9775 9.74216 56.9354 9.68493 56.877 9.64908L54.8454 8.43723C54.8163 8.41993 54.7908 8.39706 54.7706 8.36992C54.7503 8.34278 54.7355 8.31191 54.7272 8.27907C54.7188 8.24623 54.717 8.21207 54.7219 8.17853C54.7268 8.145 54.7382 8.11276 54.7556 8.08365L55.2454 7.25698C55.2813 7.1976 55.3391 7.15469 55.4064 7.13751C55.4736 7.12033 55.5449 7.13025 55.6049 7.16513L61.4973 10.6822C61.5267 10.6994 61.5525 10.7223 61.5731 10.7495C61.5937 10.7767 61.6088 10.8077 61.6174 10.8407C61.626 10.8737 61.628 10.9081 61.6233 10.9419C61.6187 10.9757 61.6074 11.0083 61.5901 11.0377L61.0963 11.8644C61.0606 11.923 61.0033 11.9652 60.9368 11.9818C60.8702 11.9985 60.7998 11.9882 60.7407 11.9533L58.7081 10.7404C58.6485 10.7054 58.5774 10.6954 58.5104 10.7126C58.4434 10.7298 58.386 10.7728 58.3506 10.8323L54.716 16.9261ZM46.1412 5.70834C44.3605 5.39525 42.8652 6.59822 42.556 8.3513C42.2499 10.1054 43.2642 11.7725 45.0449 12.0846C46.8267 12.3987 48.3141 11.1938 48.6222 9.44167C48.9284 7.68957 47.9151 6.01945 46.1412 5.70834ZM44.7664 13.5276C42.0109 13.0456 40.4573 10.6219 40.9017 8.08661C41.3452 5.55229 43.6662 3.78044 46.4207 4.26439C49.1674 4.74735 50.723 7.16809 50.2775 9.70636C49.8331 12.2417 47.518 14.0106 44.7664 13.5276ZM23.3975 7.59081C23.4586 7.55924 23.5297 7.55315 23.5952 7.57388C23.6607 7.59462 23.7154 7.64048 23.7472 7.70143L27.7175 15.3054C27.7486 15.3667 27.7544 15.4377 27.7338 15.5033C27.7131 15.5688 27.6675 15.6236 27.6069 15.656L26.6518 16.1538C26.591 16.1856 26.5201 16.1922 26.4544 16.172C26.3888 16.1519 26.3337 16.1066 26.3012 16.0461L22.3309 8.44118C22.2993 8.37986 22.2934 8.30854 22.3143 8.24283C22.3352 8.17712 22.3813 8.12237 22.4425 8.09056L23.3975 7.59081ZM16.5689 20.4501C16.4701 20.5518 16.4701 20.7157 16.5728 20.8155L18.5363 22.7316C18.5847 22.7798 18.6123 22.8451 18.613 22.9135C18.6137 22.9818 18.5876 23.0477 18.5402 23.097L17.7847 23.8713C17.7611 23.8958 17.7328 23.9153 17.7016 23.9287C17.6704 23.9422 17.6368 23.9493 17.6028 23.9496C17.5688 23.95 17.5351 23.9436 17.5036 23.9309C17.4721 23.9181 17.4434 23.8992 17.4193 23.8753L11.281 17.8802C11.2324 17.8316 11.2048 17.766 11.2041 17.6973C11.2034 17.6286 11.2295 17.5624 11.277 17.5128L12.0316 16.7424C12.0552 16.7179 12.0835 16.6983 12.1147 16.6848C12.1459 16.6712 12.1795 16.664 12.2136 16.6634C12.2476 16.6629 12.2814 16.669 12.3131 16.6816C12.3447 16.6941 12.3736 16.7128 12.398 16.7365L15.1417 19.418C15.2425 19.5167 15.4084 19.5167 15.5091 19.414L18.4474 16.4046C18.4952 16.3554 18.5217 16.2894 18.5211 16.2208C18.5206 16.1522 18.493 16.0866 18.4444 16.0382L15.6997 13.3567C15.651 13.3085 15.6233 13.2429 15.6226 13.1743C15.6218 13.1057 15.6481 13.0396 15.6958 12.9903L16.4494 12.219C16.4979 12.17 16.5637 12.142 16.6326 12.1411C16.7015 12.1402 16.768 12.1664 16.8178 12.214L22.9531 18.2101C23.0558 18.3088 23.0568 18.4728 22.958 18.5765L22.2044 19.3488C22.1555 19.3975 22.0895 19.4252 22.0206 19.4259C21.9516 19.4266 21.885 19.4004 21.8351 19.3528L19.8736 17.4367C19.8244 17.389 19.7583 17.3627 19.6898 17.3637C19.6213 17.3646 19.556 17.3926 19.5081 17.4417L16.5689 20.4501ZM8.65086 53.2145L11.7422 52.0619L9.22271 51.4822L9.21185 51.4555L10.723 49.3893L7.65135 50.534L7.27012 49.5138L12.0039 47.7478L12.4227 48.8728L10.8849 50.8609L13.3521 51.3597L13.7709 52.4836L9.03703 54.2496L8.65185 53.2145H8.65086ZM71.997 52.5093L67.2188 50.8777L67.5763 49.8259L71.4005 51.1325L72.2153 48.7503L73.1684 49.0743L71.997 52.5093ZM68.6963 58.8323L64.3605 56.2456L64.9284 55.2935L68.398 57.3607L69.6869 55.2017L70.5561 55.7162L68.6963 58.8323ZM65.6326 62.7365L61.8163 59.4278L62.5452 58.5903L66.3575 61.899L65.6326 62.7365ZM60.1412 63.4674C59.8459 63.096 59.4321 63.1098 59.0084 63.4436L58.1442 64.132L59.04 65.2669L59.9239 64.5686C60.3496 64.2367 60.4158 63.816 60.1481 63.4822L60.1412 63.4674ZM62.1886 66.0925L60.3358 65.496L59.6494 66.0353L60.6528 67.3034L59.7827 67.9948L56.6489 64.0333L58.4573 62.6002C59.3946 61.8604 60.3437 61.9108 60.9886 62.7266L60.9965 62.7365C61.5022 63.3755 61.4775 64.052 61.12 64.6367L63.2039 65.2886L62.1886 66.0925ZM54.6202 71.0071C53.1911 71.6639 51.7442 71.1088 51.12 69.7498L51.1151 69.738C50.5146 68.4343 51.043 66.8955 52.4346 66.2604C53.2602 65.8812 53.8597 65.8753 54.5274 66.0629L54.2439 67.1207C53.7541 66.9883 53.36 66.9627 52.8296 67.2046C52.0938 67.5424 51.8074 68.4619 52.1659 69.2392L52.1718 69.253C52.559 70.0925 53.4193 70.4461 54.2301 70.0728C54.5995 69.9039 54.883 69.66 55.0568 69.3597L54.7556 68.7019L53.7383 69.1711L53.3393 68.297L55.3284 67.3814L56.2469 69.3775C55.9188 70.099 55.3411 70.6777 54.6202 71.0071ZM45.7343 73.6817L42.9096 70.7987L43.3067 73.9859L42.2153 74.1202L41.5901 69.1108L42.6094 68.9844L45.3442 71.7735L44.959 68.6921L46.0494 68.5548L46.6716 73.5651L45.7343 73.6817ZM36.4543 70.1251L35.5891 71.6728L36.9235 71.8338L36.4543 70.1251ZM37.521 74.0372L37.199 72.86L35.0775 72.5992L34.482 73.6698L33.357 73.5335L36.1205 68.7414L37.1378 68.8619L38.6736 74.1765L37.521 74.0372ZM28.2716 72.0679C26.882 71.5345 26.2588 70.0738 26.7753 68.7167L26.7793 68.7019C27.2928 67.3597 28.72 66.6476 30.1718 67.2007C31.0607 67.5385 31.4805 68.0402 31.7541 68.6377L30.8049 69.1493C30.5669 68.6792 30.2716 68.3335 29.7995 68.1538C29.0035 67.8496 28.1788 68.2921 27.8716 69.1049L27.8667 69.1177C27.5575 69.9256 27.8597 70.8145 28.6696 71.1246C29.2079 71.3291 29.6227 71.2402 30.1215 71.0427L30.5264 71.9632C29.843 72.295 29.1822 72.4135 28.2716 72.0679ZM21.7215 68.7009L24.3793 64.4135L25.3235 64.9972L22.6637 69.2866L21.7215 68.7009ZM17.8736 65.8446L18.2123 63.8051L16.1995 64.3088L15.2711 63.4535L18.3052 62.7523L18.7397 59.7854L19.6958 60.6614L19.3699 62.5893L21.2652 62.1034L22.1926 62.9577L19.28 63.6333L18.8286 66.7246L17.8736 65.8446ZM10.9501 57.737L15.12 54.8827L17.2731 58.0234L16.4583 58.5854L14.9274 56.3523L14.081 56.932L15.4291 58.8975L14.6143 59.4565L13.2662 57.492L12.3911 58.0916L13.9417 60.3523L13.1269 60.9143L10.9501 57.737ZM7.21086 40.3385C7.22172 40.8353 7.63555 41.2323 8.13432 41.2224C8.25299 41.22 8.37003 41.1943 8.47876 41.1466C8.58748 41.099 8.68576 41.0304 8.76798 40.9448C8.8502 40.8592 8.91475 40.7582 8.95795 40.6477C9.00115 40.5371 9.02215 40.4191 9.01975 40.3004C9.01735 40.1818 8.9916 40.0647 8.94397 39.956C8.89633 39.8473 8.82775 39.749 8.74214 39.6668C8.65653 39.5846 8.55556 39.52 8.445 39.4768C8.33444 39.4336 8.21645 39.4126 8.09777 39.415C7.85773 39.4199 7.62947 39.52 7.46315 39.6931C7.29684 39.8663 7.2061 40.0984 7.21086 40.3385Z" fill="#FEFEFE"/>
</g>
<defs>
<clipPath id="clip0_522_677">
<rect width="80" height="80" fill="white"/>
</clipPath>
</defs>
</svg>
