<svg width="123" height="58" viewBox="0 0 123 58" fill="none" xmlns="http://www.w3.org/2000/svg">
<path d="M61.2985 1.34375L30.3335 14.6077H11.0186L11.0186 20.0188H1.34351L1.34351 56.3881H121.24L121.24 20.0188H111.57L111.57 14.6077H92.2618L61.2985 1.34375Z" fill="#004990"/>
<path d="M89.8903 24.2803L89.8889 30.1599L93.6928 30.1666L94.4855 24.282L89.8903 24.2803Z" fill="white"/>
<path d="M110.458 29.3746C110.703 29.3746 110.924 29.3562 110.924 29.0572C110.924 28.8221 110.706 28.7784 110.505 28.7784H110.108L110.108 29.3746H110.458ZM110.108 30.4528H109.818L109.818 28.5315H110.55C111.002 28.5315 111.227 28.6995 111.227 29.079C111.227 29.4233 111.013 29.5728 110.731 29.608L111.277 30.4528H110.951L110.444 29.6198H110.108L110.108 30.4528ZM110.461 30.8827C111.215 30.8827 111.809 30.2933 111.809 29.4888C111.809 28.6995 111.215 28.105 110.461 28.105C109.697 28.105 109.102 28.6995 109.102 29.4888C109.102 30.2933 109.697 30.8827 110.461 30.8827ZM108.766 29.4888C108.766 28.5315 109.542 27.8262 110.461 27.8262C111.369 27.8262 112.147 28.5315 112.147 29.4888C112.147 30.4528 111.369 31.1615 110.461 31.1615C109.542 31.1615 108.766 30.4528 108.766 29.4888Z" fill="white"/>
<path d="M20.4689 44.3173L20.4689 24.2803H14.989L14.989 49.0885H28.9483L28.9483 44.3173H20.4689Z" fill="white"/>
<path d="M75.6353 49.0889H88.6792L88.6792 44.311H81.142L81.142 41.1973H88.6792L88.6792 36.5974H81.142L81.142 33.467H88.6792L88.6792 28.6689H75.6353L75.6353 28.6924L75.6353 49.0889Z" fill="white"/>
<path d="M41.4732 33.468H36.6533L36.6533 44.2918H41.4732L41.4732 33.468ZM46.9632 46.4818C46.9632 47.921 45.796 49.0899 44.3551 49.0899H33.7698C32.3305 49.0899 31.1633 47.921 31.1633 46.4818L31.1633 31.2781C31.1633 29.8371 32.3305 28.6699 33.7698 28.6699H44.3551C45.796 28.6699 46.9632 29.8371 46.9632 31.2781L46.9632 46.4818Z" fill="white"/>
<path d="M67.0113 28.6699L67.0113 44.317H63.7028L63.7028 28.6699H58.8829L58.8829 44.317H55.5745L55.5745 28.6699H50.0845L50.0845 46.4801C50.0845 47.921 51.2517 49.0899 52.6926 49.0899H59.1818C60.2751 49.0899 61.2929 48.3342 61.2929 47.2409C61.2929 48.3342 62.3106 49.0899 63.4039 49.0899H69.8948C71.3341 49.0899 72.5012 47.921 72.5012 46.4801L72.5012 28.6699H67.0113Z" fill="white"/>
<path d="M107.922 41.3724L107.924 41.3738L107.89 41.3033C107.868 41.2596 107.846 41.2175 107.824 41.174L107.791 41.1068C106.923 39.3653 104.978 37.9109 101.847 36.6581L101.737 36.6162C101.117 36.3726 99.231 35.6354 99.021 34.4363C98.9639 34.1004 99.1 33.5731 99.4745 33.2523C99.8691 32.8509 100.474 32.6443 101.271 32.6443C102.548 32.6443 103.999 33.1666 104.751 33.4773C106.335 34.134 107.724 34.7201 107.737 34.7285L107.875 34.7856L107.875 30.3284L107.83 30.2998C107.799 30.2796 104.805 28.392 101.78 27.9587C101.433 27.9285 101.088 27.915 100.758 27.915C97.9731 27.915 95.8638 28.9261 94.4901 30.9212C93.3363 32.5603 93.2087 35.155 94.1894 37.0914C95.4507 39.2796 97.4727 40.1932 99.4292 41.0783C100.235 41.441 101.07 41.8206 101.851 42.2841L101.859 42.2895C102.742 42.8202 103.192 43.6313 103.006 44.3518C102.813 45.0991 101.958 45.6013 100.878 45.6013C100.73 45.6013 100.581 45.5932 100.435 45.5728L100.383 45.5661C98.3053 45.2772 94.0933 43.7086 94.0513 43.6918L93.917 43.6415L93.917 48.5285L93.9859 48.5521C94.0246 48.5655 98.1021 49.9157 101.721 49.9157C103.696 49.9157 105.189 49.5177 106.153 48.7351C106.176 48.7183 108.388 46.9398 108.486 43.9152C108.512 43.0789 108.324 42.2222 107.922 41.3724Z" fill="white"/>
</svg>
