<svg width="70" height="70" viewBox="0 0 70 70" fill="none" xmlns="http://www.w3.org/2000/svg">
<g clip-path="url(#clip0_522_679)">
<path d="M3.01464 50.1949V19.8043C3.01464 13.8505 3.13485 12.8337 8.47439 10.3184C18.5253 5.58789 27.4035 4.6551 34.51 4.64326V0H0V70H34.5098V65.7653C27.4034 65.7518 18.5253 64.4129 8.47423 59.6816C3.13485 57.1663 3.01464 56.1495 3.01464 50.1949Z" fill="#00704A"/>
<path d="M66.9856 50.1949V19.8043C66.9856 13.8505 66.8654 12.8337 61.5254 10.3184C51.4738 5.58789 42.5959 4.6551 35.49 4.64326V0H69.9998V70H35.49V65.7653C42.5959 65.7518 51.4738 64.4129 61.5254 59.6816C66.8654 57.1663 66.9856 56.1495 66.9856 50.1949Z" fill="#00704A"/>
<path d="M16.7332 22.3242V31.7927H10.279V22.3242H6.36133V47.6145H10.279V38.1177H16.7332V47.6145H20.6523V22.3242H16.7332Z" fill="#00704A"/>
<path d="M34.2643 28.6524V22.3242C34.2643 22.3242 26.8482 22.3242 24.8552 22.3242C22.8617 22.3242 22.1926 23.0654 22.1926 27.4898V42.446C22.1926 46.8717 22.8618 47.6145 24.8552 47.6145C26.8482 47.6145 34.2643 47.6145 34.2643 47.6145V41.2712H26.0358V38.1177H34.2643V31.7925H26.0358V28.6524H34.2643Z" fill="#00704A"/>
<path d="M46.368 31.7927H39.5704V28.6527H48.7168V22.3242C48.7168 22.3242 40.5518 22.3242 38.4364 22.3242C36.3196 22.3242 35.7274 23.1471 35.7274 27.5176V33.1506C35.7274 38.2234 36.314 38.1177 38.4364 38.1177C40.557 38.1177 45.2328 38.1177 45.2328 38.1177V41.2712H35.7261V47.6145C35.7261 47.6145 44.2527 47.6145 46.368 47.6145C48.4844 47.6145 49.0761 46.7908 49.0761 42.422V36.9184C49.0761 31.8439 48.4903 31.7927 46.368 31.7927Z" fill="#00704A"/>
<path d="M60.9283 31.7927H54.1309V28.6527H63.2773V22.3242C63.2773 22.3242 55.1123 22.3242 52.9956 22.3242C50.8793 22.3242 50.2881 23.1471 50.2881 27.5176V33.1506C50.2881 38.2234 50.8742 38.1177 52.9956 38.1177C55.1172 38.1177 59.793 38.1177 59.793 38.1177V41.2712H50.2866V47.6145C50.2866 47.6145 58.8124 47.6145 60.9283 47.6145C63.0441 47.6145 63.6368 46.7908 63.6368 42.422V36.9184C63.6368 31.8439 63.0497 31.7927 60.9283 31.7927Z" fill="#00704A"/>
</g>
<defs>
<clipPath id="clip0_522_679">
<rect width="70" height="70" fill="white"/>
</clipPath>
</defs>
</svg>
