<svg width="122" height="36" viewBox="0 0 122 36" fill="none" xmlns="http://www.w3.org/2000/svg">
<path d="M97.05 8.81124C98.1804 9.01377 99.2955 9.23985 100.382 9.47653V30.2346C101.381 30.0015 103.238 29.5163 104.475 29.1501V10.4574C105.662 10.7647 106.783 11.0732 107.806 11.3676V7.3641C104.575 6.23605 101.105 5.31761 97.05 4.46981V8.81124ZM1.00342 17.6834C1.00342 20.7532 3.98248 23.6286 9.18113 26.0943V9.3397C3.98248 11.7865 1.00342 14.642 1.00342 17.6834ZM120.902 17.6829C120.902 20.7585 117.918 23.6292 112.718 26.0984V9.3344C117.918 11.7871 120.902 14.6426 120.902 17.6829ZM24.7973 24.5326C24.7973 25.8172 24.0261 26.2458 23.1029 26.2458C22.3846 26.2458 21.2754 25.9844 20.3711 25.7372V9.71615C21.2754 9.47711 22.3846 9.21571 23.1029 9.21571C24.0261 9.21571 24.7973 9.64432 24.7973 10.929V24.5326ZM23.707 5.02736C22.2551 5.02736 20.1615 5.45596 16.3723 6.62639V28.8351C19.7047 29.8443 22.2551 30.4342 23.707 30.4342C27.0534 30.4342 28.9386 28.3877 28.9386 25.1037V10.3579C28.9386 7.07384 27.0534 5.02736 23.707 5.02736ZM57.2585 16.5174C57.2585 17.9162 56.7687 18.6263 54.9118 18.631L53.308 18.6354V5.79835C54.0216 5.76064 54.4031 5.75128 54.8317 5.75128C56.8394 5.75128 57.2585 6.51194 57.2585 7.94024V16.5174ZM55.0978 1.20991C54.303 1.20991 51.404 1.31 48.7382 1.46661V33.9996C49.6425 34.048 52.0234 34.1716 53.308 34.2045V23.1573L55.0978 23.1529C59.8855 23.1387 61.8755 20.9921 61.8755 16.8603V7.27429C61.8755 3.2284 59.6383 1.20991 55.0978 1.20991ZM90.8862 19.1497L85.8171 2.6094C84.437 2.42924 82.7709 2.24319 81.4862 2.12427V33.3432C82.3894 33.2573 84.6937 32.9959 85.8842 32.844L85.5215 14.4468L90.8862 32.1245C92.0284 31.9444 93.6945 31.6535 94.7896 31.4439V4.01415C93.6462 3.79042 91.5715 3.43836 90.5718 3.28528L90.8862 19.1497ZM40.5996 27.1365C40.5996 28.4212 40.1568 29.236 38.5531 29.0405C36.9776 28.8498 36.5537 28.1833 36.5537 26.6608V2.49035C35.5069 2.60457 33.1743 2.92838 32.1746 3.07204V27.5169C32.1746 31.4203 34.0692 32.9392 38.5531 33.4526C42.6555 33.9236 45.1682 31.8489 45.1682 27.5169V1.69083C44.3122 1.73914 41.5039 1.97697 40.5996 2.07234V27.1365ZM73.5845 27.8791C73.5845 29.1637 73.1559 29.8302 71.538 29.8784C69.8719 29.9255 69.4197 29.212 69.4197 27.8791V7.59786C69.4197 6.26493 69.8719 5.52782 71.538 5.57492C73.1559 5.62199 73.5845 6.31321 73.5845 7.59786V27.8791ZM71.538 1.02978C67.3014 0.824898 64.7792 2.69477 64.7792 6.97849V28.2594C64.7792 32.7822 67.0636 34.6426 71.538 34.4471C75.9172 34.2576 78.2015 32.5914 78.2015 27.7837V7.46951C78.2015 2.88552 76.1362 1.25351 71.538 1.02978Z" fill="#E51E25"/>
<path d="M118.47 27.7725H118.965L119.693 28.917L120.422 27.7725H120.9V30.1875H120.454V28.4707L119.709 29.6235H119.662L118.917 28.4707V30.1875H118.47L118.47 27.7725ZM116.745 28.1952H116V27.7725H117.952V28.1952H117.208V30.1875H116.745V28.1952Z" fill="#E51E25"/>
</svg>
