<svg width="72" height="72" viewBox="0 0 72 72" fill="none" xmlns="http://www.w3.org/2000/svg">
<g clip-path="url(#clip0_522_682)">
<mask id="mask0_522_682" style="mask-type:luminance" maskUnits="userSpaceOnUse" x="-388" y="-229" width="520" height="356">
<path d="M-387.389 -214.579L122.174 -228.815L131.706 112.372L-377.858 126.607L-387.389 -214.579Z" fill="white"/>
</mask>
<g mask="url(#mask0_522_682)">
<path d="M69.5558 0.0390334L0.393842 11.3746L1.82125 62.4691L71.9273 69.9639L69.9735 0.0273631L69.5558 0.0390334Z" fill="url(#paint0_linear_522_682)"/>
<path d="M1.72869 62.5259L60.8243 60.8749L59.393 9.64009L0.297363 11.291L1.72869 62.5259Z" fill="url(#paint1_linear_522_682)"/>
<path d="M56.1472 43.2912C54.5044 43.2238 53.2978 41.5589 52.0604 39.9176C50.992 38.5251 49.721 36.8032 48.181 35.9267C51.2161 34.9496 51.8407 33.1746 51.8032 31.8349C51.7448 29.7439 49.6252 27.5745 45.1501 27.6996L37.0458 27.926L37.0567 28.3152L37.2499 28.3098C38.5344 28.2739 39.1523 28.5058 39.2108 30.5968L39.2926 33.5252C38.8428 32.3918 38.1083 31.3524 37.1181 30.5149C35.1699 28.8707 32.3827 28.0562 29.0668 28.1489L20.3829 28.3915L20.3937 28.7807L20.587 28.7753C21.8402 28.7403 22.4934 29.1116 22.5495 31.1212L22.8624 42.3231C21.5412 43.4789 19.2435 44.1002 17.1861 44.1577C14.3506 44.2369 11.9562 42.5191 11.8853 39.98L11.5684 28.6377L6.67554 28.7744L6.68641 29.1637L6.87962 29.1583C8.20075 29.1213 8.79049 29.4672 8.84738 31.504L9.077 39.7233C9.14946 42.3167 11.5841 45.288 16.3412 45.1551C18.6911 45.0895 21.2123 44.24 22.8695 42.5766L22.9255 44.5816L25.7244 44.5034L25.3616 31.5137C25.2915 29.0063 25.9938 28.7058 27.4716 28.6645L28.6309 28.6321C34.3906 28.4712 36.6001 32.7353 36.7013 36.3606C36.8126 40.3435 34.5164 43.4516 30.637 43.9495C30.637 43.9495 29.9291 44.0508 29.4181 44.0922L29.426 44.3729C29.6192 44.3675 29.8132 44.3892 29.9698 44.3848C30.3241 44.3478 30.6479 44.3387 30.6479 44.3387C35.8531 43.9714 38.4897 41.6374 39.4437 38.9338L39.5884 44.1161L42.3873 44.0379L41.9466 28.2601L44.0092 28.2025C46.8081 28.1243 48.7238 29.9143 48.7814 31.9782C48.8335 33.843 47.6677 35.8867 44.4198 35.9774L44.19 35.9838L44.2001 36.3459C46.1697 36.5128 47.5133 38.4004 49.1106 40.394C50.013 41.4559 50.6856 42.5242 51.9105 43.7175L51.9747 43.7701L56.3192 43.6487L56.3091 43.2866L56.1472 43.2912Z" fill="white"/>
<path fill-rule="evenodd" clip-rule="evenodd" d="M55.2656 31.3754C54.0019 31.4107 52.959 30.5566 52.9284 29.4613C52.8978 28.366 53.8914 27.455 55.1551 27.4196C56.4188 27.3843 57.4669 28.2383 57.4975 29.3336C57.5281 30.4289 56.5293 31.3401 55.2656 31.3754ZM57.0794 29.3317C57.0537 28.4129 56.1923 27.6942 55.1479 27.7233C54.1088 27.7524 53.2888 28.5181 53.3145 29.4369C53.34 30.3512 54.2015 31.07 55.2406 31.0409C56.285 31.0117 57.105 30.246 57.0794 29.3317ZM54.2795 28.2504L55.3082 28.2216C55.8878 28.2054 56.2126 28.4228 56.2258 28.8936C56.2376 29.3145 55.9237 29.4908 55.5388 29.5559L56.3084 30.54L55.922 30.5508L55.1531 29.5939L54.7041 29.6064L54.7314 30.5841L54.345 30.5949L54.2795 28.2504ZM55.1429 29.2273C55.498 29.2174 55.8165 29.2085 55.8064 28.8464C55.7987 28.5703 55.5099 28.5195 55.2174 28.5277L54.6744 28.5428L54.6938 29.2398L55.1429 29.2273Z" fill="white"/>
</g>
</g>
<defs>
<linearGradient id="paint0_linear_522_682" x1="2.59087" y1="36.8918" x2="86.8401" y2="34.5381" gradientUnits="userSpaceOnUse">
<stop stop-color="#247C3A"/>
<stop offset="0.5" stop-color="#90CB49"/>
<stop offset="1" stop-color="#F3F7E0"/>
</linearGradient>
<linearGradient id="paint1_linear_522_682" x1="1.10702" y1="36.9058" x2="60.0773" y2="35.2584" gradientUnits="userSpaceOnUse">
<stop stop-color="#247C3A"/>
<stop offset="1" stop-color="#86C344"/>
</linearGradient>
<clipPath id="clip0_522_682">
<rect width="70" height="70" fill="white" transform="translate(0 1.95508) rotate(-1.60023)"/>
</clipPath>
</defs>
</svg>
