<svg width="121" height="42" viewBox="0 0 121 42" fill="none" xmlns="http://www.w3.org/2000/svg">
<g clip-path="url(#clip0_522_681)">
<path d="M33.828 0V25.1108L12.6204 0H0V41.6344H12.6204V16.5237L33.828 41.6344L46.4484 20.8172L33.828 0Z" fill="#FCA600"/>
<path d="M69.4774 41.6344L61.0204 27.843L52.5634 41.6344H37.6011L50.2215 20.8172L37.6011 0H52.4333L60.8903 13.7914L69.4774 0H84.3097L71.6892 20.8172L84.3097 41.6344H69.4774Z" fill="#0EAFE0"/>
<path d="M106.168 0H88.213L75.5925 20.8172L88.213 41.6344V32.3968H109.42C118.268 32.3968 121 25.2409 121 19.1258V14.1817C121 6.11505 118.138 0 106.168 0ZM109.29 16.7839C109.29 19.2559 108.119 22.1183 105.257 22.1183H88.3431V10.2785H104.086C107.859 10.2785 109.29 11.8398 109.29 14.7022V16.7839Z" fill="#69CA00"/>
</g>
<defs>
<clipPath id="clip0_522_681">
<rect width="121" height="41.6344" fill="white"/>
</clipPath>
</defs>
</svg>
