<svg width="100" height="70" viewBox="0 0 100 70" fill="none" xmlns="http://www.w3.org/2000/svg">
<g clip-path="url(#clip0_522_680)">
<path fill-rule="evenodd" clip-rule="evenodd" d="M19.2644 0H23.5322C23.996 1.42958 24.4135 2.8838 24.8642 4.32981C28.9729 17.8423 33.0815 31.3549 37.1902 44.8674C34.2081 44.8674 31.2282 44.8674 28.2505 44.8674C26.9185 40.2171 25.5931 35.5751 24.2677 30.9249C23.6117 28.6573 23.002 26.3568 22.3393 24.0892C21.1133 19.8005 19.9006 15.5035 18.668 11.2148C17.1041 16.7113 15.5467 22.2077 13.9695 27.696C16.1365 27.696 18.3035 27.696 20.4639 27.696C21.3519 30.8071 22.2377 33.9155 23.1213 37.0211C19.1982 37.0211 15.2684 37.0293 11.3453 37.0211C10.5898 39.6338 9.8476 42.2547 9.09214 44.8674C6.18292 44.8592 3.27371 44.8674 0.364502 44.8674C4.57259 30.966 8.7873 17.0728 12.9954 3.17136C13.1942 2.5716 13.446 1.99648 13.7906 1.50352C14.3274 0.780516 15.0829 0.34507 15.8582 0.197183C16.9848 -0.0164319 18.1312 0.131455 19.2644 0ZM41.385 0H54.4864C55.5998 0.0575117 56.7197 0.123239 57.8065 0.443662C60.5964 1.19131 63.1876 3.13028 64.9304 5.94836C66.9781 9.17723 67.7866 13.4742 67.3294 17.5246C66.9914 20.7453 65.7853 23.8181 63.9165 26.1021C61.9815 28.5012 59.3705 29.9965 56.6601 30.4319C55.454 30.6455 54.2346 30.588 53.0153 30.5962C51.8556 30.5962 50.6892 30.588 49.5229 30.5962C49.5229 35.3533 49.5229 40.1103 49.5229 44.8674C46.8103 44.8674 44.0954 44.8674 41.3784 44.8674C41.3784 29.9061 41.3652 14.9531 41.385 0ZM49.5229 9.55517C49.5229 13.4002 49.5229 17.2453 49.5229 21.0904C51.2127 21.0822 52.9026 21.0904 54.5991 21.0822C55.7986 21.0657 56.9914 20.466 57.8198 19.3815C59.397 17.3521 59.5163 13.9096 58.1445 11.6831C57.3559 10.3932 56.0703 9.59624 54.7581 9.55517C53.0131 9.55517 51.268 9.55517 49.5229 9.55517ZM81.617 0H85.898C86.5739 2.12793 87.2035 4.28873 87.8662 6.42488C91.7561 19.2418 95.6594 32.0505 99.5494 44.8592C96.5739 44.8674 93.5918 44.8674 90.6163 44.8674C89.8675 42.2465 89.112 39.6256 88.3632 37.0047C84.4334 36.98 80.497 37.0458 76.5673 37.0211C77.4487 33.9155 78.33 30.8016 79.2247 27.696C81.3917 27.696 83.5653 27.696 85.7389 27.696C84.1617 22.1995 82.6044 16.7031 81.0338 11.2066C78.7409 19.2746 76.4414 27.3427 74.1418 35.4108C73.2339 38.5575 72.3791 41.7289 71.4579 44.8674C68.5487 44.8674 65.6395 44.8674 62.7303 44.8674C66.945 30.9413 71.1664 17.0235 75.3811 3.09742C75.6793 2.25117 76.0835 1.39671 76.733 0.89554C77.6408 0.139671 78.7674 0.0575117 79.8277 0.0739437C80.4241 0.0164319 81.0272 0.0985916 81.617 0Z" fill="#CA9D39"/>
<path fill-rule="evenodd" clip-rule="evenodd" d="M77.1305 48.7615C77.6938 48.5561 78.3432 48.7615 78.7276 49.3202C79.2445 50.0432 79.1848 51.2674 78.6017 51.9C77.9324 52.6806 76.6865 52.4834 76.2558 51.4564C75.772 50.4787 76.216 49.0327 77.1305 48.7615ZM71.1795 50.0679C71.597 49.2874 72.3724 49.0984 73.0351 48.778C73.0351 50.5362 73.0351 52.3026 73.0351 54.0608C73.7508 54.0608 74.4665 54.0608 75.1822 54.0608C75.1888 54.9646 75.1822 55.8766 75.1888 56.7803C74.4665 56.7803 73.7508 56.7803 73.0351 56.7803C73.0351 58.3578 73.0351 59.9325 73.0351 61.5045C73.0285 62.0221 73.2538 62.5561 73.6514 62.7533C74.1351 62.9998 74.6719 62.8683 75.1822 62.9012C75.1866 63.805 75.1866 64.7115 75.1822 65.6207C74.3008 65.5961 73.3929 65.7193 72.5381 65.4071C71.9284 65.1935 71.3717 64.7334 71.047 64.0597C70.7488 63.4435 70.6428 62.7122 70.6361 62.0057C70.6361 60.2639 70.6361 58.5221 70.6361 56.7803C70.1458 56.7803 69.6554 56.7803 69.1716 56.7803C69.1716 55.8766 69.165 54.9646 69.1716 54.0608C69.5692 54.0444 69.9801 54.1101 70.3711 53.9787C70.6627 53.8554 70.7819 53.4529 70.7621 53.0996C70.7819 52.0808 70.6229 50.9306 71.1795 50.0679ZM3.36642 50.7087C4.77795 49.7639 6.45456 49.501 8.01851 49.8543C9.52944 50.1993 10.941 51.2017 11.9019 52.6888C12.4983 53.6007 12.9158 54.6853 13.1345 55.8273C12.2332 55.8355 11.3386 55.8273 10.444 55.8355C10.0265 54.562 9.17822 53.5268 8.13117 53.0667C7.13713 52.5984 5.9973 52.6395 5.02315 53.1489C3.95622 53.7076 3.1146 54.8824 2.79651 56.2627C2.43203 57.7991 2.63084 59.5655 3.41281 60.8637C4.02249 61.9153 4.99664 62.6054 6.02381 62.7862C7.08412 62.9998 8.22394 62.6876 9.09207 61.8989C9.69512 61.3566 10.1524 60.609 10.444 59.7709C11.3386 59.7791 12.2332 59.7709 13.1279 59.7791C12.7965 61.5784 11.9218 63.2134 10.7157 64.3061C8.3366 66.4669 4.81109 66.4176 2.47842 64.1747C1.2922 63.0409 0.463838 61.3648 0.165627 59.5491C-0.152465 57.6266 0.0595962 55.5397 0.828317 53.8144C1.41148 52.4998 2.29949 51.4071 3.36642 50.7087ZM17.9589 53.8226C19.2047 53.65 20.5169 53.9787 21.5507 54.8824C22.5314 55.704 23.2273 57.0022 23.4857 58.4235C23.7972 60.1571 23.5188 62.0796 22.6375 63.501C21.9085 64.7087 20.7886 65.5221 19.5957 65.7768C18.4095 66.0397 17.1438 65.8425 16.0768 65.1277C14.9569 64.3883 14.0954 63.0573 13.7574 61.5374C13.3664 59.7463 13.605 57.7169 14.5129 56.2134C15.3147 54.8496 16.6136 53.9951 17.9589 53.8226ZM17.9787 56.7475C17.1173 56.9775 16.3949 57.832 16.1563 58.8836C15.8581 60.1078 16.1762 61.562 17.0112 62.3507C17.9986 63.3367 19.5957 63.2052 20.4572 62.0385C21.3916 60.8308 21.3585 58.7193 20.3976 57.5444C19.7746 56.7885 18.827 56.4845 17.9787 56.7475ZM34.831 54.1184C36.1829 53.4611 37.7998 53.7733 38.9662 54.8496C39.9602 55.7615 40.5964 57.2158 40.7819 58.7275C40.9874 60.4529 40.7157 62.3179 39.8475 63.7228C38.7011 65.6864 36.4082 66.4669 34.6255 65.4399C34.1153 65.136 33.658 64.6841 33.2935 64.1418C33.2869 66.0726 33.2935 67.9951 33.2935 69.9259C32.4917 69.9259 31.6898 69.9259 30.8946 69.9259C30.8946 64.6348 30.8946 59.3519 30.8946 54.0608C31.6942 54.0608 32.4939 54.0608 33.2935 54.0608C33.2935 54.5483 33.2935 55.0331 33.2935 55.5151C33.7176 54.9235 34.2279 54.4141 34.831 54.1184ZM35.1954 56.7557C34.387 56.9857 33.6978 57.7662 33.4327 58.7357C33.0748 59.9846 33.3797 61.5127 34.2345 62.3343C35.2485 63.3613 36.9052 63.2052 37.7601 61.9646C38.6547 60.7158 38.5752 58.5961 37.5745 57.4705C36.945 56.7557 36.0172 56.4928 35.1954 56.7557ZM45.54 53.8883C46.819 53.609 48.1908 53.8637 49.2975 54.7181C50.318 55.4822 51.0801 56.7557 51.385 58.1853C51.7229 59.7956 51.5573 61.5867 50.8548 63.008C50.2319 64.2979 49.1848 65.251 48.0185 65.6371C46.4811 66.1712 44.7183 65.859 43.4327 64.6594C42.6242 63.92 42.0212 62.8519 41.7362 61.6606C41.2988 59.8613 41.5308 57.7909 42.432 56.2627C43.161 54.9975 44.3074 54.1512 45.54 53.8883ZM46.1762 56.6817C45.5003 56.7968 44.8508 57.2568 44.4599 57.9634C43.7375 59.2122 43.8634 61.1184 44.7846 62.17C45.7322 63.3038 47.3956 63.2874 48.33 62.1371C49.2975 60.9787 49.3373 58.8754 48.4228 57.6594C47.8661 56.8871 46.9913 56.5421 46.1762 56.6817ZM59.3306 55.7862C60.2186 54.3977 61.6898 53.6418 63.108 53.7897C64.155 53.8719 65.1358 54.5374 65.8051 55.5315C65.7919 55.0385 65.7985 54.5538 65.7985 54.0608C66.5981 54.0608 67.3978 54.0608 68.1974 54.0608C68.1974 57.9059 68.1974 61.7537 68.1974 65.6043C67.5811 65.5632 66.9383 65.3496 66.4744 64.8073C66.2425 64.5444 66.0901 64.1993 65.9708 63.8378C65.4274 64.7909 64.6123 65.5139 63.6845 65.7686C62.4585 66.0972 61.1066 65.7522 60.106 64.8073C59.165 63.9446 58.542 62.5972 58.3233 61.1841C58.0318 59.3191 58.3432 57.2651 59.3306 55.7862ZM62.6507 56.7392C61.7826 56.9529 61.0536 57.8073 60.8018 58.8507C60.4837 60.116 60.8283 61.6277 61.7097 62.4083C62.7766 63.4024 64.4665 63.1395 65.2683 61.8085C65.8979 60.8144 65.9642 59.3601 65.4804 58.2592C64.9569 57.0268 63.7243 56.4106 62.6507 56.7392ZM83.9894 53.8637C85.3412 53.5925 86.7925 53.9376 87.9125 54.9482C88.9463 55.8437 89.6421 57.2897 89.8277 58.8261C90.0729 60.6993 89.6222 62.7287 88.5222 64.0761C86.9383 66.089 84.2544 66.4341 82.2995 65.0867C81.2922 64.3965 80.5102 63.2381 80.1391 61.8989C79.6487 60.1407 79.8078 58.1031 80.6229 56.5338C81.3585 55.0878 82.6308 54.1183 83.9894 53.8637ZM84.3936 56.7064C83.7508 56.8543 83.1477 57.3144 82.7832 57.9963C82.0609 59.278 82.22 61.2087 83.1809 62.2357C84.1882 63.3613 85.9244 63.2463 86.7992 61.9646C87.6607 60.7486 87.6275 58.7275 86.7064 57.5855C86.1232 56.8214 85.2153 56.5174 84.3936 56.7064ZM95.6395 53.839C96.6666 53.6583 97.7932 53.8719 98.6348 54.6688C99.3174 55.2932 99.7415 56.2791 99.874 57.3061C99.9867 58.1113 99.9204 58.9329 99.9403 59.7463C99.9403 61.7017 99.9403 63.6571 99.9403 65.6125C99.1362 65.618 98.3366 65.6207 97.5414 65.6207C97.537 63.4572 97.537 61.2964 97.5414 59.1383C97.5414 58.366 97.2763 57.5608 96.7528 57.109C95.8118 56.312 94.3273 56.5667 93.6845 57.7662C93.4526 58.2017 93.3532 58.7193 93.3399 59.2369C93.3399 61.3648 93.3465 63.4928 93.3399 65.6207C92.5403 65.6207 91.7428 65.6207 90.9476 65.6207C90.9432 61.7647 90.941 57.9114 90.941 54.0608C91.7406 54.0608 92.5403 54.0608 93.3399 54.0608C93.3399 54.5209 93.3399 54.981 93.3399 55.4411C93.9098 54.5702 94.7448 53.9869 95.6395 53.839ZM27.0642 55.7615C27.7468 54.6031 28.8535 53.839 30.0265 53.8554C30.0265 54.8824 30.0265 55.9094 30.0198 56.9282C29.2246 56.9282 28.3565 57.15 27.7667 57.873C27.3028 58.3989 27.0775 59.1876 27.0642 59.9517C27.0709 61.8414 27.0709 63.731 27.0642 65.6207C26.2646 65.6207 25.4672 65.6207 24.6719 65.6207C24.6719 61.7674 24.6653 57.9141 24.6719 54.0608C25.4672 54.0608 26.269 54.0608 27.0642 54.0608C27.0687 54.6305 27.0687 55.1974 27.0642 55.7615ZM55.0033 55.7862C55.6858 54.6195 56.7859 53.8472 57.9589 53.8554C57.9589 54.8797 57.9589 55.904 57.9589 56.9282C57.1636 56.9282 56.3088 57.1583 55.7123 57.8648C55.2286 58.4235 55.0099 59.2533 55.0033 60.0585C55.0033 61.9071 55.0033 63.7639 55.0033 65.6207C54.2036 65.6207 53.404 65.6207 52.6043 65.6207C52.6043 61.7674 52.6043 57.9141 52.6043 54.0608C53.4062 54.0691 54.2014 54.0526 54.9966 54.0691C55.0099 54.636 55.0033 55.2111 55.0033 55.7862ZM76.3618 54.0608C77.1614 54.0608 77.9611 54.0608 78.7607 54.0608C78.7651 57.9114 78.7651 61.7619 78.7607 65.6125C77.9655 65.6207 77.1636 65.6207 76.3618 65.6207C76.3618 61.7702 76.3618 57.9169 76.3618 54.0608Z" fill="black"/>
</g>
<defs>
<clipPath id="clip0_522_680">
<rect width="100" height="70" fill="white"/>
</clipPath>
</defs>
</svg>
